<?xml version="1.0" encoding="UTF-8"?>
<!DOCTYPE svg PUBLIC "-//W3C//DTD SVG 1.0//EN" "http://www.w3.org/TR/2001/REC-SVG-20010904/DTD/svg10.dtd">

<svg xmlns="http://www.w3.org/2000/svg" xml:space="preserve" width="100px" height="48px" version="1.0" style="shape-rendering:geometricPrecision; text-rendering:geometricPrecision; image-rendering:optimizeQuality; fill-rule:evenodd; clip-rule:evenodd"
viewBox="0 0 8.13 3.91"
 xmlns:xlink="http://www.w3.org/1999/xlink">

 <g id="Слой_x0020_1">
  <metadata id="CorelCorpID_0Corel-Layer"/>
  <g id="_1706134467840">
   <path fill="#9E0047" d="M7.77 0.66c-0.11,0.05 -0.25,0.04 -0.38,0.04 -0.02,0.07 -0.03,0.16 -0.04,0.23 -0.01,0.08 -0.02,0.15 -0.04,0.23 -0.01,0.07 -0.06,0.41 -0.07,0.45l-0.86 0 0 -0.9 -0.18 0 -0.01 0.9 -0.94 0 0 -0.9 -0.18 -0.01 0 0.9c-0.01,0.01 0.01,0.01 -0.03,0.01 -0.05,0.01 -0.85,0 -0.86,0 -0.02,-0.04 -0.01,-0.79 -0.01,-0.9l-0.17 0 0 0.79c0,0.02 0,0.04 0,0.06 0,0 0,0.02 0,0.02l-0.01 0.03 -0.94 0 0 -0.9 -0.18 0 0 0.9 -0.92 0 -0.01 -0.9 -0.18 -0.01 0 0.9c-0.05,0.01 -0.89,0.01 -0.92,0l-0.12 -0.89c-0.07,-0.01 -0.14,0 -0.21,-0.01 -0.07,0 -0.11,-0.03 -0.17,-0.04 0.01,0.11 0.08,0.63 0.1,0.77l0.2 1.54c0.03,0.26 0.06,0.52 0.1,0.77 0.03,0.17 0.16,0.16 0.27,0.16l5.65 0c0.14,0 0.3,0.01 0.43,0 0.17,-0.01 0.18,-0.15 0.19,-0.25 0.02,-0.08 0.48,-2.9 0.49,-2.99zm-4.72 2.09c0.12,0 0.9,0.01 0.94,0l0 -0.96 -0.93 0 -0.01 0.96zm2.21 0.01l0.93 0 0 -0.97 -0.93 0.01c0,0.16 0,0.32 0,0.48 0,0.1 -0.01,0.41 0,0.48zm-3.31 -0.02l0.91 0.01 0 -0.95 -0.91 0 0 0.94zm3.12 0.01l0 -0.95c-0.04,-0.01 -0.79,-0.01 -0.89,0l0 0.95c0.1,0 0.85,0.01 0.89,0zm-4.2 -0.93l0.12 0.92 0.77 0 0 -0.94 -0.87 -0.01c-0.03,0.01 -0.02,0 -0.02,0.03zm5.51 0.94c0.03,0.01 0.64,0.01 0.67,0l0.16 -0.97 -0.83 0 0 0.97zm-4.43 0.78l0.02 0 0.87 0 0.03 -0.01 0 -0.59 -0.92 0 0 0.6zm1.1 -0.01l0.94 0 0 -0.59c-0.08,0 -0.72,0.01 -0.73,0l-0.21 0 0 0.59zm3.14 -0.58l-0.93 0 0 0.58 0.93 0c0,-0.1 0.01,-0.51 0,-0.58zm-1.12 0.58l0 -0.58 -0.89 -0.01 0 0.59c0.15,0.01 0.3,0 0.45,0 0.09,0 0.36,0.02 0.44,0zm-3.98 0c0.06,0.01 0.25,0 0.33,0 0.11,0 0.22,0 0.34,0l0 -0.59 -0.75 0 0.08 0.59zm5.84 0c0.02,-0.09 0.03,-0.19 0.04,-0.27 0.01,-0.07 0.05,-0.23 0.04,-0.28l0.01 -0.03 -0.64 0 0 0.58c0.1,0 0.49,0.01 0.55,0zm-4.98 -0.79c0,0.01 -0.01,0.01 0.04,0.01 0.15,0 0.83,0.01 0.88,0l0 -0.96c-0.13,-0.01 -0.65,0 -0.87,0 0,0 -0.02,0 -0.03,0l-0.02 0.01 0.91 0 0 0.95 -0.91 -0.01zm3.31 0.02c-0.01,-0.07 0,-0.38 0,-0.48 0,-0.16 0,-0.32 0,-0.48l0.93 -0.01 0 0.97c0,0 0,0 0,0 0,0 0,-0.01 0,-0.01 0.01,-0.04 0,0.04 0.01,-0.01 0,-0.05 0,-0.93 0,-0.95 -0.04,-0.01 -0.92,-0.01 -0.95,0l0 0.94c0,0.04 0,0.02 0.01,0.03zm-4.39 -0.94c0,-0.03 -0.01,-0.02 0.02,-0.03l0.87 0.01 0 0.94 -0.77 0c0,0.02 0.04,0.01 0.08,0.01 0.16,0 0.6,0.01 0.69,0 0.01,-0.03 0.01,-0.9 0,-0.96l-0.9 0 0.01 0.03zm3.12 -0.21l0.01 -0.03c0,0 0,-0.02 0,-0.02 0,-0.02 0,-0.04 0,-0.06l0 -0.79 0.17 0c0,0.11 -0.01,0.86 0.01,0.9 0.01,0 0.81,0.01 0.86,0 0.04,0 0.02,0 0.03,-0.01l-0.89 0 0 -0.89 -0.19 -0.01 0 0.91zm1.08 1.14c-0.04,0.01 -0.79,0 -0.89,0l0 -0.95c0.1,-0.01 0.85,-0.01 0.89,0 -0.01,-0.02 0,-0.01 -0.02,-0.01l-0.42 0c-0.09,0 -0.39,-0.01 -0.45,0 -0.01,0.06 -0.01,0.94 0,0.97 0.06,0 0.16,0 0.22,0l0.64 0c0.04,0 0.02,0 0.03,-0.01zm0 0.78c-0.08,0.02 -0.35,0 -0.44,0 -0.15,0 -0.3,0.01 -0.45,0l0 -0.59 0.89 0.01c-0.01,-0.02 -0.19,-0.01 -0.22,-0.01 -0.12,0 -0.62,-0.01 -0.67,0 -0.01,0.04 -0.01,0.56 0,0.6 0.05,0.01 0.64,0 0.78,0l0.08 0c0.04,0 0.02,0 0.03,-0.01zm-2.02 0c0.02,0.01 0.08,0.01 0.11,0.01 0.16,0 0.78,0.01 0.83,0l0.01 -0.6c-0.04,-0.01 -0.68,-0.01 -0.74,0 0.01,0.01 0.65,0 0.73,0l0 0.59 -0.94 0zm3.14 -0.58c0.01,0.07 0,0.48 0,0.58l-0.93 0 0 -0.58c-0.02,0.02 -0.01,0.58 -0.01,0.58 0.03,0.02 0.9,0.02 0.94,0.01l0.01 -0.56c0,-0.01 0,-0.01 0,-0.02 -0.01,-0.02 0,0 -0.01,-0.01zm-5.1 0.58c0.01,0.02 0.02,0.01 0.07,0.01 0.13,0 0.53,0.01 0.6,0 0.01,-0.05 0.01,-0.57 0,-0.61l-0.71 0c0,0 -0.02,0 -0.02,0l-0.02 0c0,0 0,0 0,0.01l0.75 0 0 0.59c-0.12,0 -0.23,0 -0.34,0 -0.08,0 -0.27,0.01 -0.33,0zm5.84 0c-0.06,0.01 -0.45,0 -0.55,0l0 -0.58 0.64 0 -0.01 0.03c0.01,-0.02 0.01,-0.01 0.01,-0.03 -0.06,-0.01 -0.6,-0.01 -0.64,0l0 0.59 0.52 0c0.03,0 0.02,0 0.03,-0.01z"/>
   <path fill="#EBD72D" d="M0.35 0.68c0.06,0.01 0.1,0.02 0.17,0.02 0.06,0.01 0.14,0 0.21,0.01l1.04 0 0.18 0 0.92 0 0.19 0 0.94 0 0.18 0 0.89 0 0.18 0 0.95 0 0.18 0 1.01 0c0.13,0 0.27,0 0.38,-0.03 0.39,-0.08 0.53,-0.47 0.06,-0.63 -0.11,-0.04 -0.21,-0.05 -0.35,-0.05 -1.66,0 -3.37,0 -6.56,0 -0.28,0 -0.48,-0.02 -0.69,0.07 -0.13,0.06 -0.26,0.18 -0.22,0.33 0.02,0.1 0.1,0.18 0.22,0.23 0.05,0.03 0.1,0.04 0.12,0.05z"/>
  </g>
 </g>
</svg>
