<?xml version="1.0" encoding="UTF-8"?>
<!DOCTYPE svg PUBLIC "-//W3C//DTD SVG 1.0//EN" "http://www.w3.org/Graphics/SVG/1.1/DTD/svg11.dtd">
<!-- Creator: CorelDRAW 2019 (64-Bit) -->
<svg xmlns="http://www.w3.org/2000/svg" xml:space="preserve" width="734px" height="415px" version="1.0" style="shape-rendering:geometricPrecision; text-rendering:geometricPrecision; image-rendering:optimizeQuality; fill-rule:evenodd; clip-rule:evenodd"
viewBox="0 0 96.14 54.33"
 xmlns:xlink="http://www.w3.org/1999/xlink">
 <defs>
  <style type="text/css">
   <![CDATA[
    .str0 {stroke:white;stroke-width:0.31;stroke-miterlimit:22.9256}
    .fil2 {fill:#9E0047}
    .fil3 {fill:#EBD72D}
    .fil0 {fill:white}
    .fil1 {fill:white;fill-rule:nonzero}
   ]]>
  </style>
 </defs>
 <g id="Слой_x0020_1">
  <metadata id="CorelCorpID_0Corel-Layer"/>
  <g id="_2118115587472">
   <path class="fil0 str0" d="M57.75 30.29c-0.42,0.06 -0.73,0.12 -1.2,0.17 -1.07,0.11 -2.21,-0.67 -2.5,-1.73 -0.39,-0.35 0.25,-0.92 -0.76,-0.98 -0.7,-0.05 -1.95,0.43 -3.02,0.6 -0.29,0.04 -1.36,0.26 -1.57,0.35 -0.92,0.42 -1.81,1.36 -2.16,1.61 -0.54,0.41 -0.41,0.47 -0.88,0.96 -0.51,0.54 -1.81,2.93 -1.78,3.87 0.01,0.28 0.06,0.57 0.07,0.82 0.03,0.61 -0.16,1.48 0.15,2.68 0.28,1.05 0.33,2.11 0.69,3.07 0.33,0.89 0.7,1.83 1.23,2.52 0.43,0.56 0.44,0.52 1.36,0.43 1.33,-0.13 3.32,-0.6 4.53,-1.16 0.87,-0.41 1.71,-0.64 2.56,-1.19 0.25,-0.15 0.34,-0.16 0.63,-0.29l2.15 -1.61c0.21,-0.18 0.2,-0.25 0.39,-0.52 0.45,-0.6 0.11,0.14 0.84,-1.1 0.69,-1.2 0.68,-1.46 0.95,-2.8 0.38,-1.92 0.04,-4.14 -1.43,-5.46 -0.02,-0.02 -0.08,-0.08 -0.1,-0.1 -0.11,-0.1 -0.1,-0.08 -0.15,-0.14z"/>
   <path class="fil0 str0" d="M66.08 26.51c-1.22,1.94 -1.37,3.36 -0.99,5.67 0.2,1.2 0.77,2.88 1.54,3.75 0.2,0.22 0.21,0.15 0.41,0.49 0.61,1.01 0.51,0.49 0.74,0.99 0.16,0.34 -0.01,0.33 0.35,0.57 0.81,0.53 0.45,-0.05 1.04,0.8l1.95 1.61c3.18,1.92 3.14,2.35 5.57,-0.26 0.27,-0.29 0.45,-0.63 0.8,-1.02 0.3,-0.34 0.4,-0.65 0.7,-1.02 0.23,-0.27 0.2,-0.17 0.39,-0.53 0.61,-1.15 0.58,-0.79 0.94,-1.7 0.09,-0.23 0.93,-1.83 1.07,-2.47 0.24,-1.02 0.52,-1.75 0.45,-3.13 -0.07,-1.62 -0.36,-2.77 -1.35,-4.05 -1.01,-1.31 -0.57,-0.79 -1.99,-1.56 -0.87,-0.47 -1.47,-1.16 -2.66,-1.04l-0.61 1.67c-1.22,2.18 -1.15,1.78 -2.31,3.29 -1.48,1.93 -2.3,0.52 -4.75,-1.1 -0.37,-0.24 -0.84,-0.76 -1.29,-0.96z"/>
   <path class="fil0 str0" d="M59.9 34.79c-0.17,2.14 -0.09,1.47 -0.63,3.27 -0.37,1.22 -0.13,-0.19 -0.67,1.24 -0.18,0.48 -0.03,0.16 -0.33,0.41 -0.35,0.31 -0.54,0.73 -0.92,1.01 -0.75,0.55 -0.54,0.64 -1.05,0.99 0.34,-0.1 0.16,-0.1 0.41,0.98 0.11,0.48 0.16,0.69 0.18,1.1 0.01,0.28 0.51,2 0.63,2.27 0.62,0.18 15.63,0.04 17.66,0.06l1.09 -4.76c-1.04,0.08 -0.69,1.6 -3.47,0.47l-2.23 -1.41c-1.28,-0.91 -1.15,-0.95 -2.22,-1.94l-0.86 -0.98c-0.83,-0.81 -0.2,0.01 -0.84,-0.99 -0.15,-0.24 -0.06,-0.07 -0.3,-0.3 -0.25,-0.24 -0.32,-0.43 -0.46,-0.77 -0.15,-0.39 -0.16,-0.53 -0.66,-0.56 0.45,-0.08 0.3,0.02 0.15,-0.23 -0.19,0.23 -1.05,0.15 -1.31,0.15l-4.17 -0.01z"/>
   <path class="fil0 str0" d="M52.4 27.4c-0.36,-0.26 -0.37,-0.09 -0.75,-0.47 -1.15,-1.14 -0.98,-3.08 -0.11,-4.43 0.49,-0.75 0.88,-0.55 1.32,-0.98 -0.14,-0.42 -0.41,-0.63 -0.48,-1.02 -0.08,-0.5 0.05,-1.02 0,-1.5 -0.76,-0.62 -2.6,-0.99 -3.67,-1.32 -1.35,-0.42 -3.25,-0.26 -4.74,-0.18 -1.05,0.05 -1.19,0.06 -1.87,0.55l-0.89 0.74c-0.55,0.45 -1.08,0.84 -1.35,1.99 -0.18,0.79 -0.32,1.41 -0.3,2.26 0.04,1.57 0.13,2.94 0.62,4.38 0.5,1.46 1.2,1.53 3.47,1.3 1.53,-0.16 3.06,-0.22 4.56,-0.37 0.92,-0.1 3.51,-0.56 4.19,-0.95z"/>
   <path class="fil0 str0" d="M77.91 18.08c-0.75,-0.11 -1.27,-0.82 -2.36,-0.39 -0.34,0.13 -0.35,0.46 -0.58,0.81 -0.31,0.48 -0.47,0.37 -0.81,0.68 -0.12,0.75 0.14,1.71 0.46,2.25 0.08,0.14 0.18,0.24 0.26,0.35 1.2,1.6 0.59,0.71 1.72,1.74 0.37,0.34 2.21,1.28 2.64,1.52 0.94,0.54 2.91,1.08 4,1.48 2.3,0.84 2.36,0.64 3.46,-2.59 0.08,-0.23 0.15,-0.33 0.21,-0.52 0.17,-0.6 0.35,-2.18 0.22,-3 -0.09,-0.62 -0.37,-1.54 -0.7,-2.04l-1.28 -1.47c-1.76,-1.44 -4.46,-1.67 -6.26,-0.56 -0.77,0.47 -0.97,0.65 -0.98,1.74z"/>
   <path class="fil0 str0" d="M66.08 26.51c0.45,0.2 0.92,0.72 1.29,0.96 2.45,1.62 3.27,3.03 4.75,1.1 1.16,-1.51 1.09,-1.11 2.31,-3.29l0.61 -1.67c1.19,-0.12 1.79,0.57 2.66,1.04 1.42,0.77 0.98,0.25 1.99,1.56 0.99,1.28 1.28,2.43 1.35,4.05 0.07,1.38 -0.21,2.11 -0.45,3.13 -0.14,0.64 -0.98,2.24 -1.07,2.47 -0.36,0.91 -0.33,0.55 -0.94,1.7 -0.19,0.36 -0.16,0.26 -0.39,0.53 -0.3,0.37 -0.4,0.68 -0.7,1.02 -0.35,0.39 -0.53,0.73 -0.8,1.02 -2.43,2.61 -2.39,2.18 -5.57,0.26l-1.95 -1.61c-0.59,-0.85 -0.23,-0.27 -1.04,-0.8 -0.36,-0.24 -0.19,-0.23 -0.35,-0.57 -0.23,-0.5 -0.13,0.02 -0.74,-0.99 -0.2,-0.34 -0.21,-0.27 -0.41,-0.49 -0.77,-0.87 -1.34,-2.55 -1.54,-3.75 -0.38,-2.31 -0.23,-3.73 0.99,-5.67zm-23.53 2.67c1.38,-0.16 3.58,-0.21 4.74,-0.37 0.54,-0.08 0.46,-0.01 0.58,0.08 -1.01,0.43 -1.9,1.47 -2.61,2.27l-0.92 1.52c-0.15,0.3 -0.39,1.25 -0.7,1.67 -0.47,-1.55 -1.54,-3.47 -1.09,-5.17zm37.57 6.46c0.11,-0.33 0.25,-0.76 0.44,-1.18 0.46,-1.02 0.95,-2.83 0.87,-3.97 -0.06,-0.82 -0.07,-1.96 -0.39,-2.67 -0.49,-1.09 -1.09,-1.84 -1.19,-2.09 1.29,0.44 3.67,1.44 4.97,1.54 1.12,0.09 0.76,-0.37 1.3,-0.68 0.54,1.39 0.95,2.55 0.82,4.28 -0.12,1.53 -0.63,2.58 -1.18,3.9 -0.33,0.77 -1.24,2.11 -1.92,2.58 -0.95,0.64 -3.19,-1.24 -3.72,-1.71zm-2.21 -17.56c0.01,-1.09 0.21,-1.27 0.98,-1.74 1.8,-1.11 4.5,-0.88 6.26,0.56l1.28 1.47c0.33,0.5 0.61,1.42 0.7,2.04 0.13,0.82 -0.05,2.4 -0.22,3 -0.06,0.19 -0.13,0.29 -0.21,0.52 -1.1,3.23 -1.16,3.43 -3.46,2.59 -1.09,-0.4 -3.06,-0.94 -4,-1.48 -0.43,-0.24 -2.27,-1.18 -2.64,-1.52 -1.13,-1.03 -0.52,-0.14 -1.72,-1.74 -0.08,-0.11 -0.18,-0.21 -0.26,-0.35 -0.32,-0.54 -0.58,-1.5 -0.46,-2.25 0.34,-0.31 0.5,-0.2 0.81,-0.68 0.23,-0.35 0.24,-0.68 0.58,-0.81 1.09,-0.43 1.61,0.28 2.36,0.39zm-21.72 23.73l0.11 -0.1c0.51,-0.35 0.3,-0.44 1.05,-0.99 0.38,-0.28 0.57,-0.7 0.92,-1.01 0.3,-0.25 0.15,0.07 0.33,-0.41 0.54,-1.43 0.3,-0.02 0.67,-1.24 0.54,-1.8 0.46,-1.13 0.63,-3.27l0.01 -0.71c0.08,-0.2 -0.4,-0.7 0.09,-1.27 0.46,0.22 -0.1,0.21 0.47,0.44 0.56,0.24 1.22,-0.34 1.81,-0.7 1.15,-0.72 0.61,-0.18 1.44,-0.91 0.35,-0.31 0.36,-0.37 0.73,-0.44 0.25,0.48 0.26,0.84 0.31,1.5 0.06,0.72 0.39,0.83 0.4,1.42l0.22 0.53c0.15,0.25 0.3,0.15 -0.15,0.23 0.5,0.03 0.51,0.17 0.66,0.56 0.14,0.34 0.21,0.53 0.46,0.77 0.24,0.23 0.15,0.06 0.3,0.3 0.64,1 0.01,0.18 0.84,0.99l0.86 0.98c1.07,0.99 0.94,1.03 2.22,1.94l2.23 1.41c2.78,1.13 2.43,-0.39 3.47,-0.47 0.08,-0.26 0.08,-0.26 0.2,-0.44 0.35,-0.52 0.19,-0.26 0.3,-0.17 0.5,-0.81 1.02,-1.39 1.65,-2.34l1.5 -2.38c0.53,0.25 0.42,0.36 0.88,0.67 0.34,0.22 0.54,0.4 0.86,0.55 0.49,0.24 1.49,0.8 2.14,0.55 0.49,-0.19 1.2,-1.07 1.5,-1.45 0.75,-0.93 1.4,-2.83 1.77,-4.02 0.16,-0.52 0.31,-1.98 0.26,-2.58 -0.17,-2.07 -0.53,-2.18 -0.96,-3.42 -0.26,-0.76 1.58,-3.12 1.13,-5.91 -0.12,-0.67 -0.38,-1.69 -0.72,-2.21 -0.59,-0.91 -0.52,-0.67 -0.97,-1.16 -2.64,-2.9 -7.68,-1.92 -8.28,0.43 -0.88,-0.24 -0.83,-0.31 -1.91,-0.21l0.94 -2.49c0.91,0.1 2.12,0.04 3.05,0.02 0.83,-0.02 1.9,-0.01 2.25,-0.68 0.8,-1.58 0.59,-3.97 -0.22,-5.61 -0.55,-1.12 -1.65,-1.95 -2.87,-2.32 -2.68,-0.81 -3.98,0.32 -4.93,0.41l0.18 0.4c1.69,-0.62 2.7,-1.07 4.62,-0.44 4.1,1.35 3.61,6.28 2.87,7.4 -0.47,0.69 -3.95,0.51 -4.89,0.45 -0.02,-1.47 -0.04,-1.76 -1.34,-2.27l-0.36 0.02 -0.04 0.34c1.94,0.15 1.38,1.85 0.99,3.04 -0.22,0.68 -1.08,2.69 -1.53,3.12 -0.47,0.2 -2.03,-0.64 -2.54,-0.82 -1.77,-0.65 -3.63,-0.72 -5.55,-1.03 -0.91,-0.15 -1.96,-0.09 -2.4,-0.74 -0.64,-0.04 -0.25,0.03 -0.42,-0.23 -0.06,0.11 -0.07,0.06 -0.07,0.28 0,0.19 -0.02,-0.01 0.03,0.16 0.08,0.3 -0.04,-0.05 0.17,0.26 0.72,0.34 0.32,0.29 1.44,0.46 0.6,0.09 1.09,0.16 1.68,0.28 -0.65,0.68 -1.18,1.46 -2.3,1.73 -0.1,0.05 -0.11,0.01 -0.15,0.13l0.02 0.22c0,-0.02 0,0.06 0.03,0.08 0.66,-0.14 1.51,-0.52 1.78,-1.02l0.71 -0.08c-0.25,-0.63 0.42,-0.95 0.65,-0.97 1.11,-0.08 4.58,0.79 5.74,1.46 0.02,0.01 0.04,0.02 0.06,0.03 0.02,0.01 0.04,0.03 0.06,0.04 0.52,0.45 0.55,1.62 0.87,2.29 0.59,1.26 0.71,1.62 0.17,3.36 -0.15,0.46 -0.45,1.04 -0.71,1.44 -0.62,0.96 -1.21,1.61 -1.84,2.42 -0.29,0.37 -0.68,0.84 -1.24,0.68 -0.59,-0.16 -2.01,-1.2 -2.53,-1.64 -0.71,-0.59 -1.72,-1.1 -2.3,-1.87l-0.33 0.22 0.4 0.39c-0.14,0.48 -1.48,2.18 -1.24,4.37 -0.2,0.22 -0.24,0.17 -0.45,0.32l-1.34 1c-2.23,1.54 -2.04,1.31 -3.25,-0.39 -0.43,-0.59 -0.67,-1 -0.91,-1.71 -0.27,0.24 -0.51,0.27 -0.83,0.51 0.05,0.06 0.04,0.04 0.15,0.14 0.02,0.02 0.08,0.08 0.1,0.1 1.47,1.32 1.81,3.54 1.43,5.46 -0.27,1.34 -0.26,1.6 -0.95,2.8 -0.73,1.24 -0.39,0.5 -0.84,1.1 -0.19,0.27 -0.18,0.34 -0.39,0.52l-2.15 1.61c-0.29,0.13 -0.38,0.14 -0.63,0.29 -0.85,0.55 -1.69,0.78 -2.56,1.19 -1.21,0.56 -3.2,1.03 -4.53,1.16 -0.92,0.09 -0.93,0.13 -1.36,-0.43 -0.53,-0.69 -0.9,-1.63 -1.23,-2.52 -0.36,-0.96 -0.41,-2.02 -0.69,-3.07 -0.31,-1.2 -0.12,-2.07 -0.15,-2.68 -0.01,-0.25 -0.06,-0.54 -0.07,-0.82 -0.03,-0.94 1.27,-3.33 1.78,-3.87 0.47,-0.49 0.34,-0.55 0.88,-0.96 0.35,-0.25 1.24,-1.19 2.16,-1.61 0.21,-0.09 1.28,-0.31 1.57,-0.35 1.07,-0.17 2.32,-0.65 3.02,-0.6 1.01,0.06 0.37,0.63 0.76,0.98 -0.14,-0.39 -0.04,-0.7 -0.25,-1.13 -0.26,-0.17 -1.09,-0.32 -1.4,-0.2 -0.68,0.39 -3.27,0.85 -4.19,0.95 -1.5,0.15 -3.03,0.21 -4.56,0.37 -2.27,0.23 -2.97,0.16 -3.47,-1.3 -0.49,-1.44 -0.58,-2.81 -0.62,-4.38 -0.02,-0.85 0.12,-1.47 0.3,-2.26 0.27,-1.15 0.8,-1.54 1.35,-1.99l0.89 -0.74c0.68,-0.49 0.82,-0.5 1.87,-0.55 1.49,-0.08 3.39,-0.24 4.74,0.18 1.07,0.33 2.91,0.7 3.67,1.32 0.25,-0.17 0.14,0 0.22,-0.44 -0.22,-0.07 -1.89,-0.69 -2.06,-0.8l0.27 -0.55c0.15,-0.3 0.14,-0.3 0.32,-0.49 0.64,-0.65 0.84,-0.98 1.79,-1.47 0.25,-0.13 0.28,-0.2 0.51,-0.3 1.71,-0.74 5.06,-0.21 5.69,0.98 -0.1,0.11 -0.07,0.06 -0.19,0.16 -0.42,0.32 -0.19,-0.15 -0.33,0.35 0.19,-0.21 0.22,-0.16 0.48,-0.31 0.34,-0.22 0.06,-0.12 0.51,-0.32 -0.75,-0.81 -1.99,-1.43 -3.44,-1.55 -2.87,-0.23 -3.17,0.8 -3.8,0.72 -0.24,-1.14 -0.28,-4.29 -0.09,-5.45 0.19,-1.18 0.99,-3.43 1.74,-3.87 2.58,-1.51 6.7,-0.52 8.84,0.96 0.55,-0.09 0.19,0.08 0.34,-0.24 -2.31,-1.66 -7.35,-2.72 -9.52,-0.85 -0.34,0.28 -0.48,0.58 -0.72,0.9 -0.49,0.65 -0.99,2.63 -1.06,3.5 -0.2,2.34 0.02,3.4 0.16,5.47 -0.19,0.16 -0.44,0.27 -0.64,0.46 -0.74,0.7 -1,1.51 -1.36,1.81 -2.5,-0.38 -2.93,-0.81 -5.99,-0.53 -1.17,0.11 -2.63,0.78 -3.4,1.59 -1.47,1.53 -1.71,4.31 -1.33,6.61 0.43,2.64 0.7,3.77 2.79,3.82 0.01,2.01 0.36,3.36 1.14,5.15 0.83,1.93 -0.25,4.45 1.66,8.7 0.45,0.99 0.9,2.12 2.06,2.06 2.6,-0.15 4.9,-1.14 7.22,-2.14l1.32 -0.69c0.32,-0.22 0.24,-0.28 0.68,-0.43z"/>
   <path class="fil0 str0" d="M59.59 15.81c0.66,-0.2 1.36,-0.34 2.22,-0.2 0.36,0.06 0.79,0.15 1.05,0.3 0.29,0.15 0.51,0.42 0.7,0.63 -0.21,-0.31 -0.09,0.04 -0.17,-0.26 -0.05,-0.17 -0.03,0.03 -0.03,-0.16 0,-0.22 0.01,-0.17 0.07,-0.28 -0.7,0.2 -1.02,-0.54 -1.38,-0.81 -0.37,-0.27 -0.1,0.12 -0.37,-0.39 -0.68,-1.33 -0.17,-1.84 -0.16,-2.46 -1.23,-0.65 -2.38,-1.52 -1.84,-3.37 0.69,-2.36 2.71,-2.03 3.16,-2.19 -2.14,-1.48 -6.26,-2.47 -8.84,-0.96 -0.75,0.44 -1.55,2.69 -1.74,3.87 -0.19,1.16 -0.15,4.31 0.09,5.45 0.63,0.08 0.93,-0.95 3.8,-0.72 1.45,0.12 2.69,0.74 3.44,1.55z"/>
   <path class="fil0 str0" d="M64.28 19.44c-0.2,0.1 -0.13,0.03 -0.22,0.26 1.46,0.57 1.53,0.4 2.32,2.35 0.67,1.63 -0.03,2.46 -0.68,3.53 0.58,0.77 1.59,1.28 2.3,1.87 0.52,0.44 1.94,1.48 2.53,1.64 0.56,0.16 0.95,-0.31 1.24,-0.68 0.63,-0.81 1.22,-1.46 1.84,-2.42 0.26,-0.4 0.56,-0.98 0.71,-1.44 0.54,-1.74 0.42,-2.1 -0.17,-3.36 -0.32,-0.67 -0.35,-1.84 -0.87,-2.29 -0.02,-0.01 -0.04,-0.03 -0.06,-0.04 -0.02,-0.01 -0.04,-0.02 -0.06,-0.03 -1.16,-0.67 -4.63,-1.54 -5.74,-1.46 -0.23,0.02 -0.9,0.34 -0.65,0.97l-0.71 0.08c-0.27,0.5 -1.12,0.88 -1.78,1.02z"/>
   <path class="fil0 str0" d="M80.12 35.64c0.53,0.47 2.77,2.35 3.72,1.71 0.68,-0.47 1.59,-1.81 1.92,-2.58 0.55,-1.32 1.06,-2.37 1.18,-3.9 0.13,-1.73 -0.28,-2.89 -0.82,-4.28 -0.54,0.31 -0.18,0.77 -1.3,0.68 -1.3,-0.1 -3.68,-1.1 -4.97,-1.54 0.1,0.25 0.7,1 1.19,2.09 0.32,0.71 0.33,1.85 0.39,2.67 0.08,1.14 -0.41,2.95 -0.87,3.97 -0.19,0.42 -0.33,0.85 -0.44,1.18z"/>
   <path class="fil0 str0" d="M76.6 48.89c0.11,-0.64 1.01,-2.23 -0.08,-2.42l-17.13 0.01c-2.96,0.01 -4.13,-0.45 -3.78,1.28 0.15,0.72 0.1,0.3 0.38,0.83 0.08,0.14 0.08,0.17 0.12,0.27l20.49 0.03z"/>
   <path class="fil0 str0" d="M74.02 7c-0.02,0.44 0.03,0.83 -0.07,1.24 -0.08,0.35 -0.21,0.6 -0.24,0.99 0.28,0.15 0.6,0.22 0.84,0.37 0.88,0.57 0.64,2.05 0.69,2.42 0,0.02 0.02,0.09 0.04,0.12 1.3,0.51 1.32,0.8 1.34,2.27 0.94,0.06 4.42,0.24 4.89,-0.45 0.74,-1.12 1.23,-6.05 -2.87,-7.4 -1.92,-0.63 -2.93,-0.18 -4.62,0.44z"/>
   <path class="fil0 str0" d="M63.85 16.07c0.44,0.65 1.49,0.59 2.4,0.74 1.92,0.31 3.78,0.38 5.55,1.03 0.51,0.18 2.07,1.02 2.54,0.82 0.45,-0.43 1.31,-2.44 1.53,-3.12 0.39,-1.19 0.95,-2.89 -0.99,-3.04 -0.76,0.24 -0.54,0.79 -2.47,1 -0.16,0.4 -0.03,0.4 -0.32,0.71 -0.13,0.13 -0.38,0.36 -0.53,0.49 -0.37,0.3 -0.81,0.51 -1.28,0.66 -2.2,0.71 -2.42,0.1 -3.47,0.08 -0.32,0.3 -0.08,0.19 -0.6,0.42 -0.87,0.36 -1.43,0.44 -2.36,0.21z"/>
   <path class="fil0 str0" d="M56.25 49.07l20.21 0.01c-0.29,0.61 -0.43,0.47 -1.22,0.47l-17.78 -0.01c-0.8,0.01 -0.95,0.16 -1.21,-0.47zm20.35 -0.18l-20.49 -0.03c-0.04,-0.1 -0.04,-0.13 -0.12,-0.27 -0.28,-0.53 -0.23,-0.11 -0.38,-0.83 -0.35,-1.73 0.82,-1.27 3.78,-1.28l17.13 -0.01c1.09,0.19 0.19,1.78 0.08,2.42zm-0.33 -7.53l-1.09 4.76c-2.03,-0.02 -17.04,0.12 -17.66,-0.06 -0.12,-0.27 -0.62,-1.99 -0.63,-2.27 -0.02,-0.41 -0.07,-0.62 -0.18,-1.1 -0.25,-1.08 -0.07,-1.08 -0.41,-0.98l-0.11 0.1c0,1.14 0.74,3.05 0.91,4.32 -1.65,-0.03 -2.2,0.16 -1.65,1.98 0.46,1.5 0.5,1.82 2.11,1.81l15.35 0c0.83,0 3.2,0.21 3.63,-0.28 0.57,-0.66 0.85,-1.96 0.72,-3.02 -0.57,-0.61 -0.8,-0.42 -1.68,-0.53l1.19 -5.34c-0.11,-0.09 0.05,-0.35 -0.3,0.17 -0.12,0.18 -0.12,0.18 -0.2,0.44z"/>
   <path class="fil0 str0" d="M58.58 29.78c0.24,0.71 0.48,1.12 0.91,1.71 1.21,1.7 1.02,1.93 3.25,0.39l1.34 -1c0.21,-0.15 0.25,-0.1 0.45,-0.32 -0.24,-2.19 1.1,-3.89 1.24,-4.37l-0.4 -0.39 -1.3 0.48c-0.95,0.45 0.07,0.65 -0.86,2.21 -0.79,1.33 -0.72,1.31 -1.81,1.74 -0.83,0.33 -2.49,-0.64 -2.62,-0.69 -0.3,0.17 -0.12,0.05 -0.2,0.24z"/>
   <path class="fil0 str0" d="M52.6 18.56c0.28,-0.19 0.53,-0.78 0.93,-1.18 1.95,-1.95 3.82,0 4.39,0.13 0.3,-0.75 0.16,-0.6 0.68,-1.07 0.14,-0.5 -0.09,-0.03 0.33,-0.35 0.12,-0.1 0.09,-0.05 0.19,-0.16 -0.63,-1.19 -3.98,-1.72 -5.69,-0.98 -0.23,0.1 -0.26,0.17 -0.51,0.3 -0.95,0.49 -1.15,0.82 -1.79,1.47 -0.18,0.19 -0.17,0.19 -0.32,0.49l-0.27 0.55c0.17,0.11 1.84,0.73 2.06,0.8z"/>
   <path class="fil0 str0" d="M42.55 29.18c-0.45,1.7 0.62,3.62 1.09,5.17 0.31,-0.42 0.55,-1.37 0.7,-1.67l0.92 -1.52c0.71,-0.8 1.6,-1.84 2.61,-2.27 -0.12,-0.09 -0.04,-0.16 -0.58,-0.08 -1.16,0.16 -3.36,0.21 -4.74,0.37z"/>
   <path class="fil0 str0" d="M56.25 49.07c0.26,0.63 0.41,0.48 1.21,0.47l17.78 0.01c0.79,0 0.93,0.14 1.22,-0.47l-20.21 -0.01z"/>
   <path class="fil0 str0" d="M59.91 34.08l5.25 0.04c-0.01,-0.59 -0.34,-0.7 -0.4,-1.42 -0.05,-0.66 -0.06,-1.02 -0.31,-1.5 -0.37,0.07 -0.38,0.13 -0.73,0.44 -0.83,0.73 -0.29,0.19 -1.44,0.91 -0.59,0.36 -1.25,0.94 -1.81,0.7 -0.57,-0.23 -0.01,-0.22 -0.47,-0.44 -0.49,0.57 -0.01,1.07 -0.09,1.27z"/>
   <path class="fil0 str0" d="M59.9 34.79l4.17 0.01c0.26,0 1.12,0.08 1.31,-0.15l-0.22 -0.53 -5.25 -0.04 -0.01 0.71z"/>
   <path class="fil0 str0" d="M64.38 19.01c1.12,-0.27 1.65,-1.05 2.3,-1.73 -0.59,-0.12 -1.08,-0.19 -1.68,-0.28 -1.12,-0.17 -0.72,-0.12 -1.44,-0.46 0.21,0.28 0.22,0.19 0.39,0.53 0.05,0.09 0.25,0.53 0.26,0.54 0.18,0.59 -0.14,1.42 0.17,1.4z"/>
   <g>
    <path class="fil0 str0" d="M49.62 12.01c0.15,0.37 0.13,0.41 -0.19,0.52 -0.52,-0.63 -1.1,-1.2 -1.63,-1.83 -0.55,-0.66 -0.96,-0.89 -1.73,-0.84 -1.52,0.1 -4.46,2.47 -1.22,4.86 0.87,0.64 0.81,0.37 1.88,0.14l3.53 -0.67c0.53,-0.05 0.16,-0.19 0.46,0.16 -0.27,0.42 -2.93,0.73 -3.56,0.85 -0.84,0.16 -1.21,0.16 -1.85,0.78 -0.58,0.56 -0.92,1.06 -0.62,1.79 0.39,0.96 1.01,0.97 1.58,1.07 1.82,0.31 4.03,-2.96 4.81,-3.97 -0.31,-0.05 0.02,-0.08 -0.31,0.04l-1 0.74c-0.68,0.53 -3.53,2.59 -4.07,2.65 0.16,-0.15 3.14,-2.08 4.36,-3.05 0.34,-0.27 0.58,-0.54 0.95,-0.7 0.34,-0.14 0.04,-0.13 0.43,-0.09 0.31,1.04 -1.8,2.73 -2.33,3.43 -0.33,0.43 -0.25,0.22 -0.18,0.63 0.18,1.25 5.11,0.14 4.72,-1.31 -0.3,-1.08 -1.37,-2 -1.36,-2.69 0.72,-0.17 0.84,1.97 2.73,2.4 1.16,0.26 2.49,-0.96 2.98,-2.05 0.24,-0.54 0.41,-1 0.14,-1.73 -1.07,-2.91 -3.5,1.01 -4.95,0.6 0.07,-0.79 1.83,-0.49 3.48,-2.77 0.84,-1.15 1.54,-2.54 0.06,-3.94 -1.37,-1.29 -3.35,-0.89 -3.88,1.34 -0.06,0.24 -0.08,0.75 -0.11,1.03l-0.24 2.04c-0.28,-0.09 -0.02,0.11 -0.27,-0.14 -0.05,-0.05 -0.15,-0.23 -0.19,-0.29 0.44,-0.94 0.5,-2.67 0.09,-3.73 -1.5,-3.89 -5.57,-1.47 -4.76,1.39 0.36,1.28 1.13,2.69 2.25,3.34zm3 -4.91c0.57,-0.62 2.65,-2.66 4.73,-0.65 1.63,1.57 1.09,3.19 0.33,4.62 0.38,0.63 1.18,0.84 1.35,2.63 0.07,0.75 -0.51,2.2 -1.16,2.82 -0.65,0.63 -1.31,1.09 -2.34,1.25 -0.64,0.1 -0.34,0.06 -0.83,-0.06 -0.97,0.68 -0.8,1.44 -3.3,2.09 -0.53,0.13 -1.07,0.19 -1.61,0.1 -0.22,-0.03 -0.59,-0.12 -0.79,-0.17 -0.46,-0.14 -0.34,-0.22 -0.73,-0.54 -0.73,0.37 -2.82,0.53 -3.22,0.16 -0.4,-0.37 -1.65,-1.72 -1.17,-2.85 0.13,-0.31 0.39,-0.58 0.55,-0.91 -0.26,-0.38 -0.53,-0.56 -0.82,-0.86 -0.34,-0.37 -0.53,-0.81 -0.82,-1.24l-0.08 -0.53c-0.29,-1.03 0.08,-2.03 0.91,-2.8 1.19,-1.09 1.78,-1.18 2.98,-1.14 -0.85,-4.03 3.41,-5.34 4.64,-4.22 0.64,0.69 0.92,1.54 1.38,2.3z"/>
    <path class="fil0 str0" d="M52.04 11.01l-1 0.05c-0.54,0.06 -1.23,0.64 -1.42,0.95 -1.12,-0.65 -1.89,-2.06 -2.25,-3.34 -0.81,-2.86 3.26,-5.28 4.76,-1.39 0.41,1.06 0.35,2.79 -0.09,3.73zm-2.61 1.51c0.1,0.74 0.05,0.39 0.45,1.22 0.77,0.18 0.75,0.46 1.74,-0.12 0.97,-0.57 0.96,-0.68 1.17,-1.66l-0.29 -0.52 0.24 -2.04c0.03,-0.28 0.05,-0.79 0.11,-1.03 0.53,-2.23 2.51,-2.63 3.88,-1.34 1.48,1.4 0.78,2.79 -0.06,3.94 -1.65,2.28 -3.41,1.98 -3.48,2.77 1.45,0.41 3.88,-3.51 4.95,-0.6 0.27,0.73 0.1,1.19 -0.14,1.73 -0.49,1.09 -1.82,2.31 -2.98,2.05 -1.89,-0.43 -2.01,-2.57 -2.73,-2.4 -0.01,0.69 1.06,1.61 1.36,2.69 0.39,1.45 -4.54,2.56 -4.72,1.31 -0.07,-0.41 -0.15,-0.2 0.18,-0.63 0.53,-0.7 2.64,-2.39 2.33,-3.43 -0.39,-0.04 -0.09,-0.05 -0.43,0.09 0.05,0.06 0.07,0.23 0.07,0.32 -0.78,1.01 -2.99,4.28 -4.81,3.97 -0.57,-0.1 -1.19,-0.11 -1.58,-1.07 -0.3,-0.73 0.04,-1.23 0.62,-1.79 0.64,-0.62 1.01,-0.62 1.85,-0.78 0.63,-0.12 3.29,-0.43 3.56,-0.85 -0.3,-0.35 0.07,-0.21 -0.46,-0.16l-3.53 0.67c-1.07,0.23 -1.01,0.5 -1.88,-0.14 -3.24,-2.39 -0.3,-4.76 1.22,-4.86 0.77,-0.05 1.18,0.18 1.73,0.84 0.53,0.63 1.11,1.2 1.63,1.82z"/>
    <g>
     <path class="fil0" d="M51.8 11.08c0.38,0.12 0.93,0.04 0.99,0.88 0.06,0.84 -0.2,1.08 -1.17,1.66 -0.98,0.58 -1.09,0.67 -1.74,0.12 -0.64,-0.56 -0.59,-0.68 -0.45,-1.21 0.13,-0.54 0.19,-0.52 0.37,-0.75 0.18,-0.22 0.7,-0.66 1.24,-0.72 0.34,-0.02 0.39,-0.1 0.76,0.02z"/>
     <path id="1" class="fil1" d="M52.89 12.06l-0.2 -0.2 0 0 0 -0.07 -0.01 -0.07 -0.01 -0.06 -0.02 -0.05 -0.01 -0.05 -0.02 -0.04 -0.01 -0.02 -0.01 -0.02 -0.01 -0.02 0 0 -0.01 -0.01 -0.01 -0.02 -0.02 -0.01 -0.02 -0.02 -0.03 -0.01 -0.03 -0.02 -0.03 -0.02 -0.04 -0.01 -0.03 -0.01 -0.04 -0.01 -0.04 -0.02 -0.03 -0.01 -0.04 0 -0.04 -0.01 -0.04 -0.01 -0.04 -0.01 -0.04 -0.01 -0.04 -0.01 -0.04 0 -0.04 -0.01 -0.03 -0.01 -0.04 -0.02 -0.13 -0.25 0.03 0.01 0.04 0.01 0.03 0.01 0.04 0.01 0.04 0.01 0.04 0 0.04 0.01 0.03 0.01 0.05 0.01 0.04 0.01 0.04 0.01 0.04 0.01 0.04 0.01 0.04 0.02 0.04 0.02 0.04 0.02 0.04 0.02 0.04 0.03 0.05 0.03 0.04 0.04 0.05 0.05 0.05 0.05 0.05 0.07 0.05 0.07 0.03 0.07 0.04 0.06 0.02 0.07 0.02 0.07 0.02 0.07 0.01 0.07 0.01 0.08 0.01 0.08 0 0zm-1.19 1.69l-0.17 -0.26 0 0 0.09 -0.05 0.08 -0.05 0.08 -0.05 0.08 -0.05 0.07 -0.04 0.07 -0.05 0.07 -0.05 0.06 -0.04 0.06 -0.04 0.05 -0.05 0.05 -0.04 0.05 -0.04 0.05 -0.04 0.04 -0.05 0.03 -0.04 0.04 -0.04 0.03 -0.05 0.03 -0.04 0.02 -0.05 0.03 -0.05 0.02 -0.05 0.01 -0.05 0.02 -0.05 0.01 -0.05 0.01 -0.06 0.01 -0.06 0.01 -0.06 0 -0.06 0 -0.06 0 -0.07 0 -0.08 -0.01 -0.07 0.2 0.2 0 0.07 0.01 0.08 0 0.07 0 0.07 -0.01 0.07 0 0.06 -0.01 0.06 -0.01 0.06 -0.02 0.06 -0.01 0.06 -0.02 0.05 -0.02 0.05 -0.03 0.05 -0.02 0.05 -0.03 0.05 -0.03 0.04 -0.04 0.05 -0.04 0.04 -0.04 0.04 -0.05 0.05 -0.04 0.04 -0.06 0.04 -0.05 0.05 -0.06 0.04 -0.06 0.05 -0.07 0.04 -0.07 0.05 -0.07 0.04 -0.08 0.05 -0.08 0.05 -0.09 0.05 -0.09 0.06 0 0zm-1.79 0.09l-0.05 -0.2 0 0 0.06 0.04 0.05 0.05 0.05 0.04 0.05 0.03 0.04 0.04 0.05 0.02 0.04 0.03 0.04 0.02 0.03 0.02 0.04 0.02 0.04 0.01 0.04 0.01 0.04 0 0.03 0.01 0.04 0 0.04 -0.01 0.05 0 0.04 -0.01 0.05 -0.02 0.04 -0.01 0.05 -0.02 0.05 -0.02 0.06 -0.03 0.06 -0.03 0.06 -0.03 0.06 -0.03 0.07 -0.04 0.07 -0.04 0.07 -0.05 0.08 -0.04 0.09 -0.05 0.09 -0.06 0.17 0.26 -0.08 0.05 -0.09 0.05 -0.08 0.05 -0.07 0.04 -0.08 0.04 -0.06 0.04 -0.07 0.03 -0.06 0.04 -0.06 0.03 -0.05 0.02 -0.05 0.02 -0.05 0.02 -0.05 0.02 -0.05 0.01 -0.05 0.01 -0.04 0.01 -0.05 0.01 -0.04 0 -0.05 -0.01 -0.04 -0.01 -0.04 -0.01 -0.05 -0.01 -0.05 -0.02 -0.05 -0.02 -0.04 -0.03 -0.05 -0.03 -0.06 -0.04 -0.05 -0.04 -0.06 -0.04 -0.05 -0.04 -0.06 -0.05 -0.06 -0.05 0 0zm-0.58 -1.43l0.19 0.23 0 0 -0.01 0.05 -0.01 0.04 -0.01 0.05 -0.01 0.04 -0.01 0.04 -0.01 0.04 -0.01 0.04 0 0.03 -0.01 0.03 0 0.04 0 0.03 0 0.03 0 0.02 0 0.03 0.01 0.02 0 0.02 0.01 0.02 0.01 0.02 0 0.01 0.01 0.01 0.01 0.01 0.01 0.02 0.01 0.02 0.02 0.03 0.03 0.02 0.03 0.03 0.03 0.04 0.04 0.04 0.04 0.04 0.05 0.04 0.05 0.05 0.06 0.05 0.05 0.2 -0.06 -0.06 -0.06 -0.05 -0.06 -0.05 -0.05 -0.04 -0.04 -0.05 -0.05 -0.05 -0.04 -0.04 -0.05 -0.05 -0.04 -0.05 -0.03 -0.05 -0.04 -0.05 -0.03 -0.05 -0.03 -0.06 -0.03 -0.05 -0.02 -0.05 -0.01 -0.04 -0.01 -0.04 -0.01 -0.04 -0.01 -0.04 0 -0.04 0 -0.03 0 -0.04 0.01 -0.03 0 -0.04 0.01 -0.04 0 -0.04 0.01 -0.04 0.01 -0.04 0.01 -0.04 0.01 -0.04 0.02 -0.05 0.01 -0.05 0 0zm0.38 -0.75l0.18 0.25 0 0 -0.01 0.02 -0.02 0.02 -0.01 0.01 -0.02 0.02 -0.01 0.02 -0.02 0.01 -0.01 0.02 -0.01 0.01 -0.01 0.02 -0.02 0.01 -0.01 0.02 -0.01 0.01 -0.01 0.01 -0.01 0.02 -0.01 0.01 -0.01 0.02 -0.01 0.02 -0.01 0.01 -0.01 0.02 -0.01 0.02 -0.01 0.03 -0.01 0.02 -0.01 0.03 -0.01 0.02 -0.01 0.03 -0.01 0.03 -0.01 0.04 -0.01 0.03 -0.01 0.04 -0.01 0.05 -0.01 0.04 -0.02 0.05 -0.19 -0.23 0.01 -0.05 0.01 -0.04 0.02 -0.05 0.01 -0.04 0.01 -0.03 0.01 -0.04 0.01 -0.03 0.01 -0.03 0.01 -0.03 0.01 -0.02 0.01 -0.03 0.01 -0.02 0.01 -0.02 0.01 -0.02 0.01 -0.02 0.01 -0.02 0.01 -0.02 0.01 -0.01 0.01 -0.02 0.02 -0.02 0.01 -0.01 0.01 -0.01 0.01 -0.02 0.01 -0.01 0.02 -0.02 0.01 -0.01 0.01 -0.02 0.02 -0.01 0.01 -0.02 0.02 -0.02 0.01 -0.02 0.02 -0.02 0 0zm1.25 -0.73l0.16 0.26 0.01 0 -0.05 0 -0.05 0.01 -0.05 0.01 -0.05 0.02 -0.05 0.01 -0.05 0.02 -0.05 0.01 -0.05 0.02 -0.04 0.02 -0.05 0.03 -0.05 0.02 -0.04 0.02 -0.04 0.03 -0.05 0.02 -0.04 0.03 -0.04 0.03 -0.04 0.02 -0.04 0.03 -0.04 0.03 -0.04 0.03 -0.03 0.03 -0.04 0.02 -0.03 0.03 -0.03 0.03 -0.03 0.03 -0.03 0.02 -0.03 0.03 -0.02 0.02 -0.03 0.03 -0.02 0.02 -0.02 0.03 -0.02 0.02 -0.18 -0.25 0.02 -0.02 0.02 -0.02 0.02 -0.03 0.02 -0.02 0.03 -0.03 0.03 -0.03 0.03 -0.02 0.03 -0.03 0.03 -0.03 0.03 -0.03 0.04 -0.03 0.03 -0.02 0.04 -0.03 0.04 -0.03 0.04 -0.03 0.04 -0.03 0.04 -0.02 0.04 -0.03 0.05 -0.03 0.04 -0.02 0.05 -0.03 0.05 -0.02 0.04 -0.02 0.05 -0.02 0.05 -0.02 0.05 -0.02 0.05 -0.02 0.05 -0.01 0.05 -0.01 0.05 -0.02 0.05 -0.01 0.05 0 0 0zm0 0l0 0 0 0 0 0zm0.78 0.02l0.13 0.25 0 0 -0.03 -0.01 -0.04 -0.01 -0.03 0 -0.02 -0.01 -0.03 -0.01 -0.03 0 -0.02 -0.01 -0.02 0 -0.03 0 -0.02 -0.01 -0.02 0 -0.02 0 -0.02 0 -0.02 0 -0.01 0 -0.02 0 -0.02 0.01 -0.02 0 -0.02 0 -0.02 0 -0.02 0.01 -0.02 0 -0.02 0 -0.02 0 -0.02 0.01 -0.02 0 -0.03 0 -0.02 0.01 -0.03 0 -0.03 0 -0.03 0 -0.03 0.01 -0.16 -0.26 0.03 0 0.03 -0.01 0.03 0 0.03 0 0.02 0 0.02 -0.01 0.03 0 0.02 0 0.02 -0.01 0.02 0 0.02 0 0.02 -0.01 0.02 0 0.02 0 0.02 0 0.02 0 0.02 -0.01 0.02 0 0.02 0 0.02 0 0.02 0.01 0.02 0 0.02 0 0.03 0 0.02 0.01 0.03 0 0.03 0.01 0.03 0 0.03 0.01 0.03 0.01 0.03 0.01 0.04 0.01 0 0z"/>
    </g>
   </g>
   <g id="_2118045703120">
    <path class="fil0 str0" d="M66.68 31.33c0.09,0.16 0.03,0.14 0.2,0.24 0.63,-0.22 1.32,-0.55 1.86,-0.95 0.17,-0.12 0.4,-0.38 0.51,-0.45 1.59,-0.97 3.28,3.59 0.07,3.57 -0.71,-0.01 -0.81,-0.27 -1.36,-0.53 -0.38,-0.19 -0.94,-0.45 -1.22,-0.75 -0.08,-0.03 0.08,-0.08 -0.2,-0.03 -0.32,0.07 -0.16,0 -0.24,0.16 0.29,0.12 2.26,1.19 2.46,1.36 0.52,0.46 0.2,1.97 -0.92,2.41l-1.61 -3.71 -0.13 0.06c0.68,1.06 1.21,2.37 1.62,3.69 -0.83,0.05 -1.64,-0.02 -1.62,-1.04 0.02,-0.87 -0.24,-1.87 -0.22,-2.66 -0.1,-0.25 0.01,-0.06 -0.14,-0.13l-0.15 0.19c0.26,1.01 0.75,3.6 -0.66,3.91 -0.53,0.12 -1.1,0.01 -1.42,-0.25 -0.54,-0.43 -0.86,-1.53 -0.05,-2.24l1.28 -1.21c0.19,-0.16 0.29,-0.19 0.49,-0.4 0.01,-0.33 0,-0.12 -0.08,-0.2l-0.21 0.05c-0.1,0.2 -0.95,0.88 -1.24,1.27 -0.25,0.33 -0.01,0.19 -0.44,0.43 -0.41,0.23 -0.54,0.45 -1.25,0.43 -0.52,-0.02 -0.84,-0.17 -1.03,-0.64 -0.35,-0.87 0.1,-2.14 0.67,-2.42 0.77,-0.36 2.05,0.21 2.87,0.4 0.01,-0.02 0.03,-0.06 0.04,-0.05 0,0.01 0.01,-0.05 0.02,-0.07 0.01,-0.1 0.01,-0.04 0,-0.16 -0.51,-0.05 -1.45,-0.22 -1.81,-0.59 -0.57,-0.58 -1.45,-1.42 -0.28,-2.64 0.67,-0.69 1.31,-0.86 2.28,-0.17 0.45,0.32 0.65,0.47 0.66,0.93 0.02,0.51 0.06,1.07 0.06,1.56 0.06,0.04 -0.08,0.09 0.17,0.04 0.25,-0.04 0.01,0.13 0.11,-0.08 -0.12,-1 -0.15,-2.36 0.42,-3.04 0.64,-0.76 2.79,-0.84 3.15,0.33 0.11,0.33 0.14,0.43 0.09,0.8 -0.08,0.58 -0.07,0.79 -0.41,1.27 -0.34,0.5 -1.65,1.18 -2.34,1.31zm-0.07 -4.61c-0.32,0.14 -0.12,0.08 -0.37,0.23 -0.58,0.35 -0.58,0.36 -0.83,1 -0.41,-0.1 -1.76,-1.5 -3.16,-0.1 -0.61,0.61 -0.97,1.38 -0.82,2.24 0.05,0.28 0.24,0.43 0.34,0.74 -0.32,0.31 -0.59,0.16 -0.95,0.7 -0.62,0.97 -0.75,2.37 0.08,3.18 0.54,0.54 1.05,0.16 1.55,0.49 0.15,0.31 0.08,0.53 0.18,0.81 0.21,0.76 1.02,1.32 1.79,1.24 1.12,-0.11 0.75,-0.17 1.61,-0.66 0.09,0.04 1.28,0.73 1.88,0.5 0.79,-0.31 0.73,-0.29 1.3,-1.25 0.67,-1.12 -0.06,-1.27 0.62,-1.59l0.94 -0.35 0.23 -0.15c0.47,-0.77 0.97,-1.37 0.5,-2.54 -0.57,-1.41 -0.63,-1.28 -1.68,-1.69 0.05,-0.11 0.14,-0.26 0.14,-0.25 -0.03,-0.39 0.11,-0.79 -0.03,-1.25 0,-0.01 -0.15,-0.33 -0.18,-0.39 -0.32,-0.63 -0.87,-0.93 -1.54,-1.05 -0.63,-0.11 -1.12,0 -1.6,0.14z"/>
    <g>
     <path class="fil0 str0" d="M65.77 30.66l0.12 0.31 0.58 -0.08 0.21 0.44c0.69,-0.13 2,-0.81 2.34,-1.31 0.34,-0.48 0.33,-0.69 0.41,-1.27 0.05,-0.37 0.02,-0.47 -0.09,-0.8 -0.36,-1.17 -2.51,-1.09 -3.15,-0.33 -0.57,0.68 -0.54,2.04 -0.42,3.04z"/>
     <path class="fil0 str0" d="M66.88 31.57l0 0.34c-0.29,0.11 -0.07,-0.05 -0.07,0.14 -0.01,0.08 -0.06,0.32 -0.07,0.41 0.28,0.3 0.84,0.56 1.22,0.75 0.55,0.26 0.65,0.52 1.36,0.53 3.2,0.02 1.52,-4.54 -0.07,-3.57 -0.11,0.07 -0.34,0.33 -0.51,0.45 -0.54,0.4 -1.23,0.73 -1.86,0.95z"/>
     <path class="fil0 str0" d="M64.58 31.61l0.11 -0.24c0.24,-0.63 -0.09,-0.3 0.51,-0.5 0.13,-0.04 0.18,-0.09 0.29,-0.17 0,-0.49 -0.04,-1.05 -0.06,-1.56 -0.01,-0.46 -0.21,-0.61 -0.66,-0.93 -0.97,-0.69 -1.61,-0.52 -2.28,0.17 -1.17,1.22 -0.29,2.06 0.28,2.64 0.36,0.37 1.3,0.54 1.81,0.59z"/>
     <path class="fil0 str0" d="M64.94 32.42c-0.15,-0.24 -0.09,-0.44 -0.42,-0.53 -0.82,-0.19 -2.1,-0.76 -2.87,-0.4 -0.57,0.28 -1.02,1.55 -0.67,2.42 0.19,0.47 0.51,0.62 1.03,0.64 0.71,0.02 0.84,-0.2 1.25,-0.43 0.43,-0.24 0.19,-0.1 0.44,-0.43 0.29,-0.39 1.14,-1.07 1.24,-1.27z"/>
     <path class="fil0 str0" d="M65.59 32.76c-0.27,0 -0.19,-0.07 -0.23,0.07l-0.13 -0.26c-0.2,0.21 -0.3,0.24 -0.49,0.4l-1.28 1.21c-0.81,0.71 -0.49,1.81 0.05,2.24 0.32,0.26 0.89,0.37 1.42,0.25 1.41,-0.32 0.92,-2.9 0.66,-3.91z"/>
     <path class="fil0 str0" d="M66.3 32.59l-0.07 0.06 1.7 3.83c1.12,-0.44 1.35,-2.07 0.83,-2.53 -0.2,-0.17 -2.17,-1.24 -2.46,-1.36z"/>
     <path class="fil0 str0" d="M66.34 32.71l-0.46 -0.01c-0.02,0.79 0.24,1.79 0.22,2.66 -0.02,1.02 0.33,1.46 1.88,1.1 -0.41,-1.33 -0.97,-2.69 -1.64,-3.75z"/>
    </g>
    <path class="fil0 str0" d="M65.49 30.7c-0.3,0.06 -0.53,0.12 -0.7,0.24 -0.17,0.13 -0.26,0.62 -0.27,0.65 -0.02,0.23 0.04,0.58 0.28,0.84 0.11,0.14 0.44,0.36 0.56,0.4 0.12,0.03 0.54,-0.02 0.77,-0.06 0.3,-0.06 0.65,-0.29 0.73,-0.34 0.09,-0.07 0.05,-0.71 0.02,-0.86 -0.02,-0.15 -0.04,-0.19 -0.12,-0.34 -0.07,-0.15 -0.13,-0.26 -0.29,-0.34 -0.17,-0.07 -0.29,-0.12 -0.44,-0.17 -0.13,-0.04 -0.25,-0.09 -0.54,-0.02z"/>
   </g>
   <g id="_2118124077824">
    <path class="fil0 str0" d="M49.28 26.68c0.12,0.22 0.04,0.19 0.28,0.32 0.84,-0.3 1.78,-0.73 2.52,-1.28 0.23,-0.17 0.53,-0.52 0.68,-0.61 2.17,-1.31 4.45,4.87 0.1,4.84 -0.96,-0.01 -1.09,-0.37 -1.84,-0.72 -0.52,-0.25 -1.27,-0.61 -1.65,-1.01 -0.12,-0.05 0.1,-0.12 -0.28,-0.04 -0.43,0.08 -0.22,-0.01 -0.33,0.21 0.4,0.16 3.07,1.61 3.34,1.85 0.71,0.62 0.28,2.67 -1.25,3.27l-2.18 -5.04 -0.18 0.09c0.92,1.44 1.64,3.21 2.2,5 -1.13,0.07 -2.23,-0.02 -2.19,-1.41 0.03,-1.19 -0.33,-2.54 -0.3,-3.61 -0.14,-0.34 0.01,-0.09 -0.2,-0.17l-0.2 0.25c0.35,1.37 1.02,4.88 -0.9,5.31 -0.71,0.15 -1.48,0.01 -1.93,-0.35 -0.72,-0.58 -1.15,-2.07 -0.05,-3.03l1.73 -1.64c0.26,-0.22 0.39,-0.26 0.67,-0.54 0,-0.46 0,-0.17 -0.11,-0.28l-0.29 0.07c-0.14,0.27 -1.29,1.19 -1.68,1.72 -0.34,0.45 -0.01,0.27 -0.6,0.59 -0.55,0.3 -0.73,0.61 -1.69,0.58 -0.71,-0.02 -1.15,-0.22 -1.41,-0.87 -0.47,-1.17 0.14,-2.9 0.92,-3.28 1.04,-0.5 2.78,0.28 3.89,0.54 0.02,-0.02 0.04,-0.08 0.05,-0.07 0,0.01 0.02,-0.06 0.03,-0.09 0.01,-0.13 0.01,-0.05 0,-0.22 -0.69,-0.07 -1.96,-0.3 -2.45,-0.8 -0.78,-0.79 -1.97,-1.92 -0.38,-3.58 0.9,-0.94 1.78,-1.16 3.1,-0.23 0.6,0.43 0.87,0.64 0.89,1.26 0.01,0.7 0.08,1.45 0.07,2.11 0.09,0.06 -0.1,0.13 0.24,0.07 0.33,-0.07 0.01,0.16 0.14,-0.11 -0.15,-1.36 -0.19,-3.21 0.57,-4.13 0.87,-1.04 3.78,-1.14 4.28,0.44 0.14,0.46 0.18,0.6 0.12,1.09 -0.1,0.79 -0.1,1.08 -0.55,1.72 -0.47,0.68 -2.25,1.61 -3.18,1.78zm-0.09 -6.25c-0.44,0.19 -0.17,0.1 -0.51,0.31 -0.78,0.48 -0.78,0.49 -1.12,1.35 -0.56,-0.13 -2.38,-2.03 -4.29,-0.13 -0.82,0.82 -1.32,1.88 -1.11,3.04 0.06,0.38 0.32,0.58 0.46,1 -0.43,0.42 -0.81,0.22 -1.29,0.96 -0.84,1.31 -1.01,3.21 0.11,4.31 0.73,0.72 1.43,0.22 2.1,0.66 0.2,0.42 0.11,0.72 0.24,1.1 0.28,1.04 1.4,1.79 2.44,1.68 1.51,-0.15 1.01,-0.23 2.18,-0.89 0.12,0.05 1.74,0.99 2.55,0.67 1.06,-0.42 1,-0.39 1.77,-1.69 0.9,-1.52 -0.09,-1.72 0.84,-2.16l1.27 -0.47 0.32 -0.21c0.63,-1.05 1.31,-1.85 0.66,-3.45 -0.77,-1.9 -0.84,-1.73 -2.26,-2.29 0.05,-0.14 0.18,-0.34 0.18,-0.33 -0.04,-0.54 0.15,-1.07 -0.04,-1.7 -0.01,-0.02 -0.2,-0.44 -0.25,-0.53 -0.43,-0.86 -1.18,-1.27 -2.09,-1.42 -0.84,-0.15 -1.52,-0.01 -2.16,0.19z"/>
    <g>
     <path class="fil0 str0" d="M48.04 25.78l0.16 0.41 0.79 -0.1 0.29 0.59c0.93,-0.17 2.71,-1.1 3.18,-1.78 0.45,-0.64 0.45,-0.93 0.55,-1.72 0.06,-0.49 0.02,-0.63 -0.12,-1.09 -0.49,-1.58 -3.41,-1.48 -4.28,-0.44 -0.76,0.92 -0.72,2.77 -0.57,4.13z"/>
     <path class="fil0 str0" d="M49.56 27l-0.01 0.47c-0.39,0.15 -0.1,-0.07 -0.1,0.19 0,0.11 -0.08,0.43 -0.08,0.56 0.38,0.4 1.13,0.76 1.65,1.01 0.75,0.35 0.88,0.71 1.84,0.72 4.35,0.03 2.07,-6.15 -0.1,-4.84 -0.15,0.09 -0.45,0.44 -0.68,0.61 -0.74,0.55 -1.68,0.98 -2.52,1.28z"/>
     <path class="fil0 str0" d="M46.43 27.06l0.14 -0.33c0.34,-0.86 -0.11,-0.41 0.7,-0.68 0.17,-0.05 0.25,-0.12 0.39,-0.23 0.01,-0.66 -0.06,-1.41 -0.07,-2.11 -0.02,-0.62 -0.29,-0.83 -0.89,-1.26 -1.32,-0.93 -2.2,-0.71 -3.1,0.23 -1.59,1.66 -0.4,2.79 0.38,3.58 0.49,0.5 1.76,0.73 2.45,0.8z"/>
     <path class="fil0 str0" d="M46.92 28.16c-0.2,-0.33 -0.13,-0.6 -0.57,-0.72 -1.11,-0.26 -2.85,-1.04 -3.89,-0.54 -0.78,0.38 -1.39,2.11 -0.92,3.28 0.26,0.65 0.7,0.85 1.41,0.87 0.96,0.03 1.14,-0.28 1.69,-0.58 0.59,-0.32 0.26,-0.14 0.6,-0.59 0.4,-0.53 1.54,-1.45 1.68,-1.72z"/>
     <path class="fil0 str0" d="M47.8 28.62c-0.36,0 -0.25,-0.1 -0.31,0.09l-0.17 -0.34c-0.28,0.28 -0.41,0.32 -0.67,0.54l-1.73 1.64c-1.1,0.96 -0.67,2.45 0.05,3.03 0.45,0.36 1.22,0.5 1.93,0.35 1.92,-0.43 1.25,-3.94 0.9,-5.31z"/>
     <path class="fil0 str0" d="M48.76 28.39l-0.09 0.08 2.3 5.2c1.53,-0.6 1.84,-2.81 1.13,-3.43 -0.27,-0.24 -2.94,-1.69 -3.34,-1.85z"/>
     <path class="fil0 str0" d="M48.81 28.55l-0.61 -0.01c-0.03,1.07 0.33,2.42 0.3,3.61 -0.04,1.39 0.45,1.98 2.55,1.49 -0.56,-1.8 -1.32,-3.65 -2.24,-5.09z"/>
    </g>
    <path class="fil0 str0" d="M47.66 25.82c-0.4,0.09 -0.72,0.17 -0.95,0.34 -0.22,0.17 -0.35,0.83 -0.36,0.87 -0.03,0.32 0.06,0.79 0.37,1.15 0.17,0.18 0.61,0.49 0.77,0.53 0.16,0.04 0.74,-0.02 1.05,-0.08 0.41,-0.08 0.88,-0.39 0.98,-0.45 0.13,-0.1 0.07,-0.97 0.04,-1.18 -0.04,-0.2 -0.06,-0.25 -0.17,-0.45 -0.1,-0.21 -0.18,-0.36 -0.4,-0.46 -0.22,-0.1 -0.39,-0.17 -0.59,-0.23 -0.18,-0.06 -0.34,-0.13 -0.74,-0.04z"/>
   </g>
   <g id="_2118124067104">
    <path class="fil0 str0" d="M80.63 28.21c0.08,0.17 0.02,0.14 0.2,0.24 0.62,-0.22 1.31,-0.54 1.86,-0.94 0.17,-0.13 0.39,-0.39 0.5,-0.45 1.6,-0.97 3.28,3.59 0.07,3.56 -0.7,0 -0.8,-0.26 -1.35,-0.53 -0.38,-0.18 -0.94,-0.45 -1.22,-0.74 -0.08,-0.03 0.08,-0.09 -0.21,-0.03 -0.31,0.06 -0.16,-0.01 -0.23,0.15 0.29,0.12 2.26,1.19 2.45,1.37 0.53,0.46 0.21,1.97 -0.91,2.41l-1.61 -3.71 -0.13 0.06c0.67,1.06 1.21,2.36 1.61,3.69 -0.83,0.05 -1.64,-0.02 -1.61,-1.04 0.02,-0.88 -0.24,-1.88 -0.22,-2.66 -0.1,-0.25 0.01,-0.07 -0.15,-0.13l-0.14 0.19c0.25,1.01 0.75,3.59 -0.67,3.91 -0.52,0.11 -1.09,0.01 -1.42,-0.26 -0.53,-0.42 -0.85,-1.52 -0.04,-2.23l1.28 -1.21c0.19,-0.16 0.28,-0.19 0.49,-0.4 0,-0.34 0,-0.12 -0.08,-0.2l-0.21 0.05c-0.1,0.19 -0.95,0.87 -1.24,1.27 -0.25,0.33 -0.01,0.19 -0.44,0.43 -0.41,0.22 -0.54,0.45 -1.25,0.43 -0.53,-0.02 -0.84,-0.17 -1.04,-0.65 -0.35,-0.86 0.1,-2.13 0.68,-2.41 0.76,-0.37 2.05,0.2 2.87,0.4 0.01,-0.02 0.03,-0.07 0.03,-0.06 0,0.01 0.02,-0.04 0.02,-0.06 0.02,-0.1 0.02,-0.04 0,-0.16 -0.5,-0.06 -1.44,-0.23 -1.8,-0.6 -0.57,-0.58 -1.45,-1.41 -0.28,-2.63 0.67,-0.7 1.31,-0.86 2.28,-0.17 0.45,0.31 0.65,0.47 0.66,0.93 0.01,0.51 0.06,1.07 0.06,1.55 0.06,0.05 -0.08,0.1 0.17,0.05 0.24,-0.05 0.01,0.12 0.1,-0.08 -0.11,-1 -0.14,-2.37 0.42,-3.04 0.64,-0.77 2.79,-0.84 3.16,0.33 0.1,0.33 0.13,0.43 0.09,0.79 -0.08,0.59 -0.08,0.8 -0.41,1.28 -0.35,0.49 -1.65,1.18 -2.34,1.3zm-0.07 -4.6c-0.32,0.14 -0.12,0.07 -0.37,0.22 -0.58,0.36 -0.58,0.37 -0.83,1 -0.41,-0.1 -1.76,-1.5 -3.16,-0.09 -0.61,0.6 -0.98,1.38 -0.82,2.24 0.04,0.28 0.24,0.43 0.34,0.73 -0.32,0.32 -0.6,0.17 -0.95,0.71 -0.63,0.97 -0.75,2.37 0.08,3.18 0.54,0.53 1.05,0.16 1.55,0.49 0.14,0.31 0.08,0.53 0.17,0.81 0.21,0.76 1.03,1.32 1.8,1.24 1.12,-0.12 0.75,-0.18 1.61,-0.66 0.09,0.03 1.28,0.73 1.88,0.49 0.78,-0.3 0.73,-0.29 1.3,-1.24 0.67,-1.13 -0.06,-1.27 0.62,-1.6l0.93 -0.34 0.24 -0.16c0.47,-0.77 0.97,-1.36 0.49,-2.54 -0.57,-1.4 -0.62,-1.27 -1.67,-1.69 0.04,-0.1 0.14,-0.25 0.14,-0.24 -0.03,-0.4 0.11,-0.79 -0.03,-1.26 -0.01,-0.01 -0.15,-0.32 -0.19,-0.39 -0.31,-0.63 -0.86,-0.93 -1.54,-1.04 -0.62,-0.11 -1.12,-0.01 -1.59,0.14z"/>
    <g>
     <path class="fil0 str0" d="M79.72 27.55l0.11 0.3 0.58 -0.07 0.22 0.43c0.69,-0.12 1.99,-0.81 2.34,-1.3 0.33,-0.48 0.33,-0.69 0.41,-1.28 0.04,-0.36 0.01,-0.46 -0.09,-0.79 -0.37,-1.17 -2.52,-1.1 -3.16,-0.33 -0.56,0.67 -0.53,2.04 -0.41,3.04z"/>
     <path class="fil0 str0" d="M80.83 28.45l-0.01 0.35c-0.28,0.1 -0.06,-0.05 -0.07,0.14 0,0.08 -0.06,0.32 -0.06,0.41 0.28,0.29 0.84,0.56 1.22,0.74 0.55,0.27 0.65,0.53 1.35,0.53 3.21,0.03 1.53,-4.53 -0.07,-3.56 -0.11,0.06 -0.33,0.32 -0.5,0.45 -0.55,0.4 -1.24,0.72 -1.86,0.94z"/>
     <path class="fil0 str0" d="M78.52 28.5l0.11 -0.25c0.25,-0.63 -0.08,-0.3 0.51,-0.5 0.13,-0.04 0.19,-0.08 0.3,-0.17 0,-0.48 -0.05,-1.04 -0.06,-1.55 -0.01,-0.46 -0.21,-0.62 -0.66,-0.93 -0.97,-0.69 -1.61,-0.53 -2.28,0.17 -1.17,1.22 -0.29,2.05 0.28,2.63 0.36,0.37 1.3,0.54 1.8,0.6z"/>
     <path class="fil0 str0" d="M78.89 29.31c-0.15,-0.25 -0.1,-0.44 -0.42,-0.53 -0.82,-0.2 -2.11,-0.77 -2.87,-0.4 -0.58,0.28 -1.03,1.55 -0.68,2.41 0.2,0.48 0.51,0.63 1.04,0.65 0.71,0.02 0.84,-0.21 1.25,-0.43 0.43,-0.24 0.19,-0.1 0.44,-0.43 0.29,-0.4 1.14,-1.08 1.24,-1.27z"/>
     <path class="fil0 str0" d="M79.54 29.65c-0.27,-0.01 -0.19,-0.08 -0.23,0.06l-0.13 -0.25c-0.21,0.21 -0.3,0.24 -0.49,0.4l-1.28 1.21c-0.81,0.71 -0.49,1.81 0.04,2.23 0.33,0.27 0.9,0.37 1.42,0.26 1.42,-0.32 0.92,-2.9 0.67,-3.91z"/>
     <path class="fil0 str0" d="M80.25 29.47l-0.07 0.07 1.7 3.83c1.12,-0.45 1.35,-2.07 0.82,-2.53 -0.19,-0.18 -2.16,-1.25 -2.45,-1.37z"/>
     <path class="fil0 str0" d="M80.28 29.59l-0.45 0c-0.02,0.78 0.24,1.78 0.22,2.66 -0.03,1.02 0.33,1.46 1.88,1.09 -0.41,-1.32 -0.97,-2.69 -1.65,-3.75z"/>
    </g>
    <path class="fil0 str0" d="M79.44 27.58c-0.3,0.07 -0.54,0.13 -0.7,0.25 -0.17,0.12 -0.27,0.62 -0.27,0.64 -0.03,0.24 0.04,0.59 0.27,0.85 0.12,0.13 0.45,0.36 0.57,0.39 0.11,0.03 0.54,-0.01 0.77,-0.06 0.3,-0.06 0.65,-0.28 0.72,-0.33 0.1,-0.07 0.06,-0.71 0.03,-0.87 -0.02,-0.15 -0.04,-0.18 -0.12,-0.33 -0.08,-0.16 -0.14,-0.27 -0.3,-0.34 -0.16,-0.07 -0.29,-0.13 -0.43,-0.17 -0.13,-0.05 -0.25,-0.09 -0.54,-0.03z"/>
   </g>
   <g id="_2118124062272">
    <path class="fil0 str0" d="M81.96 16.86c-0.22,0.31 -0.21,0.35 0.09,0.53 0.63,-0.45 1.32,-0.83 1.97,-1.29 0.68,-0.47 1.12,-0.58 1.88,-0.34 1.47,0.47 3.9,3.39 0.23,4.79 -0.99,0.38 -0.88,0.14 -1.89,-0.33l-3.34 -1.51c-0.52,-0.17 -0.12,-0.21 -0.48,0.04 0.18,0.46 2.74,1.4 3.33,1.67 0.8,0.36 1.16,0.45 1.67,1.18 0.46,0.66 0.7,1.21 0.26,1.81 -0.58,0.79 -1.19,0.65 -1.77,0.6 -1.87,-0.17 -3.39,-3.74 -3.96,-4.87 0.32,0.03 0,-0.08 0.3,0.11l0.84 0.94c0.57,0.66 2.96,3.27 3.48,3.46 -0.12,-0.18 -2.68,-2.71 -3.69,-3.91 -0.28,-0.33 -0.46,-0.64 -0.8,-0.88 -0.3,-0.21 -0.01,-0.13 -0.4,-0.19 -0.52,0.89 1.23,2.97 1.62,3.75 0.24,0.48 0.2,0.27 0.04,0.62 -0.42,1.11 -5.06,-1.13 -4.38,-2.38 0.5,-0.92 1.75,-1.5 1.88,-2.14 -0.68,-0.34 -1.23,1.61 -3.18,1.53 -1.19,-0.04 -2.26,-1.51 -2.53,-2.63 -0.12,-0.55 -0.2,-1.02 0.21,-1.64 1.63,-2.41 3.25,1.81 4.76,1.79 0.09,-0.74 -1.7,-0.91 -2.88,-3.42 -0.6,-1.27 -1.01,-2.73 0.72,-3.65 1.62,-0.86 3.49,0.01 3.56,2.2 0.01,0.23 -0.06,0.71 -0.09,0.98l-0.17 1.94c0.29,-0.02 0,0.11 0.29,-0.07 0.06,-0.03 0.2,-0.17 0.25,-0.22 -0.25,-0.97 0.03,-2.59 0.65,-3.46 2.25,-3.22 5.78,0.03 4.42,2.47 -0.61,1.09 -1.65,2.2 -2.89,2.52zm-1.98 -5.28c-0.44,-0.71 -2.08,-3.11 -4.52,-1.78 -1.93,1.05 -1.72,2.68 -1.26,4.19 -0.5,0.49 -1.33,0.48 -1.85,2.1 -0.22,0.67 0.06,2.15 0.58,2.89 0.52,0.74 1.07,1.33 2.06,1.74 0.61,0.24 0.32,0.13 0.83,0.15 0.82,0.86 0.5,1.53 2.84,2.74 0.49,0.26 1.01,0.44 1.56,0.5 0.22,0.02 0.61,0.04 0.82,0.03 0.48,-0.01 0.38,-0.11 0.82,-0.31 0.65,0.52 2.68,1.19 3.15,0.95 0.47,-0.25 1.97,-1.17 1.72,-2.34 -0.07,-0.32 -0.27,-0.63 -0.37,-0.98 0.34,-0.29 0.64,-0.38 0.99,-0.59 0.4,-0.25 0.68,-0.61 1.05,-0.94l0.18 -0.47c0.5,-0.88 0.33,-1.9 -0.34,-2.81 -0.95,-1.31 -1.51,-1.54 -2.71,-1.8 1.65,-3.51 -2.3,-5.78 -3.73,-5.05 -0.77,0.48 -1.21,1.2 -1.82,1.78z"/>
    <path class="fil0 str0" d="M79.78 15.33l0.97 0.3c0.52,0.19 1.09,0.9 1.21,1.23 1.24,-0.32 2.28,-1.43 2.89,-2.52 1.36,-2.44 -2.17,-5.69 -4.42,-2.47 -0.62,0.87 -0.9,2.49 -0.65,3.46zm2.27 2.06c-0.25,0.65 -0.13,0.34 -0.69,1 -0.79,-0.02 -0.83,0.24 -1.69,-0.54 -0.84,-0.77 -0.81,-0.86 -0.82,-1.82l0.39 -0.41 0.17 -1.94c0.02,-0.27 0.1,-0.75 0.09,-0.98 -0.07,-2.19 -1.94,-3.06 -3.56,-2.2 -1.73,0.92 -1.32,2.38 -0.72,3.65 1.18,2.51 2.97,2.68 2.88,3.42 -1.51,0.02 -3.13,-4.2 -4.76,-1.79 -0.41,0.62 -0.33,1.09 -0.21,1.64 0.27,1.12 1.34,2.59 2.53,2.63 1.95,0.08 2.5,-1.87 3.18,-1.53 -0.13,0.64 -1.38,1.22 -1.88,2.14 -0.68,1.25 3.96,3.49 4.38,2.38 0.16,-0.35 0.2,-0.14 -0.04,-0.62 -0.39,-0.78 -2.14,-2.86 -1.62,-3.75 0.39,0.06 0.1,-0.02 0.4,0.19 0.34,0.24 0.52,0.55 0.8,0.88 1.01,1.2 3.57,3.73 3.69,3.91 -0.52,-0.19 -2.91,-2.8 -3.48,-3.46l-0.84 -0.94c-0.3,-0.19 0.02,-0.08 -0.3,-0.11 0.57,1.13 2.09,4.7 3.96,4.87 0.58,0.05 1.19,0.19 1.77,-0.6 0.44,-0.6 0.2,-1.15 -0.26,-1.81 -0.51,-0.73 -0.87,-0.82 -1.67,-1.18 -0.59,-0.27 -3.15,-1.21 -3.33,-1.67 0.36,-0.25 -0.04,-0.21 0.48,-0.04l3.34 1.51c1.01,0.47 0.9,0.71 1.89,0.33 3.67,-1.4 1.24,-4.32 -0.23,-4.79 -0.76,-0.24 -1.2,-0.13 -1.88,0.34 -0.65,0.46 -1.34,0.84 -1.97,1.29z"/>
    <g>
     <path class="fil0" d="M80 15.46c-0.4,0.02 -0.93,-0.2 -1.15,0.57 -0.23,0.76 -0.02,1.05 0.82,1.82 0.85,0.78 0.94,0.89 1.69,0.54 0.75,-0.35 0.72,-0.48 0.69,-1 -0.03,-0.53 -0.09,-0.53 -0.22,-0.78 -0.14,-0.26 -0.56,-0.79 -1.08,-0.98 -0.32,-0.1 -0.36,-0.19 -0.75,-0.17z"/>
     <path id="1" class="fil1" d="M78.94 16.14l-0.19 -0.23 0 0 0.02 -0.07 0.03 -0.06 0.02 -0.06 0.03 -0.06 0.03 -0.05 0.03 -0.04 0.03 -0.04 0.04 -0.04 0.03 -0.03 0.04 -0.03 0.03 -0.02 0.04 -0.02 0.04 -0.02 0.04 -0.01 0.04 -0.02 0.04 -0.01 0.04 0 0.04 -0.01 0.04 0 0.04 0 0.04 0 0.04 0 0.04 0 0.05 0 0.04 0 0.04 0 0.04 0.01 0.04 0 0.04 0 0.03 0 0.04 0 0.04 0 0.16 0.26 -0.04 0 -0.04 0 -0.04 0 -0.04 0 -0.04 -0.01 -0.04 0 -0.04 0 -0.04 0 -0.04 0 -0.04 -0.01 -0.04 0 -0.04 0 -0.04 0.01 -0.04 0 -0.04 0.01 -0.04 0 -0.03 0.01 -0.04 0.01 -0.04 0.02 -0.04 0.01 -0.03 0.02 -0.03 0.03 -0.04 0.02 -0.03 0.03 -0.03 0.04 -0.03 0.03 -0.03 0.05 -0.03 0.04 -0.03 0.05 -0.02 0.06 -0.02 0.06 -0.03 0.07 0 0zm0.72 1.62l0.03 0.19 0 0 -0.08 -0.07 -0.07 -0.07 -0.07 -0.07 -0.07 -0.07 -0.07 -0.06 -0.06 -0.07 -0.06 -0.06 -0.06 -0.06 -0.06 -0.06 -0.05 -0.06 -0.05 -0.07 -0.05 -0.06 -0.04 -0.07 -0.05 -0.06 -0.03 -0.07 -0.04 -0.07 -0.03 -0.06 -0.02 -0.07 -0.02 -0.06 -0.02 -0.06 -0.01 -0.06 -0.01 -0.05 0 -0.06 -0.01 -0.06 0 -0.06 0.01 -0.06 0.01 -0.06 0 -0.06 0.02 -0.06 0.01 -0.07 0.02 -0.07 0.02 -0.07 0.19 0.23 -0.02 0.07 -0.01 0.07 -0.02 0.06 -0.01 0.06 -0.01 0.06 0 0.06 -0.01 0.05 0 0.06 0 0.05 0.01 0.05 0 0.04 0.01 0.05 0.01 0.04 0.02 0.04 0.01 0.03 0.02 0.04 0.01 0.03 0.02 0.03 0.02 0.04 0.03 0.03 0.03 0.04 0.03 0.05 0.04 0.04 0.04 0.05 0.05 0.05 0.05 0.05 0.06 0.06 0.06 0.06 0.06 0.06 0.07 0.06 0.07 0.07 0.08 0.07 0 0zm1.61 0.5l0.18 0.26 0 0 -0.07 0.03 -0.07 0.03 -0.06 0.03 -0.06 0.02 -0.05 0.02 -0.06 0.02 -0.05 0.01 -0.05 0.01 -0.04 0.01 -0.05 0.01 -0.05 0 -0.04 0 -0.05 0 -0.04 -0.01 -0.05 -0.01 -0.04 -0.02 -0.05 -0.02 -0.04 -0.02 -0.05 -0.03 -0.05 -0.03 -0.05 -0.03 -0.05 -0.04 -0.06 -0.04 -0.05 -0.04 -0.06 -0.05 -0.06 -0.05 -0.06 -0.05 -0.06 -0.06 -0.07 -0.06 -0.07 -0.06 -0.07 -0.07 -0.08 -0.07 -0.03 -0.19 0.08 0.07 0.07 0.07 0.07 0.06 0.06 0.06 0.06 0.05 0.06 0.05 0.05 0.05 0.05 0.04 0.05 0.04 0.05 0.03 0.04 0.03 0.04 0.03 0.04 0.03 0.04 0.02 0.03 0.01 0.04 0.02 0.04 0.01 0.04 0.01 0.03 0.01 0.04 0 0.04 0 0.05 0 0.04 -0.01 0.05 0 0.04 -0.01 0.05 -0.02 0.06 -0.02 0.05 -0.02 0.06 -0.02 0.06 -0.03 0.06 -0.02 0.07 -0.04 0 0zm0.68 -0.97l0.2 0.2 0 0 0 0.04 0.01 0.05 0 0.04 0 0.05 0 0.04 0 0.04 0 0.04 0 0.03 0 0.04 -0.01 0.03 0 0.04 -0.01 0.03 -0.01 0.03 -0.01 0.03 -0.01 0.03 -0.02 0.02 -0.01 0.03 -0.02 0.03 -0.03 0.03 -0.02 0.02 -0.03 0.03 -0.03 0.02 -0.04 0.03 -0.03 0.03 -0.04 0.02 -0.05 0.03 -0.04 0.03 -0.06 0.03 -0.05 0.02 -0.06 0.04 -0.07 0.03 -0.06 0.03 -0.18 -0.26 0.07 -0.03 0.06 -0.03 0.06 -0.03 0.06 -0.03 0.05 -0.03 0.05 -0.02 0.04 -0.03 0.04 -0.03 0.03 -0.02 0.04 -0.03 0.03 -0.02 0.02 -0.03 0.03 -0.02 0.02 -0.03 0.02 -0.02 0.01 -0.03 0.02 -0.02 0.01 -0.03 0.01 -0.02 0.01 -0.03 0 -0.03 0.01 -0.03 0 -0.03 0 -0.03 0 -0.03 0 -0.04 0 -0.04 0 -0.03 0 -0.05 0 -0.04 0 -0.04 -0.01 -0.05 0 0zm-0.19 -0.7l0.14 0.04 0 0 0.01 0.02 0.01 0.02 0.01 0.02 0.01 0.01 0.01 0.02 0.01 0.02 0.01 0.02 0.01 0.02 0.01 0.02 0.02 0.02 0.01 0.02 0.01 0.02 0.01 0.03 0.01 0.02 0.01 0.02 0.01 0.03 0.01 0.02 0.01 0.03 0 0.02 0.01 0.03 0.01 0.02 0 0.03 0.01 0.03 0 0.03 0.01 0.03 0 0.04 0 0.03 0.01 0.04 0 0.04 0 0.04 0.01 0.05 0 0.05 -0.2 -0.2 0 -0.05 0 -0.04 -0.01 -0.05 0 -0.03 0 -0.04 -0.01 -0.03 0 -0.03 0 -0.03 -0.01 -0.03 0 -0.02 -0.01 -0.02 0 -0.02 -0.01 -0.02 0 -0.02 -0.01 -0.01 0 -0.02 0 -0.01 -0.01 -0.01 0 -0.01 -0.01 -0.01 0 -0.01 -0.01 -0.01 0 -0.01 -0.01 -0.01 -0.01 -0.01 -0.01 -0.02 -0.01 -0.02 -0.01 -0.02 -0.01 -0.02 -0.01 -0.02 -0.02 -0.03 -0.01 -0.02 0 0zm-0.94 -0.83l-0.14 -0.26 0.01 0 0.05 0.02 0.05 0.02 0.05 0.03 0.05 0.02 0.05 0.03 0.04 0.03 0.05 0.03 0.05 0.04 0.05 0.03 0.04 0.03 0.05 0.04 0.04 0.04 0.04 0.04 0.05 0.03 0.04 0.04 0.04 0.04 0.04 0.04 0.04 0.04 0.03 0.04 0.04 0.05 0.03 0.04 0.04 0.04 0.03 0.04 0.03 0.04 0.03 0.04 0.03 0.03 0.02 0.04 0.03 0.04 0.02 0.04 0.02 0.03 0.02 0.04 0.02 0.03 -0.14 -0.04 -0.01 -0.02 -0.01 -0.02 -0.01 -0.02 -0.02 -0.02 -0.01 -0.02 -0.02 -0.02 -0.02 -0.03 -0.02 -0.03 -0.02 -0.02 -0.02 -0.03 -0.02 -0.03 -0.03 -0.03 -0.02 -0.03 -0.03 -0.03 -0.03 -0.03 -0.03 -0.03 -0.03 -0.03 -0.03 -0.03 -0.04 -0.03 -0.03 -0.03 -0.04 -0.03 -0.04 -0.03 -0.03 -0.03 -0.04 -0.03 -0.04 -0.03 -0.04 -0.02 -0.05 -0.03 -0.04 -0.02 -0.04 -0.03 -0.05 -0.02 -0.04 -0.02 -0.05 -0.02 0.01 0.01zm-0.14 -0.26l0 0 0.01 0 -0.01 0zm-0.6 0.09l-0.16 -0.26 0 0 0.03 0 0.04 0 0.03 0 0.03 0 0.03 0 0.03 0 0.02 0 0.03 0 0.02 0.01 0.03 0 0.02 0.01 0.02 0 0.02 0 0.02 0.01 0.02 0.01 0.02 0 0.02 0.01 0.02 0.01 0.02 0 0.02 0.01 0.02 0.01 0.02 0.01 0.02 0 0.02 0.01 0.02 0.01 0.02 0.01 0.02 0.01 0.03 0.01 0.02 0 0.03 0.01 0.02 0.01 0.03 0.01 0.14 0.26 -0.03 -0.01 -0.03 -0.01 -0.03 -0.01 -0.03 -0.01 -0.02 -0.01 -0.02 -0.01 -0.03 -0.01 -0.02 -0.01 -0.02 -0.01 -0.02 0 -0.02 -0.01 -0.01 -0.01 -0.02 -0.01 -0.02 0 -0.02 -0.01 -0.01 0 -0.02 -0.01 -0.02 0 -0.02 -0.01 -0.02 0 -0.02 -0.01 -0.02 0 -0.02 0 -0.02 -0.01 -0.02 0 -0.03 0 -0.02 0 -0.03 0 -0.03 0 -0.03 0 -0.04 0 -0.03 0 0 0z"/>
    </g>
   </g>
   <g>
    <path class="fil0 str0" d="M59.79 22.14c0.14,0.26 0.05,0.23 0.33,0.39 1.02,-0.36 2.15,-0.89 3.04,-1.54 0.27,-0.2 0.64,-0.63 0.82,-0.74 2.6,-1.58 5.35,5.87 0.11,5.82 -1.15,-0.01 -1.31,-0.44 -2.21,-0.87 -0.62,-0.29 -1.53,-0.73 -1.98,-1.21 -0.14,-0.05 0.12,-0.14 -0.34,-0.05 -0.52,0.11 -0.27,-0.01 -0.39,0.25 0.47,0.2 3.69,1.95 4.01,2.23 0.85,0.75 0.48,3.4 -1.35,4.13l-2.77 -6.25 -0.22 0.1c1.11,1.73 2.16,4.07 2.83,6.23 -1.36,0.08 -2.87,-0.24 -2.82,-1.91 0.03,-1.43 -0.39,-3.06 -0.36,-4.34 -0.16,-0.41 0.01,-0.1 -0.24,-0.21l-0.24 0.31c0.42,1.65 1.23,5.86 -1.08,6.38 -0.86,0.19 -1.79,0.01 -2.32,-0.42 -0.87,-0.69 -1.39,-2.49 -0.07,-3.64l2.09 -1.98c0.3,-0.26 0.46,-0.31 0.8,-0.65 0.01,-0.55 0,-0.2 -0.13,-0.33l-0.34 0.08c-0.17,0.33 -1.55,1.43 -2.03,2.08 -0.41,0.54 -0.02,0.31 -0.72,0.7 -0.67,0.36 -0.88,0.73 -2.03,0.7 -0.86,-0.03 -1.38,-0.27 -1.7,-1.05 -0.57,-1.41 0.17,-3.48 1.11,-3.94 1.24,-0.6 3.34,0.33 4.68,0.65 0.02,-0.03 0.05,-0.1 0.05,-0.09 0.01,0.02 0.04,-0.07 0.04,-0.1 0.02,-0.17 0.02,-0.07 0,-0.27 -0.83,-0.09 -2.36,-0.36 -2.95,-0.97 -0.93,-0.94 -2.37,-2.3 -0.46,-4.29 1.09,-1.14 2.14,-1.41 3.73,-0.29 0.73,0.52 1.06,0.77 1.07,1.52 0.03,0.84 0.1,1.75 0.1,2.54 0.1,0.07 -0.13,0.16 0.27,0.08 0.41,-0.08 0.02,0.2 0.18,-0.13 -0.19,-1.63 -0.23,-3.87 0.68,-4.96 1.05,-1.26 4.56,-1.38 5.15,0.53 0.17,0.54 0.22,0.71 0.15,1.3 -0.13,0.95 -0.12,1.3 -0.67,2.08 -0.56,0.81 -2.7,1.92 -3.82,2.13zm-0.11 -7.51c-0.53,0.22 -0.2,0.11 -0.61,0.36 -0.94,0.58 -0.94,0.6 -1.35,1.63 -0.67,-0.16 -2.87,-2.44 -5.16,-0.15 -0.99,0.99 -1.59,2.25 -1.34,3.65 0.08,0.46 0.39,0.7 0.56,1.2 -0.52,0.51 -0.97,0.27 -1.55,1.16 -1.02,1.57 -1.22,3.86 0.13,5.18 0.88,0.87 1.72,0.27 2.53,0.8 0.24,0.51 0.13,0.86 0.29,1.32 0.34,1.25 1.67,2.16 2.93,2.03 1.82,-0.19 1.21,-0.29 2.62,-1.08 0.15,0.06 2.09,1.2 3.07,0.81 1.28,-0.5 1.2,-0.48 2.12,-2.04 1.09,-1.83 -0.1,-2.06 1.01,-2.6l1.53 -0.56 0.38 -0.25c0.77,-1.26 1.59,-2.23 0.81,-4.15 -0.93,-2.29 -1.02,-2.08 -2.73,-2.75 0.07,-0.17 0.22,-0.42 0.22,-0.41 -0.05,-0.64 0.18,-1.28 -0.05,-2.04 0,-0.02 -0.24,-0.53 -0.3,-0.64 -0.51,-1.03 -1.41,-1.52 -2.51,-1.71 -1.01,-0.17 -1.82,0 -2.6,0.24z"/>
    <g id="_2118124039168">
     <path class="fil0 str0" d="M58.3 21.06l0.19 0.49 0.95 -0.12 0.35 0.71c1.12,-0.21 3.26,-1.32 3.82,-2.13 0.55,-0.78 0.54,-1.13 0.67,-2.08 0.07,-0.59 0.02,-0.76 -0.15,-1.3 -0.59,-1.91 -4.1,-1.79 -5.15,-0.53 -0.91,1.09 -0.87,3.33 -0.68,4.96z"/>
     <path class="fil0 str0" d="M60.12 22.53l-0.01 0.56c-0.46,0.18 -0.11,-0.08 -0.12,0.23 0,0.13 -0.09,0.52 -0.09,0.67 0.45,0.48 1.36,0.92 1.98,1.21 0.9,0.43 1.06,0.86 2.21,0.87 5.24,0.05 2.49,-7.4 -0.11,-5.82 -0.18,0.11 -0.55,0.54 -0.82,0.74 -0.89,0.65 -2.02,1.18 -3.04,1.54z"/>
     <path class="fil0 str0" d="M56.36 22.6l0.17 -0.39c0.41,-1.04 -0.13,-0.5 0.84,-0.82 0.21,-0.07 0.3,-0.15 0.48,-0.28 0,-0.79 -0.07,-1.7 -0.1,-2.54 -0.01,-0.75 -0.34,-1 -1.07,-1.52 -1.59,-1.12 -2.64,-0.85 -3.73,0.29 -1.91,1.99 -0.47,3.35 0.46,4.29 0.59,0.61 2.12,0.88 2.95,0.97z"/>
     <path class="fil0 str0" d="M56.96 23.92c-0.25,-0.39 -0.16,-0.72 -0.69,-0.86 -1.34,-0.32 -3.44,-1.25 -4.68,-0.65 -0.94,0.46 -1.68,2.53 -1.11,3.94 0.32,0.78 0.84,1.02 1.7,1.05 1.15,0.03 1.36,-0.34 2.03,-0.7 0.7,-0.39 0.31,-0.16 0.72,-0.7 0.48,-0.65 1.86,-1.75 2.03,-2.08z"/>
     <path class="fil0 str0" d="M58.01 24.48c-0.43,-0.01 -0.3,-0.12 -0.38,0.11l-0.2 -0.42c-0.34,0.34 -0.5,0.39 -0.8,0.65l-2.09 1.98c-1.32,1.15 -0.8,2.95 0.07,3.64 0.53,0.43 1.46,0.61 2.32,0.42 2.31,-0.52 1.5,-4.73 1.08,-6.38z"/>
     <path class="fil0 str0" d="M59.17 24.19l-0.11 0.11 2.77 6.25c1.83,-0.73 2.2,-3.38 1.35,-4.13 -0.32,-0.28 -3.54,-2.03 -4.01,-2.23z"/>
     <path class="fil0 str0" d="M58.84 24.4l-0.35 -0.02c-0.03,1.28 0.39,2.91 0.36,4.34 -0.05,1.67 1.46,1.99 2.82,1.91 -0.67,-2.16 -1.72,-4.5 -2.83,-6.23z"/>
    </g>
    <path class="fil0 str0" d="M57.85 21.11c-0.49,0.11 -0.87,0.2 -1.15,0.4 -0.27,0.21 -0.42,1.01 -0.43,1.05 -0.04,0.39 0.07,0.96 0.45,1.38 0.19,0.22 0.72,0.59 0.91,0.65 0.2,0.05 0.89,-0.03 1.27,-0.1 0.49,-0.1 1.06,-0.47 1.18,-0.55 0.16,-0.11 0.08,-1.16 0.04,-1.41 -0.04,-0.25 -0.06,-0.3 -0.19,-0.55 -0.13,-0.25 -0.23,-0.43 -0.49,-0.55 -0.26,-0.12 -0.47,-0.2 -0.71,-0.28 -0.21,-0.07 -0.4,-0.15 -0.88,-0.04z"/>
   </g>
   <g>
    <path class="fil0 str0" d="M68.06 8.32c0.15,0.27 0.05,0.24 0.36,0.41 1.09,-0.38 2.29,-0.93 3.24,-1.62 0.29,-0.21 0.69,-0.65 0.88,-0.76 2.79,-1.65 5.72,6.12 0.12,6.07 -1.23,-0.01 -1.4,-0.45 -2.36,-0.9 -0.66,-0.31 -1.64,-0.77 -2.13,-1.27 -0.14,-0.05 0.14,-0.15 -0.36,-0.05 -0.55,0.11 -0.28,-0.01 -0.41,0.26 0.51,0.21 3.95,2.03 4.29,2.33 0.91,0.78 0.51,3.55 -1.45,4.3l-2.96 -6.52 -0.23 0.11c1.18,1.8 2.31,4.24 3.02,6.5 -1.45,0.09 -3.06,-0.25 -3.02,-1.99 0.04,-1.49 -0.41,-3.19 -0.38,-4.53 -0.17,-0.43 0.02,-0.11 -0.25,-0.22l-0.26 0.32c0.45,1.72 1.31,6.12 -1.16,6.66 -0.91,0.2 -1.91,0.01 -2.48,-0.43 -0.93,-0.73 -1.48,-2.6 -0.07,-3.81l2.23 -2.06c0.33,-0.28 0.5,-0.33 0.86,-0.68 0,-0.57 0,-0.21 -0.14,-0.34l-0.37 0.08c-0.18,0.34 -1.66,1.49 -2.17,2.16 -0.43,0.57 -0.01,0.33 -0.76,0.74 -0.72,0.38 -0.94,0.76 -2.18,0.73 -0.92,-0.03 -1.47,-0.28 -1.81,-1.1 -0.61,-1.47 0.17,-3.63 1.18,-4.11 1.33,-0.63 3.58,0.35 5.01,0.68 0.02,-0.03 0.05,-0.11 0.05,-0.09 0.01,0.01 0.04,-0.08 0.04,-0.11 0.02,-0.18 0.02,-0.07 0,-0.28 -0.88,-0.09 -2.52,-0.38 -3.15,-1.01 -1,-0.99 -2.53,-2.41 -0.49,-4.49 1.17,-1.19 2.29,-1.46 3.99,-0.3 0.78,0.54 1.13,0.81 1.15,1.59 0.02,0.88 0.1,1.82 0.09,2.65 0.11,0.08 -0.13,0.17 0.3,0.08 0.43,-0.08 0.02,0.21 0.19,-0.13 -0.2,-1.71 -0.25,-4.04 0.73,-5.18 1.12,-1.31 4.87,-1.44 5.51,0.55 0.18,0.57 0.23,0.74 0.15,1.36 -0.13,1 -0.13,1.36 -0.71,2.17 -0.6,0.85 -2.89,2.01 -4.09,2.23zm-0.12 -7.85c-0.56,0.24 -0.21,0.13 -0.65,0.39 -1,0.6 -1,0.62 -1.44,1.7 -0.71,-0.17 -3.07,-2.56 -5.52,-0.17 -1.06,1.04 -1.7,2.36 -1.43,3.82 0.08,0.48 0.42,0.73 0.59,1.25 -0.55,0.54 -1.03,0.28 -1.65,1.21 -1.09,1.64 -1.3,4.03 0.14,5.42 0.94,0.9 1.83,0.27 2.7,0.83 0.26,0.52 0.14,0.9 0.31,1.37 0.36,1.31 1.79,2.26 3.13,2.12 1.95,-0.2 1.31,-0.3 2.81,-1.12 0.15,0.05 2.24,1.24 3.28,0.84 1.37,-0.52 1.28,-0.5 2.27,-2.12 1.17,-1.92 -0.11,-2.16 1.08,-2.72l1.64 -0.59 0.41 -0.26c0.81,-1.31 1.69,-2.32 0.85,-4.33 -0.99,-2.39 -1.09,-2.17 -2.91,-2.88 0.07,-0.17 0.24,-0.43 0.24,-0.42 -0.06,-0.67 0.19,-1.34 -0.06,-2.13 0,-0.02 -0.26,-0.55 -0.32,-0.67 -0.55,-1.07 -1.51,-1.59 -2.68,-1.78 -1.09,-0.18 -1.96,-0.01 -2.79,0.24z"/>
    <g id="_2118115595632">
     <path class="fil0 str0" d="M66.47 7.19l0.2 0.51 1.02 -0.12 0.37 0.74c1.2,-0.22 3.49,-1.38 4.09,-2.23 0.58,-0.81 0.58,-1.17 0.71,-2.17 0.08,-0.62 0.03,-0.79 -0.15,-1.36 -0.64,-1.99 -4.39,-1.86 -5.51,-0.55 -0.98,1.14 -0.93,3.47 -0.73,5.18z"/>
     <path class="fil0 str0" d="M68.42 8.73l-0.02 0.58c-0.49,0.18 -0.11,-0.09 -0.12,0.24 0,0.14 -0.1,0.55 -0.11,0.7 0.49,0.5 1.47,0.96 2.13,1.27 0.96,0.45 1.13,0.89 2.36,0.9 5.6,0.05 2.67,-7.72 -0.12,-6.07 -0.19,0.11 -0.59,0.55 -0.88,0.76 -0.95,0.69 -2.15,1.24 -3.24,1.62z"/>
     <path class="fil0 str0" d="M64.39 8.8l0.19 -0.41c0.43,-1.08 -0.15,-0.52 0.9,-0.86 0.22,-0.07 0.32,-0.15 0.5,-0.29 0.01,-0.83 -0.07,-1.77 -0.09,-2.65 -0.02,-0.78 -0.37,-1.05 -1.15,-1.59 -1.7,-1.16 -2.82,-0.89 -3.99,0.3 -2.04,2.08 -0.51,3.5 0.49,4.49 0.63,0.63 2.27,0.92 3.15,1.01z"/>
     <path class="fil0 str0" d="M65.03 10.18c-0.27,-0.41 -0.17,-0.75 -0.73,-0.9 -1.43,-0.33 -3.68,-1.31 -5.01,-0.68 -1.01,0.48 -1.79,2.64 -1.18,4.11 0.34,0.82 0.89,1.07 1.81,1.1 1.24,0.03 1.46,-0.35 2.18,-0.73 0.75,-0.41 0.33,-0.17 0.76,-0.74 0.51,-0.67 1.99,-1.82 2.17,-2.16z"/>
     <path class="fil0 str0" d="M66.16 10.76c-0.47,-0.01 -0.32,-0.13 -0.4,0.11l-0.22 -0.43c-0.36,0.35 -0.53,0.4 -0.86,0.68l-2.23 2.06c-1.41,1.21 -0.86,3.08 0.07,3.81 0.57,0.44 1.57,0.63 2.48,0.43 2.47,-0.54 1.61,-4.94 1.16,-6.66z"/>
     <path class="fil0 str0" d="M67.4 10.46l-0.12 0.11 2.96 6.52c1.96,-0.75 2.36,-3.52 1.45,-4.3 -0.34,-0.3 -3.78,-2.12 -4.29,-2.33z"/>
     <path class="fil0 str0" d="M67.05 10.68l-0.38 -0.02c-0.03,1.34 0.42,3.04 0.38,4.53 -0.04,1.74 1.57,2.08 3.02,1.99 -0.71,-2.26 -1.84,-4.7 -3.02,-6.5z"/>
    </g>
    <path class="fil0 str0" d="M65.98 7.24c-0.51,0.11 -0.93,0.21 -1.22,0.42 -0.29,0.22 -0.46,1.05 -0.46,1.1 -0.05,0.4 0.07,0.99 0.47,1.44 0.21,0.23 0.78,0.62 0.99,0.67 0.2,0.05 0.95,-0.02 1.35,-0.1 0.52,-0.1 1.13,-0.49 1.26,-0.57 0.17,-0.12 0.09,-1.21 0.05,-1.47 -0.04,-0.26 -0.07,-0.32 -0.21,-0.58 -0.14,-0.26 -0.24,-0.45 -0.52,-0.57 -0.29,-0.13 -0.51,-0.22 -0.76,-0.3 -0.23,-0.07 -0.43,-0.15 -0.95,-0.04z"/>
   </g>
   <g>
    <path class="fil0 str0" d="M72.2 25.78c0.05,-0.38 0.08,-0.39 0.38,-0.27 0.12,0.78 0.31,1.57 0.44,2.38 0.13,0.84 0.34,1.26 0.96,1.71 1.2,0.86 4.49,0.91 3.05,-2.9 -0.38,-1.03 -0.45,-0.78 -1.37,-1.28l-2.99 -1.68c-0.43,-0.3 -0.21,0.04 -0.28,-0.41 0.39,-0.15 2.56,1.27 3.09,1.57 0.71,0.4 0.99,0.63 1.76,0.56 0.68,-0.06 1.16,-0.22 1.25,-0.96 0.12,-0.96 -0.34,-1.35 -0.74,-1.78 -1.26,-1.37 -4.37,-0.28 -5.41,-0.01 0.21,0.23 -0.05,0.05 0.25,0.17l1.09 0.06c0.76,0.03 3.83,0.25 4.27,0.54 -0.18,0.01 -3.31,-0.39 -4.67,-0.41 -0.38,-0.01 -0.67,0.04 -1.03,-0.07 -0.32,-0.11 -0.09,0.08 -0.36,-0.19 0.21,-0.99 2.56,-0.95 3.28,-1.14 0.44,-0.12 0.28,-0.01 0.4,-0.36 0.41,-1.06 -3.83,-3.28 -4.17,-1.94 -0.25,0.99 0.17,2.35 -0.13,2.86 -0.63,-0.32 0.21,-2.01 -1.04,-3.5 -0.77,-0.92 -2.33,-0.82 -3.18,-0.31 -0.41,0.26 -0.75,0.5 -0.86,1.22 -0.46,2.85 3.11,1.41 4.04,2.62 -0.39,0.55 -1.61,-0.77 -3.87,-0.08 -1.14,0.35 -2.29,0.96 -1.77,2.92 0.49,1.83 2.18,2.76 3.55,1.41 0.15,-0.15 0.39,-0.52 0.54,-0.71l1.08 -1.38c0.17,0.24 0.06,-0.07 0.14,0.27 0.01,0.07 0.01,0.26 0.02,0.34 -0.75,0.43 -1.56,1.69 -1.71,2.74 -0.55,3.86 3.62,4.57 4.26,1.91 0.28,-1.18 0.31,-2.72 -0.27,-3.9zm-4.44 1.82c-0.7,0.11 -3.18,0.36 -3.89,-2.44 -0.57,-2.2 0.55,-3.08 1.76,-3.68 -0.01,-0.71 -0.53,-1.36 0.13,-2.82 0.27,-0.61 1.35,-1.33 2.11,-1.4 0.77,-0.07 1.48,-0.01 2.34,0.52 0.53,0.31 0.28,0.16 0.6,0.55 1.04,0.09 1.25,-0.59 3.44,0.49 0.46,0.22 0.9,0.51 1.28,0.91 0.15,0.16 0.4,0.46 0.52,0.63 0.3,0.39 0.17,0.37 0.33,0.85 0.72,0.18 2.39,1.36 2.53,1.88 0.14,0.53 0.51,2.32 -0.35,2.87 -0.24,0.15 -0.55,0.19 -0.83,0.34 0.04,0.45 0.17,0.75 0.25,1.16 0.11,0.49 0.06,0.94 0.09,1.44l-0.17 0.45c-0.23,0.96 -0.95,1.48 -1.92,1.54 -1.39,0.08 -1.88,-0.21 -2.78,-0.99 -1.11,3.56 -4.95,1.9 -5.39,0.29 -0.19,-0.92 -0.02,-1.73 -0.05,-2.59z"/>
    <path class="fil0 str0" d="M69.92 25.03l0.78 0.58c0.44,0.28 1.22,0.28 1.5,0.17 0.58,1.18 0.55,2.72 0.27,3.9 -0.64,2.66 -4.81,1.95 -4.26,-1.91 0.15,-1.05 0.96,-2.31 1.71,-2.74zm2.66 0.48c0.24,-0.62 0.13,-0.33 0.18,-1.2 -0.51,-0.61 -0.37,-0.81 -1.38,-0.99 -0.99,-0.17 -1.03,-0.08 -1.62,0.53l0 0.57 -1.08 1.38c-0.15,0.19 -0.39,0.56 -0.54,0.71 -1.37,1.35 -3.06,0.42 -3.55,-1.41 -0.52,-1.96 0.63,-2.57 1.77,-2.92 2.26,-0.69 3.48,0.63 3.87,0.08 -0.93,-1.21 -4.5,0.23 -4.04,-2.62 0.11,-0.72 0.45,-0.96 0.86,-1.22 0.85,-0.51 2.41,-0.61 3.18,0.31 1.25,1.49 0.41,3.18 1.04,3.5 0.3,-0.51 -0.12,-1.87 0.13,-2.86 0.34,-1.34 4.58,0.88 4.17,1.94 -0.12,0.35 0.04,0.24 -0.4,0.36 -0.72,0.19 -3.07,0.15 -3.28,1.14 0.27,0.27 0.04,0.08 0.36,0.19 -0.01,-0.08 0.05,-0.21 0.09,-0.29 1.04,-0.27 4.15,-1.36 5.41,0.01 0.4,0.43 0.86,0.82 0.74,1.78 -0.09,0.74 -0.57,0.9 -1.25,0.96 -0.77,0.07 -1.05,-0.16 -1.76,-0.56 -0.53,-0.3 -2.7,-1.72 -3.09,-1.57 0.07,0.45 -0.15,0.11 0.28,0.41l2.99 1.68c0.92,0.5 0.99,0.25 1.37,1.28 1.44,3.81 -1.85,3.76 -3.05,2.9 -0.62,-0.45 -0.83,-0.87 -0.96,-1.71 -0.13,-0.81 -0.32,-1.6 -0.44,-2.38z"/>
    <g>
     <path class="fil0" d="M70.13 25.12c-0.23,-0.32 -0.7,-0.6 -0.37,-1.27 0.32,-0.67 0.63,-0.7 1.62,-0.53 1,0.18 1.13,0.17 1.38,0.99 0.25,0.82 0.16,0.88 -0.18,1.2 -0.34,0.31 -0.38,0.27 -0.61,0.32 -0.24,0.06 -0.83,0.06 -1.27,-0.22 -0.26,-0.2 -0.34,-0.17 -0.57,-0.49z"/>
     <path id="1" class="fil1" d="M69.66 23.73l0.19 0.23 0 0 -0.02 0.07 -0.03 0.05 -0.02 0.06 -0.01 0.05 -0.01 0.05 -0.01 0.05 0 0.05 -0.01 0.04 0.01 0.05 0 0.03 0.01 0.04 0.01 0.03 0 0.03 0.01 0.03 0.01 0.02 0.02 0.02 0.01 0.02 0.01 0.02 0.01 0.02 0.02 0.03 0.02 0.02 0.02 0.02 0.02 0.03 0.02 0.03 0.03 0.03 0.02 0.03 0.03 0.03 0.03 0.03 0.03 0.03 0.03 0.04 0.03 0.04 0.03 0.04 -0.08 0.06 -0.02 -0.02 -0.01 -0.02 -0.02 -0.02 -0.02 -0.03 -0.03 -0.03 -0.02 -0.03 -0.03 -0.03 -0.03 -0.03 -0.03 -0.03 -0.03 -0.04 -0.03 -0.04 -0.03 -0.04 -0.03 -0.05 -0.04 -0.05 -0.03 -0.05 -0.03 -0.05 -0.02 -0.05 -0.03 -0.05 -0.02 -0.06 -0.01 -0.05 -0.02 -0.05 0 -0.05 -0.01 -0.05 0 -0.05 0 -0.05 0 -0.06 0.01 -0.05 0.01 -0.05 0.02 -0.06 0.02 -0.06 0.02 -0.06 0.03 -0.06 0 0zm1.65 -0.53l0.15 0.25 0 0 -0.09 -0.01 -0.09 -0.02 -0.09 -0.01 -0.08 -0.01 -0.07 -0.01 -0.07 -0.01 -0.07 -0.01 -0.07 0 -0.06 -0.01 -0.06 0 -0.06 0 -0.05 0.01 -0.06 0 -0.05 0.01 -0.04 0.01 -0.05 0.01 -0.04 0.01 -0.04 0.02 -0.04 0.02 -0.04 0.02 -0.04 0.02 -0.03 0.03 -0.04 0.03 -0.03 0.03 -0.03 0.04 -0.04 0.04 -0.03 0.04 -0.03 0.04 -0.03 0.05 -0.03 0.06 -0.03 0.05 -0.03 0.06 -0.19 -0.23 0.03 -0.07 0.03 -0.05 0.03 -0.06 0.03 -0.05 0.04 -0.04 0.03 -0.05 0.03 -0.04 0.03 -0.04 0.04 -0.03 0.04 -0.03 0.03 -0.03 0.04 -0.03 0.04 -0.02 0.04 -0.02 0.05 -0.02 0.04 -0.01 0.05 -0.01 0.05 -0.01 0.05 -0.01 0.06 0 0.05 -0.01 0.06 0 0.06 0.01 0.07 0 0.06 0 0.08 0.01 0.07 0.01 0.08 0.01 0.08 0.01 0.08 0.02 0.09 0.01 0.09 0.02 0 0zm1.54 1.18l-0.19 -0.14 0 0 -0.02 -0.07 -0.02 -0.07 -0.02 -0.06 -0.02 -0.06 -0.02 -0.05 -0.02 -0.04 -0.02 -0.04 -0.01 -0.03 -0.02 -0.03 -0.01 -0.02 -0.01 -0.01 -0.01 -0.01 -0.01 -0.01 -0.01 -0.02 -0.02 -0.01 -0.03 -0.02 -0.02 -0.02 -0.04 -0.01 -0.03 -0.02 -0.05 -0.02 -0.04 -0.01 -0.05 -0.02 -0.05 -0.01 -0.06 -0.02 -0.06 -0.01 -0.06 -0.01 -0.07 -0.02 -0.07 -0.01 -0.08 -0.01 -0.08 -0.02 -0.08 -0.01 -0.09 -0.02 -0.15 -0.25 0.09 0.01 0.09 0.02 0.08 0.01 0.08 0.01 0.07 0.02 0.07 0.01 0.06 0.01 0.06 0.02 0.06 0.01 0.06 0.02 0.05 0.01 0.05 0.02 0.04 0.02 0.05 0.02 0.04 0.02 0.05 0.03 0.04 0.03 0.05 0.04 0.04 0.04 0.05 0.05 0.04 0.06 0.05 0.06 0.03 0.06 0.04 0.06 0.03 0.06 0.03 0.06 0.02 0.06 0.03 0.06 0.02 0.07 0.02 0.07 0.03 0.07 0.02 0.07 0 0zm-0.18 1.25l-0.18 -0.25 0 0 0.03 -0.03 0.03 -0.02 0.02 -0.03 0.03 -0.03 0.03 -0.02 0.02 -0.02 0.02 -0.03 0.02 -0.02 0.02 -0.02 0.02 -0.03 0.01 -0.02 0.01 -0.02 0.02 -0.03 0.01 -0.02 0 -0.03 0.01 -0.02 0.01 -0.03 0 -0.03 0 -0.03 0 -0.03 0 -0.04 0 -0.04 -0.01 -0.04 0 -0.04 -0.01 -0.04 -0.01 -0.05 -0.01 -0.06 -0.02 -0.05 -0.02 -0.06 -0.01 -0.07 -0.02 -0.07 -0.03 -0.07 0.19 0.14 0.02 0.08 0.02 0.07 0.02 0.07 0.02 0.06 0.02 0.07 0.01 0.05 0.01 0.06 0.01 0.05 0.01 0.05 0 0.05 0.01 0.04 0 0.04 0 0.04 0 0.04 -0.01 0.03 0 0.03 -0.01 0.03 -0.01 0.03 -0.01 0.03 -0.02 0.03 -0.01 0.02 -0.02 0.03 -0.01 0.02 -0.02 0.03 -0.02 0.02 -0.03 0.02 -0.02 0.03 -0.03 0.02 -0.02 0.03 -0.03 0.03 -0.03 0.02 -0.03 0.03 0 0zm-0.62 0.33l-0.17 -0.26 0 0 0.02 0 0.02 -0.01 0.02 0 0.02 0 0.02 -0.01 0.02 0 0.02 0 0.01 -0.01 0.02 0 0.01 0 0.02 -0.01 0.01 0 0.01 -0.01 0.02 0 0.01 -0.01 0.02 0 0.01 -0.01 0.02 -0.01 0.01 0 0.02 -0.01 0.02 -0.01 0.01 -0.02 0.02 -0.01 0.02 -0.01 0.02 -0.02 0.02 -0.02 0.03 -0.02 0.02 -0.02 0.03 -0.02 0.03 -0.02 0.02 -0.03 0.04 -0.03 0.18 0.25 -0.03 0.03 -0.03 0.03 -0.03 0.02 -0.03 0.02 -0.02 0.03 -0.02 0.01 -0.03 0.02 -0.02 0.02 -0.02 0.01 -0.02 0.02 -0.02 0.01 -0.01 0.01 -0.02 0.01 -0.02 0.01 -0.01 0.01 -0.02 0 -0.01 0.01 -0.02 0.01 -0.02 0 -0.01 0.01 -0.02 0 -0.01 0 -0.02 0.01 -0.01 0 -0.02 0 -0.02 0.01 -0.01 0 -0.02 0 -0.02 0.01 -0.02 0 -0.02 0.01 -0.02 0 0 0zm-1.32 -0.24l-0.07 -0.22 -0.01 -0.01 0.04 0.02 0.04 0.03 0.04 0.02 0.04 0.02 0.04 0.02 0.05 0.01 0.04 0.02 0.04 0.01 0.05 0.02 0.04 0.01 0.04 0.01 0.05 0.01 0.04 0.01 0.05 0.01 0.04 0 0.04 0.01 0.05 0 0.04 0.01 0.04 0 0.04 0 0.04 0 0.04 0 0.03 0 0.04 0 0.03 0 0.04 0 0.03 -0.01 0.03 0 0.03 0 0.02 -0.01 0.03 0 0.02 -0.01 0.17 0.26 -0.02 0.01 -0.03 0 -0.03 0 -0.03 0.01 -0.03 0 -0.03 0.01 -0.04 0 -0.03 0 -0.04 0 -0.04 0 -0.04 0 -0.04 0 -0.04 0 -0.04 0 -0.04 -0.01 -0.05 0 -0.04 -0.01 -0.05 -0.01 -0.04 0 -0.05 -0.01 -0.04 -0.01 -0.05 -0.01 -0.05 -0.02 -0.04 -0.01 -0.05 -0.02 -0.05 -0.02 -0.05 -0.01 -0.04 -0.02 -0.05 -0.03 -0.04 -0.02 -0.05 -0.03 -0.05 -0.03 -0.01 0zm0.01 0l0 0 -0.01 0 0.01 0zm-0.65 -0.57l0.08 -0.06 0 0 0.02 0.02 0.01 0.03 0.02 0.02 0.01 0.01 0.01 0.02 0.02 0.01 0.01 0.02 0.01 0.01 0.01 0.01 0.01 0.01 0.01 0.01 0.01 0.01 0.01 0.01 0.01 0 0.01 0.01 0.01 0.01 0.02 0.01 0.01 0.01 0.01 0.01 0.02 0.01 0.01 0.01 0.02 0.01 0.02 0.01 0.02 0.01 0.01 0.01 0.02 0.01 0.02 0.02 0.03 0.01 0.02 0.01 0.02 0.02 0.03 0.02 0.02 0.02 0.07 0.22 -0.02 -0.02 -0.02 -0.01 -0.02 -0.02 -0.02 -0.01 -0.02 -0.01 -0.02 -0.02 -0.01 -0.01 -0.02 -0.01 -0.02 -0.01 -0.02 -0.01 -0.01 -0.01 -0.02 -0.01 -0.02 -0.01 -0.01 -0.01 -0.02 -0.01 -0.02 -0.02 -0.02 -0.01 -0.02 -0.01 -0.02 -0.02 -0.01 -0.01 -0.03 -0.02 -0.02 -0.02 -0.02 -0.02 -0.02 -0.03 -0.02 -0.02 -0.03 -0.03 -0.02 -0.02 -0.02 -0.03 -0.03 -0.03 -0.02 -0.03 -0.03 -0.04 -0.02 -0.03 0 0z"/>
    </g>
   </g>
  </g>
  <g>
   <path class="fil2" d="M91.88 15.94c-1.23,0.62 -2.98,0.5 -4.47,0.5 -0.21,0.8 -0.32,1.86 -0.46,2.71 -0.14,0.86 -0.28,1.74 -0.43,2.64 -0.13,0.82 -0.7,4.93 -0.91,5.33l-10.15 0 -0.01 -10.67 -2.16 0 -0.02 10.67 -11.12 -0.01 -0.02 -10.66 -2.14 -0.01 -0.04 10.6c-0.12,0.15 0.12,0.06 -0.29,0.11 -0.67,0.08 -10.08,-0.01 -10.22,-0.03 -0.19,-0.46 -0.07,-9.34 -0.07,-10.64l-2.08 0 0 9.4c0,0.22 0.01,0.43 0.01,0.65 0,0.08 0,0.25 -0.01,0.32l-0.08 0.27 -11.09 -0.01 -0.02 -10.66 -2.14 -0.01 -0.03 10.67 -10.92 0 -0.02 -10.66 -2.14 -0.01 -0.02 10.64c-0.6,0.11 -10.58,0.09 -10.93,-0.02l-1.38 -10.61c-0.8,-0.02 -1.68,0.04 -2.46,-0.04 -0.83,-0.08 -1.3,-0.33 -1.98,-0.48 0.06,1.29 0.93,7.38 1.16,9.15l2.34 18.19c0.39,3 0.72,6.12 1.17,9.08 0.31,2.02 1.95,1.94 3.21,1.94l66.86 0c1.62,0 3.5,0.09 5.09,0 1.94,-0.11 2.06,-1.81 2.25,-2.96 0.15,-0.96 5.67,-34.36 5.72,-35.39zm-55.76 24.73c1.33,0.02 10.61,0.14 11.12,-0.02l0 -11.32 -11.09 -0.03 -0.03 11.37zm26.12 0.05l10.99 0.05 0.01 -11.44 -11.04 0.02c0,1.92 0,3.83 0,5.75 0,1.14 -0.15,4.77 0.04,5.62zm-39.22 -0.19l10.86 0.09 0 -11.25 -10.86 0.02 0 11.14zm36.95 0.11l0 -11.23c-0.45,-0.14 -9.34,-0.09 -10.49,-0.06l0 11.28c1.18,0.03 10.06,0.14 10.49,0.01zm-49.73 -11.06l1.42 10.93 9.12 0.07 0 -11.24 -10.28 -0.01c-0.3,0.08 -0.17,-0.05 -0.26,0.25zm65.22 11.14c0.4,0.1 7.53,0.12 7.97,0.03l1.87 -11.44 -9.83 -0.01 -0.01 11.42zm-52.45 9.21l0.35 0.01 10.26 -0.01 0.31 -0.02 0 -7.03 -10.92 -0.05 0 7.1zm13.11 -0.06l11.07 0.01 0 -6.95c-0.93,0 -8.49,0.03 -8.66,-0.09l-2.41 0.02 0 7.01zm37.06 -6.92l-10.98 0 0 6.93 11.04 0.03c0,-1.24 0.16,-6.14 -0.06,-6.96zm-13.21 6.91l-0.02 -6.86 -10.49 -0.08 0 6.98c1.75,0.03 3.52,0.01 5.26,0.01 1.16,0 4.33,0.14 5.25,-0.05zm-47.12 -0.02c0.81,0.16 3,0.04 3.96,0.04 1.32,0 2.65,0 3.97,0l0 -7 -8.86 -0.04 0.93 7zm69.11 -0.01c0.23,-0.99 0.36,-2.18 0.53,-3.22 0.13,-0.76 0.53,-2.65 0.49,-3.29l0.04 -0.28 -7.51 -0.03 0 6.87c1.12,0 5.73,0.14 6.45,-0.05zm-58.94 -9.3c0.08,0.13 -0.06,0.15 0.58,0.14 1.74,-0.02 9.75,0.08 10.35,0.01l0.01 -11.38c-1.52,-0.16 -7.73,0.01 -10.28,-0.02 -0.06,-0.01 -0.29,-0.01 -0.33,-0.01l-0.33 0.12 10.86 -0.02 0 11.25 -10.86 -0.09zm39.22 0.19c-0.19,-0.85 -0.04,-4.48 -0.04,-5.62 0,-1.92 0,-3.83 0,-5.75l11.04 -0.02 -0.01 11.44c0.01,-0.02 0.02,-0.07 0.03,-0.06 0,0.01 0.02,-0.05 0.02,-0.06 0.12,-0.48 -0.04,0.41 0.04,-0.14 0.08,-0.6 0,-11 -0.03,-11.21 -0.37,-0.14 -10.82,-0.15 -11.16,0.02l-0.02 11.12c0.06,0.44 -0.06,0.16 0.13,0.28zm-52 -11.14c0.09,-0.3 -0.04,-0.17 0.26,-0.25l10.28 0.01 0 11.24 -9.12 -0.07c0.09,0.23 0.48,0.13 1.02,0.13 1.87,0 7.06,0.12 8.13,-0.01 0.12,-0.36 0.15,-10.62 0.02,-11.33l-10.64 -0.04 0.05 0.32zm36.97 -2.46l0.08 -0.27c0.01,-0.07 0.01,-0.24 0.01,-0.32 0,-0.22 -0.01,-0.43 -0.01,-0.65l0 -9.4 2.08 0c0,1.3 -0.12,10.18 0.07,10.64 0.14,0.02 9.55,0.11 10.22,0.03 0.41,-0.05 0.17,0.04 0.29,-0.11l-10.49 0.03 -0.03 -10.63 -2.19 0 -0.03 10.68zm12.76 13.52c-0.43,0.13 -9.31,0.02 -10.49,-0.01l0 -11.28c1.15,-0.03 10.04,-0.08 10.49,0.06 -0.1,-0.25 0.06,-0.08 -0.23,-0.14l-5.02 -0.01c-1.01,0 -4.57,-0.13 -5.3,0.05 -0.09,0.7 -0.07,11.07 0.02,11.39 0.7,0.1 1.86,0.01 2.62,0.03l7.6 0.06c0.48,-0.07 0.19,0.02 0.31,-0.15zm0 9.22c-0.92,0.19 -4.09,0.05 -5.25,0.05 -1.74,0 -3.51,0.02 -5.26,-0.01l0 -6.98 10.49 0.08c-0.09,-0.21 -2.24,-0.1 -2.56,-0.1 -1.41,0 -7.41,-0.17 -7.98,-0.02 -0.09,0.47 -0.09,6.67 0.01,7.06 0.59,0.15 7.55,0.05 9.27,0.05l0.97 0.01c0.42,-0.06 0.2,0.01 0.31,-0.14zm-23.85 0.01c0.23,0.16 0.85,0.1 1.3,0.1 1.82,0 9.2,0.1 9.82,-0.04l0.03 -7.03c-0.45,-0.11 -7.95,-0.12 -8.74,-0.06 0.17,0.12 7.73,0.09 8.66,0.09l0 6.95 -11.07 -0.01zm37.06 -6.92c0.22,0.82 0.06,5.72 0.06,6.96l-11.04 -0.03 0 -6.93c-0.22,0.31 -0.07,6.89 -0.06,6.97 0.31,0.13 10.67,0.16 11.14,0.01l0.05 -6.59c-0.01,-0.1 -0.01,-0.13 -0.04,-0.22 -0.08,-0.24 0.1,-0.01 -0.11,-0.17zm-60.33 6.89c0.13,0.22 0.29,0.13 0.89,0.13 1.55,-0.01 6.28,0.08 7.08,-0.03 0.13,-0.5 0.12,-6.74 -0.01,-7.11l-8.37 -0.08c-0.04,0 -0.21,0 -0.24,0l-0.21 0.06c-0.02,0 -0.05,0.01 -0.07,0.03l8.86 0.04 0 7c-1.32,0 -2.65,0 -3.97,0 -0.96,0 -3.15,0.12 -3.96,-0.04zm69.11 -0.01c-0.72,0.19 -5.33,0.05 -6.45,0.05l0 -6.87 7.51 0.03 -0.04 0.28c0.12,-0.15 0.11,-0.04 0.08,-0.34 -0.75,-0.09 -7.07,-0.13 -7.6,-0.01l-0.03 6.96 6.14 0.05c0.43,-0.02 0.25,0.04 0.39,-0.15z"/>
   <path class="fil3" d="M4.15 16.14c0.68,0.09 1.15,0.24 1.97,0.29 0.78,0.05 1.67,0.01 2.47,0.02l12.32 0 2.14 0 10.96 0 2.14 0 11.13 0 2.19 0 10.55 0 2.13 0 11.16 0 2.16 0 11.95 0c1.49,0 3.23,0.07 4.46,-0.31 4.66,-0.93 6.32,-5.6 0.74,-7.5 -1.32,-0.45 -2.48,-0.51 -4.18,-0.51 -19.62,0 -39.8,0 -77.55,0 -3.3,0 -5.74,-0.24 -8.12,0.82 -1.57,0.7 -3.13,2.1 -2.7,3.94 0.27,1.15 1.26,2.05 2.6,2.7 0.69,0.34 1.19,0.41 1.48,0.55z"/>
  </g>
 </g>
</svg>
