<?xml version="1.0" encoding="UTF-8"?>
<!DOCTYPE svg PUBLIC "-//W3C//DTD SVG 1.0//EN" "http://www.w3.org/Graphics/SVG/1.1/DTD/svg11.dtd">
<!-- Creator: CorelDRAW 2019 (64-Bit) -->
<svg xmlns="http://www.w3.org/2000/svg" xml:space="preserve" width="734px" height="353px" version="1.0" style="shape-rendering:geometricPrecision; text-rendering:geometricPrecision; image-rendering:optimizeQuality; fill-rule:evenodd; clip-rule:evenodd"
viewBox="0 0 59.65 28.68"
 xmlns:xlink="http://www.w3.org/1999/xlink">

 <g id="Слой_x0020_1">
  <metadata id="CorelCorpID_0Corel-Layer"/>
  <g id="_2117490756272">
   <path fill="#9E0047" d="M57.01 4.86c-0.77,0.39 -1.85,0.31 -2.77,0.31 -0.13,0.5 -0.21,1.16 -0.29,1.68 -0.09,0.54 -0.18,1.08 -0.27,1.64 -0.08,0.51 -0.43,3.06 -0.56,3.31l-6.3 0 -0.01 -6.62 -1.34 0 -0.01 6.62 -6.9 -0.01 -0.01 -6.61 -1.33 -0.01 -0.02 6.58c-0.08,0.09 0.07,0.04 -0.18,0.07 -0.42,0.05 -6.26,-0.01 -6.34,-0.02 -0.12,-0.29 -0.05,-5.8 -0.05,-6.6l-1.29 0 0 5.83c0,0.13 0,0.27 0.01,0.4 0,0.05 0,0.16 -0.01,0.2l-0.05 0.17 -6.88 -0.01 -0.01 -6.61 -1.33 -0.01 -0.02 6.63 -6.77 -0.01 -0.01 -6.61 -1.33 -0.01 -0.02 6.6c-0.37,0.07 -6.56,0.06 -6.78,-0.01l-0.85 -6.58c-0.5,-0.01 -1.05,0.02 -1.53,-0.02 -0.51,-0.06 -0.81,-0.21 -1.23,-0.3 0.04,0.79 0.58,4.57 0.72,5.67l1.46 11.29c0.24,1.86 0.44,3.79 0.72,5.63 0.19,1.26 1.21,1.21 1.99,1.21l41.48 0c1.01,0 2.18,0.05 3.17,0 1.19,-0.07 1.27,-1.13 1.39,-1.84 0.09,-0.59 3.52,-21.32 3.55,-21.96zm-34.6 15.35c0.83,0.01 6.59,0.08 6.9,-0.02l0 -7.02 -6.88 -0.02 -0.02 7.06zm16.21 0.03l6.81 0.02 0.01 -7.09 -6.85 0.01c0,1.19 0,2.38 0,3.57 0,0.7 -0.09,2.96 0.03,3.49zm-24.34 -0.12l6.74 0.05 0 -6.98 -6.74 0.02 0 6.91zm22.93 0.07l0 -6.97c-0.28,-0.09 -5.8,-0.06 -6.51,-0.04l0 7c0.73,0.02 6.24,0.09 6.51,0.01zm-30.86 -6.86l0.89 6.78 5.65 0.04 0 -6.97 -6.38 -0.01c-0.18,0.05 -0.1,-0.03 -0.16,0.16zm40.47 6.91c0.25,0.06 4.67,0.07 4.94,0.02l1.17 -7.1 -6.1 -0.01 -0.01 7.09zm-32.54 5.71l0.21 0 6.37 0 0.19 -0.01 0 -4.36 -6.77 -0.03 0 4.4zm8.13 -0.04l6.87 0.01 0 -4.31c-0.58,0 -5.27,0.01 -5.38,-0.06l-1.49 0.02 0 4.34zm23 -4.29l-6.82 0 0 4.3 6.85 0.02c0,-0.77 0.1,-3.81 -0.03,-4.32zm-8.2 4.29l-0.02 -4.26 -6.5 -0.05 0 4.33c1.08,0.02 2.18,0.01 3.26,0.01 0.72,0 2.69,0.09 3.26,-0.03zm-29.24 -0.01c0.51,0.09 1.86,0.02 2.46,0.02 0.82,0 1.64,0 2.46,0l0 -4.34 -5.49 -0.03 0.57 4.35zm42.88 -0.01c0.14,-0.62 0.23,-1.35 0.33,-2 0.08,-0.47 0.33,-1.64 0.31,-2.04l0.02 -0.17 -4.66 -0.02 0 4.26c0.7,0 3.55,0.09 4,-0.03zm-36.57 -5.77c0.05,0.08 -0.04,0.09 0.36,0.09 1.08,-0.01 6.05,0.05 6.42,0l0.01 -7.06c-0.94,-0.1 -4.79,0.01 -6.38,-0.01 -0.03,0 -0.18,-0.01 -0.2,-0.01l-0.21 0.08 6.74 -0.02 0 6.98 -6.74 -0.05zm24.34 0.12c-0.12,-0.53 -0.03,-2.79 -0.03,-3.49 0,-1.19 0,-2.38 0,-3.57l6.85 -0.01 -0.01 7.09c0.01,-0.01 0.02,-0.04 0.02,-0.03 0,0.01 0.02,-0.03 0.02,-0.04 0.07,-0.29 -0.03,0.26 0.02,-0.08 0.05,-0.38 0,-6.83 -0.02,-6.96 -0.23,-0.09 -6.71,-0.1 -6.92,0.02l-0.02 6.89c0.04,0.28 -0.03,0.1 0.09,0.18zm-32.27 -6.91c0.06,-0.19 -0.02,-0.11 0.16,-0.16l6.38 0.01 0 6.97 -5.65 -0.04c0.05,0.14 0.29,0.08 0.63,0.08 1.16,-0.01 4.38,0.07 5.04,-0.01 0.08,-0.22 0.09,-6.59 0.02,-7.03l-6.61 -0.02 0.03 0.2zm22.94 -1.53l0.05 -0.17c0.01,-0.04 0.01,-0.15 0.01,-0.2 -0.01,-0.13 -0.01,-0.27 -0.01,-0.4l0 -5.83 1.29 0c0,0.8 -0.07,6.31 0.05,6.6 0.08,0.01 5.92,0.07 6.34,0.02 0.25,-0.03 0.1,0.02 0.18,-0.07l-6.51 0.02 -0.02 -6.6 -1.36 0 -0.02 6.63zm7.92 8.39c-0.27,0.08 -5.78,0.01 -6.51,-0.01l0 -7c0.71,-0.02 6.23,-0.05 6.51,0.04 -0.07,-0.15 0.04,-0.05 -0.15,-0.09l-3.11 0c-0.63,0 -2.83,-0.08 -3.29,0.03 -0.06,0.43 -0.04,6.87 0.02,7.07 0.43,0.06 1.15,0 1.62,0.01l4.72 0.04c0.29,-0.04 0.11,0.01 0.19,-0.09zm0 5.72c-0.57,0.12 -2.54,0.03 -3.26,0.03 -1.08,0 -2.18,0.01 -3.26,-0.01l0 -4.33 6.5 0.05c-0.05,-0.13 -1.38,-0.06 -1.58,-0.06 -0.88,0 -4.6,-0.11 -4.95,-0.01 -0.06,0.29 -0.06,4.13 0,4.38 0.37,0.09 4.69,0.03 5.75,0.03l0.61 0c0.26,-0.03 0.12,0.01 0.19,-0.08zm-14.8 0c0.15,0.11 0.53,0.06 0.81,0.06 1.13,0 5.7,0.07 6.09,-0.02l0.02 -4.36c-0.28,-0.07 -4.94,-0.08 -5.43,-0.04 0.11,0.07 4.8,0.06 5.38,0.06l0 4.31 -6.87 -0.01zm23 -4.29c0.13,0.51 0.03,3.55 0.03,4.32l-6.85 -0.02 0 -4.3c-0.14,0.2 -0.04,4.27 -0.04,4.32 0.2,0.08 6.62,0.1 6.92,0.01l0.03 -4.09c-0.01,-0.06 -0.01,-0.08 -0.03,-0.14 -0.05,-0.15 0.06,0 -0.06,-0.1zm-37.44 4.28c0.08,0.13 0.18,0.08 0.55,0.07 0.97,0 3.9,0.06 4.4,-0.01 0.08,-0.31 0.07,-4.18 -0.01,-4.42l-5.19 -0.05c-0.03,0 -0.13,0 -0.15,0.01l-0.13 0.03c-0.01,0.01 -0.03,0.01 -0.04,0.02l5.49 0.03 0 4.34c-0.82,0 -1.64,0 -2.46,0 -0.6,0 -1.95,0.07 -2.46,-0.02zm42.88 -0.01c-0.45,0.12 -3.3,0.03 -4,0.03l0 -4.26 4.66 0.02 -0.02 0.17c0.07,-0.09 0.07,-0.03 0.05,-0.21 -0.47,-0.06 -4.39,-0.08 -4.72,0l-0.02 4.31 3.81 0.03c0.27,-0.01 0.16,0.02 0.24,-0.09z"/>
   <path fill="#EBD72D" d="M2.57 4.98c0.43,0.06 0.72,0.15 1.23,0.19 0.48,0.03 1.03,0 1.53,0.01l7.64 0 1.33 0 6.8 0 1.33 0 6.9 0 1.36 0 6.55 0 1.32 0 6.92 0 1.34 0 7.42 0c0.92,0 2.01,0.04 2.77,-0.19 2.89,-0.58 3.92,-3.48 0.46,-4.66 -0.82,-0.28 -1.54,-0.32 -2.59,-0.32 -12.18,0.01 -24.7,0 -48.12,0 -2.05,0 -3.57,-0.14 -5.04,0.51 -0.97,0.44 -1.94,1.31 -1.68,2.45 0.17,0.71 0.78,1.27 1.61,1.67 0.44,0.21 0.75,0.26 0.92,0.34z"/>
  </g>
 </g>
</svg>
