
<svg xmlns="http://www.w3.org/2000/svg" xml:space="preserve" width="538px" height="53px" version="1.0" style="shape-rendering:geometricPrecision; text-rendering:geometricPrecision; image-rendering:optimizeQuality; fill-rule:evenodd; clip-rule:evenodd"
viewBox="0 0 402.73 39.84" > <path fill="#EB1575" d="M6.26 27.74c0.78,-0.21 1.5,-1.02 2.05,-1.58 8.84,-8.76 32.66,-9.55 44.52,-9.55 9.98,0 18.81,1.69 31.84,4.31 13.04,2.62 29.79,6.83 47.27,10.64 7.98,1.73 27.17,7.11 35.32,3.63 3.98,-1.7 3.76,-5.72 2.41,-7.1 -1.35,-1.38 -2.19,-1.67 -3.93,-1.67 0.52,0.33 3.93,1.67 3.04,4.48 -0.89,2.81 -6.23,5.11 -26.27,0.56 -20.05,-4.54 -42.42,-11.58 -59.11,-14.95 -19.79,-4 -38.63,-5.44 -58.56,-0.5 -5.76,1.43 -17.21,5.87 -18.58,11.73zm154.21 -1.32c1.15,-0.84 2.22,-5.55 10.2,-7.59 4.49,-1.14 11.56,-1.74 15.5,0.34 -1.62,2.42 -3.1,5.87 -0.26,8.17 2.71,2.2 6.8,0.68 6.88,-3.22 -0.33,-2.62 -1.2,-3.78 -2.67,-5.6 1.72,-1.05 8.86,-3.63 9.38,-3.6l9.61 3.51c-8.54,7.43 3.73,13.91 5.6,6.87 0.93,-3.53 -1.01,-4.53 -1.52,-6.46 2.56,-0.97 3.63,-1.35 8.28,-1.23 6.7,-0.03 12.86,2.07 16.5,7.76l0.92 1.38c-0.07,-3.02 -3.62,-6.52 -5.73,-7.77 -3.35,-2 -5.91,-2.62 -10.55,-3.3 -5.53,-0.81 -10.78,1.71 -11.44,1.74 -1.4,0.07 -8.53,-2.65 -10.17,-3.52 0.81,-1.74 3.91,-2.54 3.98,-7.58 0,-11.73 -15.83,-5.25 -9.53,4.23 1,1.51 2.15,1.98 2.91,3.02 -1.71,1.48 -4.86,2.22 -6.96,2.92 -5.65,1.91 -2.51,0.53 -8,-0.48 -5.67,-1.03 -12.21,-0.11 -16.82,2.69 -2.62,1.59 -5.83,4.38 -6.11,7.72zm39.21 -13.84c-4.18,-2.8 -3.38,-10.87 -0.33,-10.87 4.45,0 3.79,8.34 0.33,10.87zm8.24 11.54c0,-2.49 1.34,-3.43 2.96,-4.29 4.85,7.24 -2.96,8.03 -2.96,4.29zm-47.45 2.3l-0.33 0 0.27 0.39 0.06 -0.39zm30.58 -2.19c0,-2.48 -1.34,-3.42 -2.96,-4.28 -4.85,7.24 2.96,8.03 2.96,4.28zm-191.05 3.18c0,7.75 8.05,12.43 15.33,12.43 7.24,0 8.91,-0.68 15.85,-3 8.07,-2.69 15.89,-6.71 23.89,-9.71 7.91,-2.96 20.01,-5.13 27.39,0.86 2.09,1.69 2,2.12 2.88,2.72 -1.06,-4.57 -9.48,-9.23 -16.14,-9.23 -9.82,0 -18.22,4.87 -26.27,8.33 -8.9,3.84 -24.17,12.37 -34.83,4.99 -6.07,-4.19 -6.28,-12.26 1.26,-16.81 2.19,-1.33 2.31,-0.61 3.16,-1.78 -6.21,0 -12.52,5.18 -12.52,11.2zm161.79 5.6c3.55,0 6.18,-4.65 2.63,-5.6 0,5.04 -5.27,3.02 -5.27,-0.33 0,-11.69 14.54,-14.03 23.49,-12.28 1.76,0.34 3.5,1.04 5.18,1.08 -0.45,-0.39 -1.53,-0.87 -2.11,-1.19 -10.38,-4.07 -31.95,-0.42 -29.92,12.82 0.45,2.93 2.77,5.5 6,5.5zm231.51 -5.27c-0.78,-0.21 -1.5,-1.02 -2.05,-1.58 -8.84,-8.76 -32.66,-9.55 -44.52,-9.55 -9.98,0 -18.81,1.69 -31.84,4.31 -13.04,2.62 -29.79,6.83 -47.27,10.64 -7.98,1.73 -27.17,7.11 -35.32,3.63 -3.98,-1.7 -3.76,-5.72 -2.41,-7.1 1.35,-1.38 2.19,-1.67 3.93,-1.67 -0.52,0.33 -3.93,1.67 -3.04,4.48 0.89,2.81 6.23,5.11 26.27,0.56 20.05,-4.54 42.42,-11.58 59.11,-14.95 19.79,-4 38.63,-5.44 58.56,-0.5 5.77,1.43 17.21,5.87 18.58,11.73zm9.43 -0.33c0,7.75 -8.05,12.43 -15.33,12.43 -7.24,0 -8.91,-0.68 -15.85,-3 -8.07,-2.69 -15.89,-6.71 -23.9,-9.71 -7.9,-2.96 -20,-5.13 -27.38,0.86 -2.09,1.69 -2,2.12 -2.88,2.72 1.06,-4.57 9.48,-9.23 16.14,-9.23 9.81,0 18.22,4.87 26.27,8.33 8.9,3.84 24.17,12.37 34.83,4.99 6.06,-4.19 6.27,-12.26 -1.26,-16.81 -2.19,-1.33 -2.31,-0.61 -3.16,-1.78 6.2,0 12.52,5.18 12.52,11.2zm-165.7 5.6c-3.56,0 -6.19,-4.65 -2.64,-5.6 0,5.04 5.27,3.02 5.27,-0.33 0,-11.69 -14.53,-14.03 -23.49,-12.28 -1.75,0.34 -3.5,1.04 -5.17,1.08 0.45,-0.39 1.53,-0.87 2.11,-1.19 10.38,-4.07 31.95,-0.42 29.91,12.82 -0.45,2.93 -2.77,5.5 -5.99,5.5z"/>

</svg>
