<?xml version="1.0" encoding="UTF-8"?>
<!DOCTYPE svg PUBLIC "-//W3C//DTD SVG 1.1//EN" "http://www.w3.org/Graphics/SVG/1.1/DTD/svg11.dtd">
<!-- Creator: CorelDRAW 2019 (64-Bit) -->
<svg xmlns="http://www.w3.org/2000/svg" xml:space="preserve" version="1.1" style="shape-rendering:geometricPrecision; text-rendering:geometricPrecision; image-rendering:optimizeQuality; fill-rule:evenodd; clip-rule:evenodd"
viewBox="0 0 49.65 49.65"
 xmlns:xlink="http://www.w3.org/1999/xlink">
 <defs>
  <style type="text/css">
   <![CDATA[
    .fil1 {fill:none}
    .fil0 {fill:black;fill-rule:nonzero}
   ]]>
  </style>
 </defs>
 <g id="Слой_x0020_1">
  <metadata id="CorelCorpID_0Corel-Layer"/>
  <path class="fil0" d="M12.71 13.76c-0.16,-0.14 -0.29,-0.25 -0.38,-0.33 -0.64,-0.53 -0.96,-1.19 -0.96,-1.99l0 -3.33c0,-1.14 0.47,-1.95 1.39,-2.46 2.51,-1.37 6.53,-2.05 12.05,-2.05 5.54,0 9.57,0.68 12.08,2.05 0.92,0.51 1.39,1.32 1.39,2.46l0 3.33c0,0.8 -0.32,1.46 -0.96,1.99 -0.1,0.08 -0.22,0.19 -0.39,0.33l0 26.15c0,1.89 -0.44,3.14 -1.3,3.74 -2.38,1.6 -5.99,2.4 -10.82,2.4 -4.82,0 -8.4,-0.8 -10.79,-2.4 -0.87,-0.6 -1.31,-1.85 -1.31,-3.74l0 -26.15zm12.13 -3.12c3.32,0 6.16,-0.27 8.54,-0.81 2.37,-0.55 3.55,-1.2 3.55,-1.95 0,-0.73 -1.27,-1.4 -3.84,-2.02 -2.56,-0.61 -5.32,-0.92 -8.28,-0.92 -3,0 -5.77,0.32 -8.29,0.94 -2.54,0.62 -3.81,1.3 -3.81,2.02 0,0.74 1.2,1.38 3.58,1.93 2.39,0.54 5.24,0.81 8.55,0.81zm-12.13 -1l0 0.83c0,3.06 4.04,4.59 12.1,4.59 8.09,0 12.12,-1.53 12.12,-4.59l0 -0.83c-1.53,0.78 -3.3,1.37 -5.32,1.76 -2.03,0.39 -4.3,0.59 -6.8,0.59 -2.49,0 -4.74,-0.2 -6.75,-0.59 -2.02,-0.39 -3.8,-0.98 -5.35,-1.76zm1.35 4.84l0 25.34c0,1.62 0.52,2.7 1.55,3.22 2.2,1.11 5.27,1.67 9.2,1.67 3.95,0 7.02,-0.56 9.22,-1.67 1.04,-0.52 1.56,-1.6 1.56,-3.22l0 -25.34c-0.61,0.26 -1.29,0.51 -2.01,0.75l0 25.5 -1.35 0.35 0 -25.5c-1.07,0.2 -2.39,0.4 -3.97,0.57l0 25.54 -1.34 0 0 -25.54c-1.14,0.06 -1.84,0.09 -2.1,0.09 -0.24,0 -0.94,-0.03 -2.09,-0.09l0 25.54 -1.35 0 0 -25.54c-1.57,-0.17 -2.9,-0.37 -3.97,-0.57l0 25.5 -1.34 -0.35 0 -25.5c-0.73,-0.24 -1.4,-0.49 -2.01,-0.75z"/>
  <rect class="fil1" width="49.65" height="49.65"/>
 </g>
</svg>
