<?xml version="1.0" encoding="UTF-8"?>
<!DOCTYPE svg PUBLIC "-//W3C//DTD SVG 1.1//EN" "http://www.w3.org/Graphics/SVG/1.1/DTD/svg11.dtd">
<!-- Creator: CorelDRAW 2019 (64-Bit) -->
<svg xmlns="http://www.w3.org/2000/svg" xml:space="preserve" version="1.1" style="shape-rendering:geometricPrecision; text-rendering:geometricPrecision; image-rendering:optimizeQuality; fill-rule:evenodd; clip-rule:evenodd"
viewBox="0 0 33.03 33.03"
 xmlns:xlink="http://www.w3.org/1999/xlink">
 <defs>
  <style type="text/css">
   <![CDATA[
    .fil1 {fill:none}
    .fil0 {fill:black;fill-rule:nonzero}
   ]]>
  </style>
 </defs>
 <g id="Слой_x0020_1">
  <metadata id="CorelCorpID_0Corel-Layer"/>
  <path class="fil0" d="M19.43 18.12l-5.11 3.92c-3.09,2.37 -6.07,4.05 -8.96,5.03l-2.32 0.79 -0.34 0.14c-0.18,0.07 -0.33,0.1 -0.47,0.1 -0.52,0 -0.78,-0.28 -0.78,-0.84 0,-0.2 0.16,-0.54 0.5,-1.03l1.29 -1.91c1.68,-2.47 3.8,-4.68 6.35,-6.64l5.99 -4.59c-0.07,-0.15 -0.1,-0.29 -0.1,-0.43 0,-0.28 0.27,-0.62 0.79,-1.02l7.05 -5.33c1.56,-1.18 3.04,-1.77 4.45,-1.77 1,0 1.82,0.31 2.46,0.94 0.64,0.63 0.96,1.45 0.96,2.44 0,1.45 -1.04,2.98 -3.12,4.58l-7.19 5.52c-0.09,0.08 -0.17,0.13 -0.24,0.18 -0.21,0.16 -0.39,0.25 -0.56,0.25 -0.21,0 -0.43,-0.11 -0.65,-0.33zm-2.2 -6.25c2.17,0.94 3.43,2.62 3.77,5.05l6.37 -4.83c2.01,-1.54 3.02,-2.93 3.02,-4.19 0,-0.76 -0.26,-1.4 -0.76,-1.93 -0.51,-0.52 -1.13,-0.78 -1.87,-0.78 -1.17,0 -2.58,0.62 -4.23,1.87l-6.3 4.81zm10.76 -4.28l0.96 1.3c-0.27,0.68 -1.09,1.53 -2.49,2.54l-3.38 2.49c-0.07,0.59 -0.41,0.89 -1.03,0.89 -0.65,0 -0.98,-0.33 -0.98,-1 0,-0.68 0.35,-1.01 1.06,-1.01 0.1,0 0.22,0.03 0.37,0.1l2.76 -1.99c1.54,-1.13 2.45,-2.23 2.73,-3.32zm-7.79 9.03c-0.48,-1.78 -1.43,-3.07 -2.83,-3.89l-7.6 5.76c-1.74,1.32 -3.32,2.89 -4.75,4.7l-1.34 1.72c0.6,0.46 0.99,0.99 1.16,1.59l1.96 -0.81c2.22,-0.9 4.52,-2.26 6.88,-4.07l6.52 -5z"/>
  <rect class="fil1" width="33.03" height="33.03"/>
 </g>
</svg>
