<svg xmlns="http://www.w3.org/2000/svg" xml:space="preserve" width="50px" height="46px"
     viewBox="0 0 16.69 15.26"
     style="shape-rendering:geometricPrecision; text-rendering:geometricPrecision; image-rendering:optimizeQuality; fill-rule:evenodd; clip-rule:evenodd">
    <g id="Слой_x0020_1">
        <path  fill="#eb1575" d="M5.57 4.56c0,-0.18 -0.01,-0.17 0.09,-0.27l0.55 -0.53c0.24,-0.24 0.46,-0.46 0.71,-0.69l0.34 -0.37c0.3,-0.27 0.89,-0.92 1.09,-1.04 0.3,0.19 1.09,1.08 1.45,1.42l1.09 1.06c0.16,0.17 0.24,0.15 0.24,0.46l0 3.83 -1.64 0 -0.01 -2.31c-0.64,-0.03 -1.61,0 -2.28,0l0.01 2.31 -1.64 -0.01 0 -3.86zm-0.92 0.76l0 3.92 7.39 0 0 -3.92c0.29,0.16 0.5,0.7 1.07,0.62 0.4,-0.06 0.77,-0.56 0.48,-1.01 -0.15,-0.23 -3.18,-3.14 -3.61,-3.6l-1.07 -1.05c-0.67,-0.63 -1.06,-0.07 -1.56,0.42l-3.4 3.38c-0.22,0.21 -0.69,0.61 -0.84,0.85 -0.3,0.46 0.07,0.95 0.48,1.01 0.55,0.08 0.78,-0.46 1.06,-0.62z"/>
        <path fill="#eb1575" d="M16.69 8.02l0 -0.76 -0.16 -1.82c-0.11,-0.95 -0.57,-0.39 -0.66,-0.13 -0.08,0.22 -0.11,0.48 -0.14,0.74 -0.06,0.52 -0.13,1.07 -0.17,1.59 1.03,0.27 -0.08,1.01 -0.65,2.02 -0.11,0.2 -0.44,0.44 -0.67,0.52 0.08,-0.16 0.17,-0.19 0.29,-0.31 0.19,-0.19 0.55,-0.75 0.73,-1 0.12,-0.16 0.42,-0.53 0.49,-0.69 0.19,-0.4 -0.39,-0.39 -0.65,-0.28 -1.38,0.59 -1.66,1.98 -2.51,2.08 -1.28,0.14 -1.71,0.2 -2.55,0.91 -0.21,0.18 -0.36,0.38 -0.54,0.6 -0.29,0.37 -0.65,0.98 -0.74,1.57 -0.07,0.45 0,0.65 0.04,1.06 0.03,0.36 0.01,0.76 0.01,1.14l2.82 -0.01c0.03,-0.45 -0.07,-1.08 0.11,-1.45 0.16,-0.34 0.5,-0.57 0.8,-0.74 0.32,-0.19 0.64,-0.38 0.96,-0.57 0.44,-0.27 1.53,-0.92 1.77,-1.3 0.29,-0.44 0.77,-1.53 1,-2.06l0.42 -1.11z"/>
        <path fill="#eb1575" d="M0 7.26l0 0.76c0.05,0.1 0.15,0.45 0.2,0.58 0.23,0.59 0.94,2.16 1.24,2.62 0.17,0.26 0.57,0.52 0.84,0.68l1.9 1.17c1.12,0.66 0.83,1.11 0.88,2.19l2.82 -0.01c0,-0.38 -0.02,-0.79 0.02,-1.16 0.04,-0.41 0.11,-0.61 0.03,-1.06 -0.11,-0.61 -0.44,-1.16 -0.75,-1.56 -0.94,-1.19 -1.54,-1.29 -3.1,-1.5 -0.5,-0.06 -0.96,-0.77 -1.23,-1.09 -1.12,-1.36 -2.2,-1.18 -1.88,-0.65 0.12,0.21 0.32,0.45 0.48,0.66 0.16,0.22 0.3,0.44 0.47,0.67 0.28,0.41 0.44,0.42 0.53,0.62 -0.22,-0.08 -0.56,-0.32 -0.67,-0.52 -0.38,-0.67 -0.8,-1.06 -0.98,-1.36 -0.23,-0.38 0.01,-0.58 0.34,-0.66 -0.03,-0.41 -0.18,-2 -0.32,-2.36 -0.07,-0.16 -0.26,-0.46 -0.49,-0.33 -0.29,0.16 -0.23,2.04 -0.33,2.31z"/>
    </g>
</svg>