<?xml version="1.0" encoding="UTF-8"?>
<!DOCTYPE svg PUBLIC "-//W3C//DTD SVG 1.1//EN" "http://www.w3.org/Graphics/SVG/1.1/DTD/svg11.dtd">
<!-- Creator: CorelDRAW 2019 (64-Bit) -->
<svg xmlns="http://www.w3.org/2000/svg" xml:space="preserve" width="626px" height="629px" version="1.1" style="shape-rendering:geometricPrecision; text-rendering:geometricPrecision; image-rendering:optimizeQuality; fill-rule:evenodd; clip-rule:evenodd"
viewBox="0 0 124.29 124.91"
 xmlns:xlink="http://www.w3.org/1999/xlink">

 <g id="Слой_x0020_1">
  <metadata id="CorelCorpID_0Corel-Layer"/>
  <path fill="#EBD72D" d="M31.21 81.07c-1.37,-5.51 -1.11,-25.11 -0.73,-31.47 1.35,-22.74 22.62,-19.59 44.09,-18.75 10.06,0.39 16.65,4.74 18.69,13.36 1.4,5.88 1.13,24.46 0.73,31.1 -0.61,10.43 -4.51,16.17 -13.33,18.34 -5.91,1.45 -24.17,1.14 -30.86,0.77 -10.25,-0.57 -16.37,-4.41 -18.59,-13.35zm93.08 -23.56l0 9.65c-0.2,2.45 -0.55,4.99 -1.05,7.66 -2.32,12.43 -7.15,20.54 -15.42,30.32l-2.33 2.63c-2.54,2.53 -5.78,4.71 -8.93,6.78 -9.52,6.25 -21.93,10.36 -34.31,10.36 -9.52,0 -18.13,-2.12 -25.27,-5.34 -2.37,-1.07 -3.76,-1.8 -5.5,-2.77l-10.15 -7.23c-0.13,-0.11 -0.32,-0.26 -0.45,-0.37l-6.48 -6.76c-18.05,-22.27 -19.05,-51.68 -3.45,-75.15 2.65,-3.98 3.86,-5.08 7.25,-8.47 3.14,-3.14 4.72,-4.72 8.33,-7.38 5.64,-4.14 15.15,-8.1 21.99,-9.45 4.59,-0.9 8.8,-1.99 13.73,-1.99 24.45,0 50.12,17.57 57.73,39.05 2.34,6.59 3.8,12.46 4.31,18.46zm-66.72 -10.42c20.8,-6.14 29.42,24.6 9.87,31.08 -21.12,7 -31.43,-24.71 -9.87,-31.08zm19.87 2.13c-1.58,-0.7 -2.8,-2.95 -2,-5.14 1.08,-2.92 8.43,-4.57 7.11,3.69 -1.3,1.02 -2.75,2.49 -5.11,1.45zm-40.87 29.37c1.41,8.14 7.41,9.84 16.39,9.93 6.62,0.07 19.23,0.77 25.28,-0.47 8.2,-1.68 9.47,-7.06 9.74,-16.07 0.73,-24.16 2.99,-34.75 -16.77,-35.32 -6.59,-0.2 -19.07,-0.57 -24.91,0.49 -7.98,1.46 -9.85,7.08 -10.18,15.78 -0.25,6.68 -0.64,19.39 0.45,25.66zm15.12 -14.89c1.28,12.93 22.4,11.81 20.9,-2.22 -1.4,-12.98 -22.26,-11.49 -20.9,2.22z"/>
 </g>
</svg>
