<?xml version="1.0" encoding="UTF-8"?>
<!DOCTYPE svg PUBLIC "-//W3C//DTD SVG 1.1//EN" "http://www.w3.org/Graphics/SVG/1.1/DTD/svg11.dtd">
<!-- Creator: CorelDRAW 2019 (64-Bit) -->
<svg xmlns="http://www.w3.org/2000/svg" xml:space="preserve" width="50px" height="46px" version="1.1" style="shape-rendering:geometricPrecision; text-rendering:geometricPrecision; image-rendering:optimizeQuality; fill-rule:evenodd; clip-rule:evenodd"
viewBox="0 0 439.63 309.68"
 xmlns:xlink="http://www.w3.org/1999/xlink">
 <defs>
  <style type="text/css">
   <![CDATA[
    .fil0 {fill:#eb1575}
   ]]>
  </style>
 </defs>
 <g id="Слой_x0020_1">
  <metadata id="CorelCorpID_0Corel-Layer"/>
  <g id="_2687011557120">
   <path class="fil0" d="M296.18 210.58c-3.71,-23.59 24.58,-29.69 27.8,-6.68 3.25,23.16 -24.22,29.43 -27.8,6.68zm-179.93 0c-3.54,-23.76 24.53,-29.52 27.79,-6.76 1.53,10.72 -4.6,19.43 -11.37,20.87 -8.42,1.77 -15.17,-5.71 -16.42,-14.11zm68.42 4.99c4.77,-4.65 3.54,-2.39 8.81,-9.35 2.66,-3.52 4.49,-7.25 6.37,-11.88 6.01,-14.88 4.63,-19.38 6.72,-32.1l6.99 -0.03c1.57,8.44 -1.57,25.2 -3.79,32.22 -2.95,9.36 -6.31,16.04 -8.6,26.58 -3.5,-0.4 -13.9,-3.42 -16.5,-5.44zm41.13 -53.21l7.26 -0.11c1.98,13.14 0.88,17.76 6.69,32.17 6.18,15.31 12.01,16.97 15.44,21.15 -3.26,2.55 -12.23,5.17 -16.81,5.62 -2.38,-14.41 -14.77,-33.83 -12.58,-58.83zm-12.05 -29.08l-7.23 -0.07c-2.88,-27.06 -8.86,-57.66 -31.9,-67.12 -21.89,-8.99 -49.99,8.53 -48.75,42.28 0.4,10.89 4.64,19.15 8.66,24.61 2.44,3.32 12.16,12.35 17.87,13.19 -1.32,-10.03 -1.9,-18.62 1.13,-27.83 8.94,-27.08 38.77,-13.89 40.41,16.23 -2.68,0.1 -10.3,-1.75 -12.01,1.77 -1.02,2.95 -1.04,23.27 -0.02,25.83 1.36,2.25 10.43,1.22 12.46,1.23 0.75,27.52 -32.64,28.44 -29,-4.8 -7.94,3.01 -14.88,19.13 -15.44,29.49 -2.47,-1.37 -12.73,-17.35 -14.16,-21.77 8.93,-9.74 3.62,-27.08 -7.87,-26.06 -4.93,0.44 -9.04,5.35 -10.08,10.8 -1.92,10.17 3.53,13.51 5.42,16.51 -4.46,13.2 -13.59,28.92 -19.83,37.63 -3.3,4.59 -8.38,10.17 -13.54,14.03 -2.66,1.98 -5.27,3.62 -8.53,4.86 -1.87,0.71 -7.93,1.36 -9.1,2.24l-1.25 1.41c-2.35,-4.81 -9.61,-10.61 -13.2,-15.19 -3.03,-3.86 -8.57,-12.34 -9.92,-19.51l5.04 -2.66c1.37,1.86 2.19,4.23 3.27,6.15 3.56,6.33 7.57,11.53 12.69,15.72 20.49,16.78 39.14,-6.7 32.42,-27.26 -2.78,-8.52 -10.44,-15.36 -19.79,-16.72 0.84,4.21 7.24,16.18 -2.23,23.87 -7.46,6.05 -15.05,-0.8 -17.38,-7.12 2.02,-2.52 6.53,-4.23 8.71,-6.21 0.26,-3.94 -3.64,-12.32 -4.98,-16.06 -2.74,-7.67 -7.21,-0.77 -11.78,0.74 -1.03,-8.45 -2.43,-12.87 0.62,-21.41 6.51,-18.23 22.71,-16.59 30.14,2.31 1.05,2.67 1.61,6.9 2.85,9.42 3.1,-2.97 7.12,-10.29 8.93,-16.75 6.51,-23.29 -8.99,-45.75 -30.32,-41.46 -20.47,4.12 -28.47,27.89 -25.74,51.1 1.03,8.74 3.44,15.3 4.55,23.02l-5.23 2.74c-0.77,-3.65 -3.06,-8.79 -4.23,-12.67 -4.9,-16.32 -1.72,-33.48 -3.48,-49.73 -2.18,-20.05 -15.79,-29.14 -31.93,-31.82l65.29 172.85c-0.94,0.87 -1.96,0.69 -3.22,1l0.08 17.4c4.07,1.32 68.6,0.35 78.55,0.35l157.77 0c26.21,0 52.87,0.61 79.02,-0.04l0.08 -17.46 -2.87 -1.04c-0.09,-0.05 -0.27,-0.1 -0.38,-0.2l65.31 -172.75c-41.13,6.31 -30.54,43.05 -32.68,66.76 -0.47,5.21 -1.42,10.11 -2.73,14.67 -0.61,2.1 -1.34,4.06 -2.07,6.1 -0.78,2.18 -1.36,4.5 -2.61,6.31l-4.81 -2.76c1.08,-7.22 3.46,-13.87 4.46,-22.12 6.55,-54.16 -42.07,-67.9 -54.98,-34.1 -6.25,16.34 1.49,35.39 8,40.57 1.94,-4.57 5.56,-27.35 21.13,-24.15 5.35,1.1 9.49,6.39 11.33,11.23 3.08,8.09 2.75,13.63 1.04,22.52 -2.17,-0.51 -4.32,-2.31 -6.32,-3.41 -3.18,-1.73 -3.98,-1 -5.27,2.27 -1.45,3.68 -5.25,12.68 -5.19,16.73l8.86 5.83c-5.79,13.96 -21.54,12.09 -22.46,-2.86 -0.45,-7.36 1.61,-8.92 2.79,-13.63 -9.51,0.98 -16.91,8.43 -19.79,16.6 -4.16,11.79 1.74,24.87 7.27,29.05 14.1,10.67 29.68,-2.61 37.64,-17.12 1.1,-2 2.16,-4.67 3.48,-6.42l4.94 2.74c-1.02,7.41 -8.62,18.79 -13.48,23.44 -1.19,1.13 -2.56,2.52 -3.58,3.58 -2.15,2.24 -5.29,5.6 -6.45,8.08l-1.15 -2.33c-7.2,-0.48 -13.32,-3.34 -18.22,-7.29 -4.89,-3.94 -9.81,-9.12 -12.99,-14.09 -6.07,-9.45 -16.33,-25.88 -19.02,-36.98 4.14,-4.45 7.48,-6.54 6.45,-15.59 -1.64,-14.42 -17.45,-15.35 -21.62,-3.52 -3.49,9.9 1.62,13.01 2.75,17.86 -2.72,5.78 -10.46,19.06 -14.57,22.2 -1.42,-12.35 -5.17,-19.95 -12.25,-27.51 -1.41,-1.49 -1.43,-1.86 -3.3,-2.48 3.76,33.63 -30.17,32.04 -28.93,4.83 3.39,0.06 9.48,0.89 12.25,-0.8 1.51,-2.97 0.98,-23.87 0.15,-26.99 -4,-1.61 -7.4,-0.97 -12.1,-0.94 2,-29.55 30.6,-43.83 40.33,-16.66 3.53,9.89 2.25,17.93 1.25,28.41 34.05,-12.38 35.46,-65.12 2.86,-79.73 -7.65,-3.43 -16.74,-3.71 -24.61,-0.66 -17.74,6.88 -26.92,28.95 -30.39,51.28 -0.7,4.52 -1.16,11.66 -2.01,15.43 -1.84,1.22 -5.11,0.58 -7.17,0.6 -0.48,-15.45 0.94,-28.19 5.36,-40.8 8.25,-23.57 21.56,-44.91 8.05,-69.5 -6.83,-12.42 -12.81,-15.45 -19.09,-23 -4.84,1.96 -16.22,16.46 -19.62,22.62 -14.16,25.73 -0.51,45.17 7.64,69.59 4.7,14.08 5.83,24.11 5.55,41.07z"/>
   <path class="fil0" d="M73.41 308.8c3.79,1.64 63.86,0.49 73.21,0.49 9.31,0 218.76,0.57 219.92,-0.26 2.73,-4.25 3.23,-7.64 2.33,-15.35 -4.43,0.98 -8.84,1.98 -14.05,0.96l-0.02 -14.15 -269.89 -0.21 -0.01 14.42c-1.9,0.3 -10.71,1.04 -11.28,-0.86l-0.21 14.96z"/>
  </g>
 </g>
</svg>
