<?xml version="1.0" encoding="UTF-8"?>
<!DOCTYPE svg PUBLIC "-//W3C//DTD SVG 1.1//EN" "http://www.w3.org/Graphics/SVG/1.1/DTD/svg11.dtd">
<!-- Creator: CorelDRAW 2019 (64-Bit) -->
<svg xmlns="http://www.w3.org/2000/svg" xml:space="preserve" width="1023px" height="229px" version="1.1" style="shape-rendering:geometricPrecision; text-rendering:geometricPrecision; image-rendering:optimizeQuality; fill-rule:evenodd; clip-rule:evenodd"
viewBox="0 0 874.83 195.78"
 xmlns:xlink="http://www.w3.org/1999/xlink">

 <g id="Слой_x0020_1">
  <metadata id="CorelCorpID_0Corel-Layer"/>
  <path fill="#EBD72D" fill-rule="nonzero" d="M215.62 135.29l-9.3 0 0 20.59 -4.62 0 0 -20.59 -9.36 0 -13.73 20.59 -5.51 0 15.39 -23.15 -14.24 -21.74 5.13 0 12.9 20.13 9.42 0 0 -20.13 4.62 0 0 20.13 9.3 0 12.96 -20.13 5.13 0 -14.24 21.74 15.39 23.15 -5.52 0 -13.72 -20.59zm54.32 -13.14l-16.87 37.77c-1.36,3.16 -2.95,5.41 -4.74,6.73 -1.8,1.33 -3.96,1.99 -6.48,1.99 -1.62,0 -3.14,-0.26 -4.55,-0.77 -1.41,-0.51 -2.63,-1.28 -3.66,-2.31l2.12 -3.4c1.71,1.71 3.76,2.57 6.15,2.57 1.54,0 2.86,-0.43 3.95,-1.28 1.09,-0.86 2.1,-2.31 3.05,-4.36l1.47 -3.27 -15.07 -33.67 4.74 0 12.7 28.66 12.7 -28.66 4.49 0zm19.37 18.72l-7.7 0 0 15.01 -4.55 0 0 -33.73 4.55 0 0 14.81 7.76 0 11.87 -14.81 4.94 0 -13.28 16.35 14.24 17.38 -5.39 0 -12.44 -15.01zm37.71 15.33c-3.25,0 -6.18,-0.74 -8.79,-2.21 -2.61,-1.48 -4.66,-3.52 -6.15,-6.13 -1.5,-2.61 -2.25,-5.56 -2.25,-8.85 0,-3.29 0.75,-6.24 2.25,-8.85 1.49,-2.61 3.54,-4.64 6.15,-6.09 2.61,-1.46 5.54,-2.18 8.79,-2.18 3.25,0 6.18,0.72 8.78,2.18 2.61,1.45 4.65,3.48 6.13,6.09 1.48,2.61 2.21,5.56 2.21,8.85 0,3.29 -0.73,6.24 -2.21,8.85 -1.48,2.61 -3.52,4.65 -6.13,6.13 -2.6,1.47 -5.53,2.21 -8.78,2.21zm0 -4.04c2.39,0 4.54,-0.55 6.44,-1.64 1.91,-1.09 3.39,-2.64 4.46,-4.65 1.07,-2 1.6,-4.29 1.6,-6.86 0,-2.56 -0.53,-4.85 -1.6,-6.86 -1.07,-2.01 -2.55,-3.56 -4.46,-4.65 -1.9,-1.09 -4.05,-1.64 -6.44,-1.64 -2.4,0 -4.54,0.55 -6.45,1.64 -1.9,1.09 -3.4,2.64 -4.49,4.65 -1.09,2.01 -1.63,4.3 -1.63,6.86 0,2.57 0.54,4.86 1.63,6.86 1.09,2.01 2.59,3.56 4.49,4.65 1.91,1.09 4.05,1.64 6.45,1.64zm48.36 -13.73c4.57,1.07 6.86,3.83 6.86,8.28 0,2.95 -1.09,5.21 -3.27,6.8 -2.18,1.58 -5.43,2.37 -9.75,2.37l-15.33 0 0 -33.73 14.88 0c3.85,0 6.86,0.74 9.04,2.24 2.18,1.5 3.27,3.63 3.27,6.41 0,1.84 -0.5,3.41 -1.5,4.72 -1.01,1.3 -2.41,2.27 -4.2,2.91zm-17.06 -1.28l10.13 0c2.61,0 4.61,-0.49 6,-1.47 1.38,-0.99 2.08,-2.42 2.08,-4.3 0,-1.88 -0.7,-3.29 -2.08,-4.23 -1.39,-0.94 -3.39,-1.41 -6,-1.41l-10.13 0 0 11.41zm10.71 15.14c2.9,0 5.08,-0.47 6.54,-1.41 1.45,-0.94 2.18,-2.42 2.18,-4.43 0,-2.01 -0.66,-3.49 -1.99,-4.46 -1.33,-0.96 -3.42,-1.44 -6.28,-1.44l-11.16 0 0 11.74 10.71 0zm37.77 3.91c-3.25,0 -6.18,-0.74 -8.79,-2.21 -2.6,-1.48 -4.66,-3.52 -6.15,-6.13 -1.5,-2.61 -2.25,-5.56 -2.25,-8.85 0,-3.29 0.75,-6.24 2.25,-8.85 1.49,-2.61 3.55,-4.64 6.15,-6.09 2.61,-1.46 5.54,-2.18 8.79,-2.18 3.25,0 6.18,0.72 8.79,2.18 2.6,1.45 4.65,3.48 6.12,6.09 1.48,2.61 2.21,5.56 2.21,8.85 0,3.29 -0.73,6.24 -2.21,8.85 -1.47,2.61 -3.52,4.65 -6.12,6.13 -2.61,1.47 -5.54,2.21 -8.79,2.21zm0 -4.04c2.39,0 4.54,-0.55 6.45,-1.64 1.9,-1.09 3.38,-2.64 4.45,-4.65 1.07,-2 1.61,-4.29 1.61,-6.86 0,-2.56 -0.54,-4.85 -1.61,-6.86 -1.07,-2.01 -2.55,-3.56 -4.45,-4.65 -1.91,-1.09 -4.06,-1.64 -6.45,-1.64 -2.39,0 -4.54,0.55 -6.45,1.64 -1.9,1.09 -3.39,2.64 -4.48,4.65 -1.09,2.01 -1.64,4.3 -1.64,6.86 0,2.57 0.55,4.86 1.64,6.86 1.09,2.01 2.58,3.56 4.48,4.65 1.91,1.09 4.06,1.64 6.45,1.64zm26.87 -30.01l4.56 0 0 26.8 22.51 -26.8 4.04 0 0 33.73 -4.56 0 0 -26.81 -22.44 26.81 -4.11 0 0 -33.73zm15.33 -4.88c-2.91,0 -5.22,-0.73 -6.93,-2.18 -1.71,-1.45 -2.58,-3.51 -2.63,-6.16l3.27 0c0.05,1.67 0.65,3.01 1.8,4.01 1.15,1.01 2.65,1.51 4.49,1.51 1.84,0 3.34,-0.5 4.52,-1.51 1.18,-1 1.79,-2.34 1.83,-4.01l3.27 0c-0.04,2.65 -0.93,4.71 -2.66,6.16 -1.73,1.45 -4.05,2.18 -6.96,2.18zm78.43 34.5l0 4.11 -31.74 0 0 -44.89 30.78 0 0 4.1 -26.04 0 0 15.97 23.22 0 0 4.04 -23.22 0 0 16.67 27 0zm37.01 -29.62l0 33.73 -4.55 0 0 -29.69 -16.17 0 -0.44 8.33c-0.35,7.01 -1.16,12.4 -2.44,16.16 -1.28,3.77 -3.57,5.65 -6.86,5.65 -0.9,0 -1.99,-0.17 -3.28,-0.51l0.33 -3.92c0.77,0.17 1.3,0.26 1.6,0.26 1.75,0 3.08,-0.81 3.98,-2.44 0.89,-1.62 1.49,-3.63 1.79,-6.03 0.3,-2.39 0.56,-5.55 0.77,-9.49l0.58 -12.05 24.69 0zm42.46 18.27l-28.22 0c0.25,3.51 1.6,6.34 4.04,8.5 2.43,2.16 5.51,3.24 9.23,3.24 2.1,0 4.02,-0.37 5.77,-1.12 1.76,-0.75 3.28,-1.85 4.56,-3.31l2.56 2.95c-1.49,1.8 -3.36,3.17 -5.61,4.11 -2.24,0.94 -4.71,1.41 -7.41,1.41 -3.46,0 -6.53,-0.74 -9.2,-2.21 -2.67,-1.48 -4.76,-3.52 -6.25,-6.13 -1.5,-2.61 -2.25,-5.56 -2.25,-8.85 0,-3.29 0.72,-6.24 2.15,-8.85 1.43,-2.61 3.4,-4.64 5.9,-6.09 2.5,-1.46 5.31,-2.18 8.44,-2.18 3.12,0 5.92,0.72 8.4,2.18 2.48,1.45 4.42,3.47 5.83,6.06 1.41,2.59 2.12,5.55 2.12,8.88l-0.06 1.41zm-16.29 -14.62c-3.25,0 -5.98,1.04 -8.18,3.11 -2.2,2.07 -3.45,4.78 -3.75,8.11l23.92 0c-0.3,-3.33 -1.55,-6.04 -3.75,-8.11 -2.2,-2.07 -4.95,-3.11 -8.24,-3.11zm26.42 -3.65l4.55 0 0 14.94 21.23 0 0 -14.94 4.55 0 0 33.73 -4.55 0 0 -14.88 -21.23 0 0 14.88 -4.55 0 0 -33.73zm57.46 11.92c4.24,0.05 7.46,0.99 9.69,2.83 2.22,1.83 3.33,4.48 3.33,7.95 0,3.59 -1.2,6.35 -3.59,8.27 -2.4,1.93 -5.81,2.87 -10.26,2.82l-13.34 -0.06 0 -33.73 4.55 0 0 11.8 9.62 0.12zm18.67 -11.92l4.55 0 0 33.73 -4.55 0 0 -33.73zm-19.76 30.33c3.12,0.04 5.48,-0.59 7.09,-1.89 1.6,-1.31 2.4,-3.22 2.4,-5.74 0,-2.48 -0.79,-4.32 -2.37,-5.52 -1.58,-1.19 -3.95,-1.81 -7.12,-1.86l-8.53 -0.13 0 15.01 8.53 0.13z"/>
  <g id="_1468973182640">
   <path fill="#2A4717" d="M55.97 143.29c-1.11,0.16 -1.95,0.31 -3.19,0.44 -2.82,0.3 -5.83,-1.75 -6.6,-4.56 -1.02,-0.92 0.67,-2.42 -2.01,-2.59 -1.85,-0.12 -5.14,1.14 -7.98,1.59 -0.76,0.12 -3.6,0.68 -4.14,0.93 -2.43,1.1 -4.79,3.58 -5.7,4.26 -1.43,1.06 -1.11,1.24 -2.33,2.53 -1.34,1.41 -4.79,7.74 -4.72,10.21 0.03,0.75 0.17,1.53 0.2,2.18 0.06,1.61 -0.43,3.91 0.4,7.09 0.72,2.77 0.85,5.57 1.81,8.11 0.88,2.34 1.86,4.84 3.26,6.67 1.13,1.47 1.15,1.35 3.58,1.11 3.53,-0.34 8.78,-1.57 11.98,-3.06 2.31,-1.08 4.52,-1.67 6.78,-3.13 0.63,-0.41 0.88,-0.43 1.64,-0.76l5.68 -4.26c0.56,-0.49 0.54,-0.68 1.05,-1.38 1.18,-1.58 0.29,0.36 2.2,-2.92 1.84,-3.15 1.8,-3.84 2.51,-7.39 1.02,-5.08 0.12,-10.94 -3.75,-14.43 -0.06,-0.05 -0.23,-0.2 -0.28,-0.25 -0.29,-0.27 -0.25,-0.23 -0.39,-0.39z"/>
   <path fill="#2A4717" d="M77.98 133.3c-3.23,5.12 -3.62,8.88 -2.61,15 0.51,3.15 2.01,7.61 4.05,9.9 0.53,0.59 0.56,0.41 1.1,1.3 1.61,2.67 1.35,1.29 1.96,2.61 0.42,0.91 -0.04,0.86 0.91,1.5 2.14,1.42 1.2,-0.12 2.75,2.13l5.15 4.24c8.41,5.08 8.32,6.21 14.72,-0.67 0.71,-0.77 1.21,-1.68 2.11,-2.7 0.8,-0.89 1.07,-1.72 1.87,-2.7 0.59,-0.72 0.53,-0.46 1.02,-1.4 1.61,-3.04 1.54,-2.08 2.48,-4.5 0.24,-0.6 2.46,-4.83 2.85,-6.53 0.61,-2.69 1.35,-4.61 1.18,-8.27 -0.19,-4.27 -0.97,-7.3 -3.58,-10.7 -2.66,-3.45 -1.5,-2.09 -5.24,-4.12 -2.3,-1.24 -3.89,-3.08 -7.05,-2.74l-1.62 4.41c-3.22,5.76 -3.03,4.7 -6.08,8.68 -3.91,5.12 -6.09,1.39 -12.57,-2.9 -0.96,-0.63 -2.21,-2.01 -3.4,-2.54z"/>
   <path fill="#A55137" d="M61.64 155.19c-0.45,5.64 -0.23,3.9 -1.66,8.63 -0.98,3.23 -0.36,-0.48 -1.77,3.28 -0.48,1.28 -0.07,0.42 -0.86,1.1 -0.94,0.8 -1.45,1.91 -2.45,2.65 -1.97,1.46 -1.43,1.69 -2.76,2.62 0.89,-0.25 0.42,-0.26 1.08,2.61 0.29,1.25 0.41,1.81 0.47,2.9 0.04,0.74 1.34,5.27 1.67,5.98 1.63,0.49 41.3,0.13 46.66,0.16l2.9 -12.58c-2.76,0.21 -1.83,4.23 -9.19,1.26l-5.89 -3.72c-3.38,-2.42 -3.05,-2.52 -5.87,-5.14l-2.26 -2.6c-2.2,-2.13 -0.55,0.04 -2.22,-2.6 -0.39,-0.63 -0.16,-0.18 -0.81,-0.8 -0.65,-0.62 -0.84,-1.15 -1.19,-2.02 -0.42,-1.03 -0.44,-1.41 -1.76,-1.5 1.18,-0.2 0.8,0.05 0.39,-0.6 -0.49,0.62 -2.77,0.38 -3.47,0.38l-11.01 -0.01z"/>
   <path fill="#2A4717" d="M41.81 135.65c-0.94,-0.67 -0.95,-0.24 -1.97,-1.24 -3.04,-2.99 -2.58,-8.14 -0.29,-11.69 1.3,-2 2.32,-1.45 3.48,-2.6 -0.37,-1.12 -1.07,-1.67 -1.25,-2.7 -0.23,-1.31 0.13,-2.7 -0.01,-3.97 -2.01,-1.64 -6.86,-2.6 -9.7,-3.48 -3.57,-1.1 -8.59,-0.67 -12.53,-0.48 -2.78,0.15 -3.15,0.16 -4.95,1.45l-2.33 1.95c-1.47,1.21 -2.87,2.23 -3.58,5.28 -0.48,2.08 -0.84,3.72 -0.78,5.98 0.09,4.12 0.34,7.75 1.63,11.56 1.32,3.87 3.18,4.06 9.17,3.44 4.04,-0.42 8.08,-0.58 12.04,-0.99 2.45,-0.24 9.29,-1.47 11.07,-2.51z"/>
   <path fill="#2A4717" d="M109.24 111.02c-1.97,-0.28 -3.34,-2.15 -6.22,-1.03 -0.92,0.36 -0.95,1.22 -1.55,2.15 -0.81,1.26 -1.25,0.98 -2.14,1.8 -0.33,1.97 0.37,4.5 1.22,5.95 0.21,0.36 0.47,0.63 0.69,0.92 3.17,4.22 1.55,1.86 4.55,4.61 0.97,0.89 5.84,3.37 6.96,4.01 2.5,1.42 7.69,2.83 10.59,3.89 6.07,2.23 6.22,1.7 9.14,-6.83 0.21,-0.62 0.39,-0.87 0.54,-1.38 0.47,-1.57 0.92,-5.77 0.59,-7.92 -0.25,-1.65 -0.98,-4.09 -1.85,-5.41l-3.37 -3.88c-4.66,-3.8 -11.8,-4.4 -16.55,-1.48 -2.04,1.25 -2.56,1.72 -2.6,4.6z"/>
   <path fill="#6A7D54" d="M77.98 133.3c1.19,0.53 2.44,1.91 3.4,2.54 6.48,4.29 8.66,8.02 12.57,2.9 3.05,-3.98 2.86,-2.92 6.08,-8.68l1.62 -4.41c3.16,-0.34 4.75,1.5 7.05,2.74 3.74,2.03 2.58,0.67 5.24,4.12 2.61,3.4 3.39,6.43 3.58,10.7 0.17,3.66 -0.57,5.58 -1.18,8.27 -0.39,1.7 -2.61,5.93 -2.85,6.53 -0.94,2.42 -0.87,1.46 -2.48,4.5 -0.49,0.94 -0.43,0.68 -1.02,1.4 -0.8,0.98 -1.07,1.81 -1.87,2.7 -0.9,1.02 -1.4,1.93 -2.11,2.7 -6.4,6.88 -6.31,5.75 -14.72,0.67l-5.15 -4.24c-1.55,-2.25 -0.61,-0.71 -2.75,-2.13 -0.95,-0.64 -0.49,-0.59 -0.91,-1.5 -0.61,-1.32 -0.35,0.06 -1.96,-2.61 -0.54,-0.89 -0.57,-0.71 -1.1,-1.3 -2.04,-2.29 -3.54,-6.75 -4.05,-9.9 -1.01,-6.12 -0.62,-9.88 2.61,-15zm-62.19 7.05c3.66,-0.4 9.46,-0.54 12.52,-0.97 1.44,-0.2 1.21,-0.03 1.53,0.22 -2.67,1.13 -5,3.88 -6.88,6.01l-2.45 4c-0.38,0.81 -1.01,3.31 -1.84,4.43 -1.24,-4.1 -4.05,-9.17 -2.88,-13.69zm99.28 17.1c0.31,-0.88 0.68,-2.03 1.18,-3.13 1.21,-2.71 2.5,-7.47 2.28,-10.5 -0.16,-2.17 -0.17,-5.16 -1.02,-7.06 -1.3,-2.88 -2.88,-4.86 -3.15,-5.52 3.43,1.16 9.72,3.82 13.14,4.08 2.95,0.23 2.01,-0.99 3.43,-1.79 1.43,3.66 2.51,6.73 2.17,11.29 -0.3,4.05 -1.65,6.83 -3.11,10.31 -0.86,2.04 -3.27,5.59 -5.07,6.81 -2.51,1.72 -8.45,-3.26 -9.85,-4.49zm-5.83 -46.43c0.04,-2.88 0.56,-3.35 2.6,-4.6 4.75,-2.92 11.89,-2.32 16.55,1.48l3.37 3.88c0.87,1.32 1.6,3.76 1.85,5.41 0.33,2.15 -0.12,6.35 -0.59,7.92 -0.15,0.51 -0.33,0.76 -0.54,1.38 -2.92,8.53 -3.07,9.06 -9.14,6.83 -2.9,-1.06 -8.09,-2.47 -10.59,-3.89 -1.12,-0.64 -5.99,-3.12 -6.96,-4.01 -3,-2.75 -1.38,-0.39 -4.55,-4.61 -0.22,-0.29 -0.48,-0.56 -0.69,-0.92 -0.85,-1.45 -1.55,-3.98 -1.22,-5.95 0.89,-0.82 1.33,-0.54 2.14,-1.8 0.6,-0.93 0.63,-1.79 1.55,-2.15 2.88,-1.12 4.25,0.75 6.22,1.03zm-57.41 62.71l0.31 -0.26c1.33,-0.93 0.79,-1.16 2.76,-2.62 1,-0.74 1.51,-1.85 2.45,-2.65 0.79,-0.68 0.38,0.18 0.86,-1.1 1.41,-3.76 0.79,-0.05 1.77,-3.28 1.43,-4.73 1.21,-2.99 1.66,-8.63l0.04 -1.87c0.2,-0.55 -1.07,-1.86 0.23,-3.35 1.23,0.56 -0.26,0.54 1.24,1.16 1.49,0.62 3.23,-0.9 4.79,-1.87 3.04,-1.89 1.62,-0.47 3.81,-2.39 0.92,-0.81 0.94,-0.99 1.92,-1.17 0.66,1.28 0.68,2.22 0.82,3.96 0.15,1.92 1.02,2.19 1.07,3.75l0.56 1.41c0.41,0.65 0.79,0.4 -0.39,0.6 1.32,0.09 1.34,0.47 1.76,1.5 0.35,0.87 0.54,1.4 1.19,2.02 0.65,0.62 0.42,0.17 0.81,0.8 1.67,2.64 0.02,0.47 2.22,2.6l2.26 2.6c2.82,2.62 2.49,2.72 5.87,5.14l5.89 3.72c7.36,2.97 6.43,-1.05 9.19,-1.26 0.2,-0.67 0.19,-0.68 0.51,-1.15 0.92,-1.38 0.52,-0.68 0.79,-0.45 1.33,-2.14 2.7,-3.67 4.36,-6.18l3.96 -6.29c1.41,0.66 1.12,0.95 2.34,1.76 0.89,0.59 1.42,1.05 2.27,1.47 1.29,0.63 3.95,2.1 5.65,1.45 1.31,-0.5 3.17,-2.82 3.97,-3.83 1.99,-2.48 3.7,-7.49 4.68,-10.64 0.42,-1.37 0.82,-5.23 0.69,-6.8 -0.44,-5.49 -1.41,-5.76 -2.54,-9.06 -0.68,-2 4.18,-8.25 2.97,-15.61 -0.29,-1.78 -1,-4.46 -1.89,-5.83 -1.56,-2.41 -1.37,-1.79 -2.56,-3.08 -6.97,-7.65 -20.3,-5.07 -21.88,1.15 -2.34,-0.64 -2.2,-0.83 -5.06,-0.57l2.5 -6.59c2.39,0.28 5.59,0.13 8.06,0.07 2.18,-0.06 5.03,-0.03 5.93,-1.81 2.13,-4.16 1.58,-10.47 -0.57,-14.81 -1.46,-2.95 -4.37,-5.16 -7.58,-6.13 -7.09,-2.15 -10.53,0.85 -13.04,1.08l0.49 1.07c4.46,-1.64 7.14,-2.83 12.21,-1.17 10.82,3.56 9.54,16.59 7.56,19.56 -1.22,1.83 -10.43,1.34 -12.9,1.17 -0.07,-3.86 -0.12,-4.63 -3.55,-5.99l-0.94 0.04 -0.11 0.91c5.11,0.4 3.63,4.89 2.6,8.03 -0.58,1.79 -2.84,7.12 -4.02,8.26 -1.25,0.52 -5.38,-1.7 -6.72,-2.18 -4.68,-1.71 -9.6,-1.91 -14.68,-2.72 -2.38,-0.39 -5.19,-0.23 -6.35,-1.96 -1.67,-0.1 -0.65,0.09 -1.11,-0.61 -0.16,0.3 -0.17,0.16 -0.17,0.74 0,0.5 -0.05,-0.01 0.07,0.43 0.21,0.8 -0.1,-0.14 0.45,0.7 1.91,0.9 0.86,0.75 3.81,1.2 1.59,0.24 2.88,0.42 4.45,0.74 -1.73,1.81 -3.13,3.85 -6.09,4.57 -0.27,0.13 -0.28,0.02 -0.38,0.36l0.04 0.56c0,-0.05 0.01,0.17 0.07,0.22 1.76,-0.37 3.99,-1.36 4.71,-2.69l1.89 -0.21c-0.67,-1.68 1.1,-2.52 1.71,-2.56 2.94,-0.23 12.1,2.09 15.17,3.84 0.04,0.03 0.11,0.06 0.16,0.09 0.04,0.03 0.11,0.08 0.15,0.11 1.37,1.19 1.47,4.29 2.3,6.05 1.56,3.32 1.89,4.29 0.45,8.86 -0.38,1.24 -1.19,2.78 -1.86,3.83 -1.64,2.53 -3.22,4.25 -4.88,6.38 -0.77,0.98 -1.79,2.22 -3.27,1.81 -1.56,-0.44 -5.31,-3.17 -6.7,-4.33 -1.85,-1.56 -4.55,-2.92 -6.07,-4.94l-0.86 0.56 1.04 1.05c-0.35,1.27 -3.9,5.74 -3.27,11.55 -0.54,0.56 -0.63,0.44 -1.18,0.84l-3.55 2.62c-5.88,4.09 -5.39,3.48 -8.6,-1 -1.12,-1.57 -1.76,-2.66 -2.39,-4.52 -0.71,0.61 -1.34,0.7 -2.19,1.33 0.14,0.16 0.1,0.12 0.39,0.39 0.05,0.05 0.22,0.2 0.28,0.25 3.87,3.49 4.77,9.35 3.75,14.43 -0.71,3.55 -0.67,4.24 -2.51,7.39 -1.91,3.28 -1.02,1.34 -2.2,2.92 -0.51,0.7 -0.49,0.89 -1.05,1.38l-5.68 4.26c-0.76,0.33 -1.01,0.35 -1.64,0.76 -2.26,1.46 -4.47,2.05 -6.78,3.13 -3.2,1.49 -8.45,2.72 -11.98,3.06 -2.43,0.24 -2.45,0.36 -3.58,-1.11 -1.4,-1.83 -2.38,-4.33 -3.26,-6.67 -0.96,-2.54 -1.09,-5.34 -1.81,-8.11 -0.83,-3.18 -0.34,-5.48 -0.4,-7.09 -0.03,-0.65 -0.17,-1.43 -0.2,-2.18 -0.07,-2.47 3.38,-8.8 4.72,-10.21 1.22,-1.29 0.9,-1.47 2.33,-2.53 0.91,-0.68 3.27,-3.16 5.7,-4.26 0.54,-0.25 3.38,-0.81 4.14,-0.93 2.84,-0.45 6.13,-1.71 7.98,-1.59 2.68,0.17 0.99,1.67 2.01,2.59 -0.35,-1.03 -0.1,-1.83 -0.65,-2.97 -0.69,-0.46 -2.88,-0.85 -3.72,-0.55 -1.78,1.04 -8.62,2.27 -11.07,2.51 -3.96,0.41 -8,0.57 -12.04,0.99 -5.99,0.62 -7.85,0.43 -9.17,-3.44 -1.29,-3.81 -1.54,-7.44 -1.63,-11.56 -0.06,-2.26 0.3,-3.9 0.78,-5.98 0.71,-3.05 2.11,-4.07 3.58,-5.28l2.33 -1.95c1.8,-1.29 2.17,-1.3 4.95,-1.45 3.94,-0.19 8.96,-0.62 12.53,0.48 2.84,0.88 7.69,1.84 9.7,3.48 0.67,-0.45 0.38,0.02 0.58,-1.15 -0.57,-0.18 -4.98,-1.83 -5.44,-2.11l0.71 -1.45c0.4,-0.79 0.36,-0.81 0.86,-1.31 1.67,-1.7 2.22,-2.59 4.73,-3.89 0.66,-0.34 0.74,-0.53 1.34,-0.79 4.53,-1.95 13.37,-0.55 15.02,2.6 -0.25,0.3 -0.16,0.16 -0.49,0.41 -1.11,0.86 -0.5,-0.38 -0.86,0.93 0.49,-0.56 0.57,-0.41 1.25,-0.82 0.92,-0.57 0.17,-0.32 1.37,-0.84 -1.99,-2.15 -5.27,-3.78 -9.1,-4.09 -7.59,-0.6 -8.38,2.11 -10.05,1.89 -0.64,-3 -0.74,-11.33 -0.25,-14.39 0.51,-3.14 2.63,-9.06 4.61,-10.23 6.83,-4.01 17.7,-1.37 23.37,2.52 1.45,-0.22 0.5,0.23 0.89,-0.62 -6.1,-4.4 -19.43,-7.19 -25.16,-2.26 -0.88,0.75 -1.27,1.54 -1.91,2.39 -1.28,1.71 -2.61,6.94 -2.8,9.26 -0.51,6.17 0.07,8.97 0.44,14.45 -0.51,0.41 -1.17,0.71 -1.71,1.22 -1.94,1.84 -2.62,3.98 -3.57,4.76 -6.62,-1 -7.75,-2.12 -15.85,-1.38 -3.09,0.29 -6.95,2.05 -8.98,4.19 -3.87,4.05 -4.51,11.39 -3.52,17.48 1.15,6.98 1.87,9.95 7.39,10.09 0,5.3 0.95,8.88 3,13.61 2.2,5.09 -0.66,11.77 4.39,22.99 1.18,2.61 2.39,5.62 5.46,5.44 6.85,-0.38 12.94,-3.01 19.07,-5.65l3.49 -1.83c0.83,-0.58 0.62,-0.74 1.78,-1.14z"/>
   <path fill="#2A4717" d="M60.84 105.03c1.74,-0.53 3.57,-0.91 5.86,-0.52 0.94,0.16 2.08,0.4 2.77,0.77 0.76,0.42 1.36,1.11 1.84,1.69 -0.55,-0.84 -0.24,0.1 -0.45,-0.7 -0.12,-0.44 -0.07,0.07 -0.07,-0.43 0,-0.58 0.01,-0.44 0.17,-0.74 -1.85,0.55 -2.69,-1.43 -3.64,-2.13 -0.96,-0.71 -0.27,0.31 -0.97,-1.04 -1.81,-3.51 -0.44,-4.86 -0.43,-6.49 -3.25,-1.71 -6.28,-4.02 -4.85,-8.92 1.81,-6.22 7.17,-5.34 8.35,-5.79 -5.67,-3.89 -16.54,-6.53 -23.37,-2.52 -1.98,1.17 -4.1,7.09 -4.61,10.23 -0.49,3.06 -0.39,11.39 0.25,14.39 1.67,0.22 2.46,-2.49 10.05,-1.89 3.83,0.31 7.11,1.94 9.1,4.09z"/>
   <path fill="#2A4717" d="M73.21 114.62c-0.51,0.28 -0.33,0.09 -0.57,0.69 3.85,1.51 4.05,1.05 6.14,6.21 1.76,4.32 -0.09,6.5 -1.81,9.34 1.52,2.02 4.22,3.38 6.07,4.94 1.39,1.16 5.14,3.89 6.7,4.33 1.48,0.41 2.5,-0.83 3.27,-1.81 1.66,-2.13 3.24,-3.85 4.88,-6.38 0.67,-1.05 1.48,-2.59 1.86,-3.83 1.44,-4.57 1.11,-5.54 -0.45,-8.86 -0.83,-1.76 -0.93,-4.86 -2.3,-6.05 -0.04,-0.03 -0.11,-0.08 -0.15,-0.11 -0.05,-0.03 -0.12,-0.06 -0.16,-0.09 -3.07,-1.75 -12.23,-4.07 -15.17,-3.84 -0.61,0.04 -2.38,0.88 -1.71,2.56l-1.89 0.21c-0.72,1.33 -2.95,2.32 -4.71,2.69z"/>
   <path fill="#E39AF3" d="M84.38 88.06c0.66,1.49 0.35,0.79 0.52,2.79 -1.33,1.27 -0.97,1.77 -3.64,1.9 -2.65,0.13 -2.76,-0.08 -4.38,-1.63l-0.02 -1.31 -2.93 -3.45c-0.4,-0.49 -1.06,-1.4 -1.46,-1.77 -3.73,-3.46 -8.22,-1.79 -9.45,2.27 -1.33,4.36 1.76,6.07 4.82,7.17 6.09,2.18 9.29,-0.52 10.37,0.85 -2.44,2.52 -12.04,-1.72 -10.74,4.92 0.34,1.69 1.24,2.33 2.36,3.02 2.28,1.41 6.45,2.05 8.49,0.15 3.3,-3.09 0.99,-7.18 2.66,-7.75 0.84,1.26 -0.24,4.27 0.46,6.6 0.94,3.16 12.24,-0.8 11.1,-3.33 -0.33,-0.83 0.09,-0.55 -1.1,-0.94 -1.92,-0.63 -8.21,-1.17 -8.82,-3.48 0.73,-0.55 0.11,-0.19 0.97,-0.34 0.94,-0.17 1.75,0.03 2.76,0.12 3.62,0.3 11.98,0.22 12.48,0.3 -1.16,0.55 -9.39,0.23 -11.42,0.09l-2.9 -0.16c-0.82,0.2 -0.11,-0.15 -0.68,0.33 2.79,0.9 11.17,4.23 14.5,1.43 1.04,-0.87 2.27,-1.66 1.92,-3.89 -0.28,-1.71 -1.57,-2.22 -3.4,-2.54 -2.05,-0.36 -2.8,0.09 -4.69,0.81 -1.41,0.55 -7.16,3.23 -8.21,2.78 0.18,-1.02 -0.4,-0.29 0.73,-0.86l7.95 -3.05c2.44,-0.89 2.63,-0.31 3.63,-2.56 3.7,-8.35 -5.09,-9.12 -8.27,-7.47 -1.64,0.85 -2.18,1.77 -2.51,3.66 -0.32,1.82 -0.82,3.57 -1.1,5.34z"/>
   <path fill="#2A4717" d="M115.07 157.45c1.4,1.23 7.34,6.21 9.85,4.49 1.8,-1.22 4.21,-4.77 5.07,-6.81 1.46,-3.48 2.81,-6.26 3.11,-10.31 0.34,-4.56 -0.74,-7.63 -2.17,-11.29 -1.42,0.8 -0.48,2.02 -3.43,1.79 -3.42,-0.26 -9.71,-2.92 -13.14,-4.08 0.27,0.66 1.85,2.64 3.15,5.52 0.85,1.9 0.86,4.89 1.02,7.06 0.22,3.03 -1.07,7.79 -2.28,10.5 -0.5,1.1 -0.87,2.25 -1.18,3.13z"/>
   <path fill="#A55137" d="M105.77 192.44c0.31,-1.68 2.68,-5.89 -0.19,-6.37l-45.28 0c-7.84,0.04 -10.92,-1.17 -9.99,3.4 0.38,1.9 0.25,0.78 1.01,2.18 0.21,0.38 0.2,0.47 0.32,0.72l54.13 0.07z"/>
   <path fill="#2A4717" d="M98.97 81.76c-0.07,1.14 0.06,2.19 -0.19,3.27 -0.22,0.91 -0.56,1.57 -0.63,2.6 0.74,0.41 1.57,0.59 2.21,1 2.33,1.49 1.7,5.41 1.83,6.38 0,0.06 0.05,0.25 0.1,0.32 3.43,1.36 3.48,2.13 3.55,5.99 2.47,0.17 11.68,0.66 12.9,-1.17 1.98,-2.97 3.26,-16 -7.56,-19.56 -5.07,-1.66 -7.75,-0.47 -12.21,1.17z"/>
   <path fill="#773885" d="M61.09 121.96c0.31,0.6 0.1,0.51 0.75,0.89 2.29,-0.82 4.82,-2.01 6.83,-3.49 0.61,-0.45 1.44,-1.4 1.84,-1.65 5.87,-3.56 12.06,13.21 0.26,13.1 -2.58,-0.02 -2.95,-0.98 -4.97,-1.95 -1.4,-0.67 -3.45,-1.65 -4.48,-2.73 -0.31,-0.12 0.29,-0.32 -0.76,-0.11 -1.17,0.23 -0.6,-0.02 -0.88,0.57 1.08,0.45 8.32,4.38 9.04,5.01 1.92,1.7 1.08,7.67 -3.05,9.3l-6.24 -14.08 -0.48 0.23c2.49,3.9 4.86,9.16 6.37,14.03 -3.06,0.19 -6.46,-0.54 -6.36,-4.3 0.08,-3.21 -0.88,-6.88 -0.81,-9.76 -0.36,-0.94 0.03,-0.25 -0.53,-0.48l-0.55 0.69c0.95,3.71 2.76,13.21 -2.43,14.37 -1.93,0.43 -4.02,0.03 -5.23,-0.93 -1.96,-1.57 -3.13,-5.61 -0.15,-8.22l4.7 -4.44c0.69,-0.6 1.05,-0.71 1.81,-1.47 0.01,-1.24 0,-0.45 -0.3,-0.74l-0.77 0.18c-0.38,0.73 -3.49,3.22 -4.57,4.67 -0.91,1.22 -0.03,0.71 -1.61,1.58 -1.51,0.82 -1.98,1.65 -4.59,1.57 -1.93,-0.06 -3.1,-0.6 -3.81,-2.36 -1.29,-3.17 0.37,-7.84 2.49,-8.87 2.81,-1.35 7.53,0.75 10.54,1.46 0.05,-0.06 0.12,-0.23 0.12,-0.2 0.01,0.04 0.08,-0.16 0.08,-0.23 0.05,-0.37 0.05,-0.15 0,-0.6 -1.85,-0.2 -5.3,-0.82 -6.64,-2.18 -2.09,-2.13 -5.33,-5.19 -1.03,-9.68 2.46,-2.57 4.83,-3.16 8.4,-0.64 1.65,1.16 2.38,1.73 2.42,3.42 0.04,1.89 0.22,3.93 0.2,5.72 0.24,0.17 -0.28,0.36 0.63,0.18 0.91,-0.18 0.04,0.45 0.4,-0.3 -0.42,-3.67 -0.53,-8.7 1.54,-11.17 2.35,-2.82 10.25,-3.1 11.6,1.19 0.38,1.22 0.49,1.6 0.32,2.93 -0.28,2.16 -0.27,2.93 -1.49,4.69 -1.28,1.82 -6.09,4.33 -8.61,4.8zm-0.25 -16.93c-1.2,0.52 -0.45,0.27 -1.37,0.84 -0.68,0.41 -0.76,0.26 -1.25,0.82 -1.39,1.26 -1.01,0.84 -1.8,2.84 -1.5,-0.36 -6.46,-5.5 -11.61,-0.35 -1.05,1.04 -1.72,2.61 -2.46,3.12 -0.2,1.17 0.09,0.7 -0.58,1.15 0.14,1.27 -0.22,2.66 0.01,3.97 0.18,1.03 0.88,1.58 1.25,2.7 -1.16,1.15 -2.18,0.6 -3.48,2.6 -2.29,3.55 -2.75,8.7 0.29,11.69 1.02,1 1.03,0.57 1.97,1.24 0.84,-0.3 3.03,0.09 3.72,0.55 0.55,1.14 0.3,1.94 0.65,2.97 0.77,2.81 3.78,4.86 6.6,4.56 1.24,-0.13 2.08,-0.28 3.19,-0.44 0.85,-0.63 1.48,-0.72 2.19,-1.33 0.21,-0.51 -0.26,-0.21 0.53,-0.65 0.33,0.13 4.72,2.69 6.92,1.83 2.88,-1.14 2.7,-1.08 4.78,-4.59 2.46,-4.13 -0.23,-4.66 2.28,-5.86l3.44 -1.27 0.86 -0.56c1.72,-2.84 3.57,-5.02 1.81,-9.34 -2.09,-5.16 -2.29,-4.7 -6.14,-6.21 0.24,-0.6 0.06,-0.41 0.57,-0.69 -0.06,-0.05 -0.07,-0.27 -0.07,-0.22l-0.04 -0.56c0.1,-0.34 0.11,-0.23 0.38,-0.36 -0.82,0.05 0.02,-2.14 -0.46,-3.69 0,-0.03 -0.54,-1.19 -0.67,-1.44 -0.45,-0.9 -0.47,-0.65 -1.04,-1.38 -0.48,-0.58 -1.08,-1.27 -1.84,-1.69 -0.69,-0.37 -1.83,-0.61 -2.77,-0.77 -2.29,-0.39 -4.12,-0.01 -5.86,0.52z"/>
   <path fill="#773885" d="M83.37 87.35c0.13,0.87 0.21,0.91 1.01,0.71 0.28,-1.77 0.78,-3.52 1.1,-5.34 0.33,-1.89 0.87,-2.81 2.51,-3.66 3.18,-1.65 11.97,-0.88 8.27,7.47 -1,2.25 -1.19,1.67 -3.63,2.56l-7.95 3.05c-1.13,0.57 -0.55,-0.16 -0.73,0.86 1.05,0.45 6.8,-2.23 8.21,-2.78 1.89,-0.72 2.64,-1.17 4.69,-0.81 1.83,0.32 3.12,0.83 3.4,2.54 0.35,2.23 -0.88,3.02 -1.92,3.89 -3.33,2.8 -11.71,-0.53 -14.5,-1.43 0.57,-0.48 -0.14,-0.13 0.68,-0.33l2.9 0.16c2.03,0.14 10.26,0.46 11.42,-0.09 -0.5,-0.08 -8.86,0 -12.48,-0.3 -1.01,-0.09 -1.82,-0.29 -2.76,-0.12 -0.86,0.15 -0.24,-0.21 -0.97,0.34 0.61,2.31 6.9,2.85 8.82,3.48 1.19,0.39 0.77,0.11 1.1,0.94 1.14,2.53 -10.16,6.49 -11.1,3.33 -0.7,-2.33 0.38,-5.34 -0.46,-6.6 -1.67,0.57 0.64,4.66 -2.66,7.75 -2.04,1.9 -6.21,1.26 -8.49,-0.15 -1.12,-0.69 -2.02,-1.33 -2.36,-3.02 -1.3,-6.64 8.3,-2.4 10.74,-4.92 -1.08,-1.37 -4.28,1.33 -10.37,-0.85 -3.06,-1.1 -6.15,-2.81 -4.82,-7.17 1.23,-4.06 5.72,-5.73 9.45,-2.27 0.4,0.37 1.06,1.28 1.46,1.77l2.93 3.45c0.45,-0.5 0.17,0.18 0.37,-0.59 0.03,-0.15 0.04,-0.6 0.04,-0.77 -2.01,-1.18 -4.22,-4.29 -4.66,-6.74 -1.61,-8.99 9.53,-9.5 11.32,-3.25 0.81,2.8 0.93,6.33 -0.56,8.89zm-13.06 -7.24c-0.39,0.85 0.56,0.4 -0.89,0.62 -1.18,0.45 -6.54,-0.43 -8.35,5.79 -1.43,4.9 1.6,7.21 4.85,8.92 -0.01,1.63 -1.38,2.98 0.43,6.49 0.7,1.35 0.01,0.33 0.97,1.04 0.95,0.7 1.79,2.68 3.64,2.13 0.46,0.7 -0.56,0.51 1.11,0.61 2.48,0.61 3.95,0.41 6.24,-0.56 1.4,-0.59 0.75,-0.3 1.59,-1.11 2.77,0.07 3.36,1.68 9.19,-0.19 1.22,-0.39 2.38,-0.95 3.38,-1.76 0.4,-0.33 1.06,-0.94 1.38,-1.29 0.78,-0.82 0.44,-0.82 0.85,-1.87 5.11,-0.57 4.53,-2.01 6.54,-2.65l0.11 -0.91 0.94 -0.04c-0.05,-0.07 -0.1,-0.26 -0.1,-0.32 -0.13,-0.97 0.5,-4.89 -1.83,-6.38 -0.64,-0.41 -1.47,-0.59 -2.21,-1 0.07,-1.03 0.41,-1.69 0.63,-2.6 0.25,-1.08 0.12,-2.13 0.19,-3.27l-0.49 -1.07c-0.64,-2.26 -2.58,-3.65 -5.19,-4.05 -3.71,-0.56 -5.01,-0.01 -7.4,1.53 -3.09,-8.46 -13.19,-6.61 -14.89,-1.05l-0.69 2.99z"/>
   <path fill="#2A4717" d="M72.07 105.71c1.16,1.73 3.97,1.57 6.35,1.96 5.08,0.81 10,1.01 14.68,2.72 1.34,0.48 5.47,2.7 6.72,2.18 1.18,-1.14 3.44,-6.47 4.02,-8.26 1.03,-3.14 2.51,-7.63 -2.6,-8.03 -2.01,0.64 -1.43,2.08 -6.54,2.65 -0.41,1.05 -0.07,1.05 -0.85,1.87 -0.32,0.35 -0.98,0.96 -1.38,1.29 -1,0.81 -2.16,1.37 -3.38,1.76 -5.83,1.87 -6.42,0.26 -9.19,0.19 -0.84,0.81 -0.19,0.52 -1.59,1.11 -2.29,0.97 -3.76,1.17 -6.24,0.56z"/>
   <path fill="#45170A" d="M52.01 192.93l53.39 0.03c-0.77,1.59 -1.12,1.24 -3.2,1.23l-47.01 -0.02c-2.12,0.01 -2.5,0.43 -3.18,-1.24zm53.76 -0.49l-54.13 -0.07c-0.12,-0.25 -0.11,-0.34 -0.32,-0.72 -0.76,-1.4 -0.63,-0.28 -1.01,-2.18 -0.93,-4.57 2.15,-3.36 9.99,-3.4l45.28 0c2.87,0.48 0.5,4.69 0.19,6.37zm-0.85 -19.9l-2.9 12.58c-5.36,-0.03 -45.03,0.33 -46.66,-0.16 -0.33,-0.71 -1.63,-5.24 -1.67,-5.98 -0.06,-1.09 -0.18,-1.65 -0.47,-2.9 -0.66,-2.87 -0.19,-2.86 -1.08,-2.61l-0.31 0.26c0.01,3.03 1.97,8.08 2.43,11.43 -4.37,-0.09 -5.83,0.43 -4.37,5.23 1.21,3.95 1.31,4.8 5.58,4.77l40.54 0.02c2.2,-0.01 8.49,0.55 9.61,-0.75 1.51,-1.74 2.26,-5.17 1.9,-7.98 -1.51,-1.61 -2.12,-1.09 -4.43,-1.4l3.13 -14.11c-0.27,-0.23 0.13,-0.93 -0.79,0.45 -0.32,0.47 -0.31,0.48 -0.51,1.15z"/>
   <path fill="#E39AF3" d="M57.73 119.52l0.43 1.12 2.13 -0.27 0.8 1.59c2.52,-0.47 7.33,-2.98 8.61,-4.8 1.22,-1.76 1.21,-2.53 1.49,-4.69 0.17,-1.33 0.06,-1.71 -0.32,-2.93 -1.35,-4.29 -9.25,-4.01 -11.6,-1.19 -2.07,2.47 -1.96,7.5 -1.54,11.17z"/>
   <path fill="#E39AF3" d="M61.84 122.85l-0.03 1.26c-1.04,0.39 -0.26,-0.19 -0.27,0.52 0,0.28 -0.22,1.17 -0.22,1.5 1.03,1.08 3.08,2.06 4.48,2.73 2.02,0.97 2.39,1.93 4.97,1.95 11.8,0.11 5.61,-16.66 -0.26,-13.1 -0.4,0.25 -1.23,1.2 -1.84,1.65 -2.01,1.48 -4.54,2.67 -6.83,3.49z"/>
   <path fill="#E39AF3" d="M53.35 123l0.4 -0.89c0.9,-2.33 -0.31,-1.11 1.89,-1.84 0.47,-0.15 0.68,-0.33 1.06,-0.63 0.02,-1.79 -0.16,-3.83 -0.2,-5.72 -0.04,-1.69 -0.77,-2.26 -2.42,-3.42 -3.57,-2.52 -5.94,-1.93 -8.4,0.64 -4.3,4.49 -1.06,7.55 1.03,9.68 1.34,1.36 4.79,1.98 6.64,2.18z"/>
   <path fill="#E39AF3" d="M77.27 88.45l2.07 -1.12c1.18,-0.53 3.27,-0.32 4.03,0.02 1.49,-2.56 1.37,-6.09 0.56,-8.89 -1.79,-6.25 -12.93,-5.74 -11.32,3.25 0.44,2.45 2.65,5.56 4.66,6.74z"/>
   <path fill="#E39AF3" d="M54.7 125.98c-0.56,-0.89 -0.36,-1.62 -1.55,-1.95 -3.01,-0.71 -7.73,-2.81 -10.54,-1.46 -2.12,1.03 -3.78,5.7 -2.49,8.87 0.71,1.76 1.88,2.3 3.81,2.36 2.61,0.08 3.08,-0.75 4.59,-1.57 1.58,-0.87 0.7,-0.36 1.61,-1.58 1.08,-1.45 4.19,-3.94 4.57,-4.67z"/>
   <path fill="#2A4717" d="M58.16 141.96c0.63,1.86 1.27,2.95 2.39,4.52 3.21,4.48 2.72,5.09 8.6,1l3.55 -2.62c0.55,-0.4 0.64,-0.28 1.18,-0.84 -0.63,-5.81 2.92,-10.28 3.27,-11.55l-1.04 -1.05 -3.44 1.27c-2.51,1.2 0.18,1.73 -2.28,5.86 -2.08,3.51 -1.9,3.45 -4.78,4.59 -2.2,0.86 -6.59,-1.7 -6.92,-1.83 -0.79,0.44 -0.32,0.14 -0.53,0.65z"/>
   <path fill="#2A4717" d="M42.35 112.3c0.74,-0.51 1.41,-2.08 2.46,-3.12 5.15,-5.15 10.11,-0.01 11.61,0.35 0.79,-2 0.41,-1.58 1.8,-2.84 0.36,-1.31 -0.25,-0.07 0.86,-0.93 0.33,-0.25 0.24,-0.11 0.49,-0.41 -1.65,-3.15 -10.49,-4.55 -15.02,-2.6 -0.6,0.26 -0.68,0.45 -1.34,0.79 -2.51,1.3 -3.06,2.19 -4.73,3.89 -0.5,0.5 -0.46,0.52 -0.86,1.31l-0.71 1.45c0.46,0.28 4.87,1.93 5.44,2.11z"/>
   <path fill="#E39AF3" d="M57.07 127.23c-0.98,-0.02 -0.68,-0.28 -0.84,0.24l-0.46 -0.93c-0.76,0.76 -1.12,0.87 -1.81,1.47l-4.7 4.44c-2.98,2.61 -1.81,6.65 0.15,8.22 1.21,0.96 3.3,1.36 5.23,0.93 5.19,-1.16 3.38,-10.66 2.43,-14.37z"/>
   <path fill="#2A4717" d="M15.79 140.35c-1.17,4.52 1.64,9.59 2.88,13.69 0.83,-1.12 1.46,-3.62 1.84,-4.43l2.45 -4c1.88,-2.13 4.21,-4.88 6.88,-6.01 -0.32,-0.25 -0.09,-0.42 -1.53,-0.22 -3.06,0.43 -8.86,0.57 -12.52,0.97z"/>
   <path fill="#E39AF3" d="M59.68 126.59l-0.25 0.23 6.24 14.08c4.13,-1.63 4.97,-7.6 3.05,-9.3 -0.72,-0.63 -7.96,-4.56 -9.04,-5.01z"/>
   <path fill="#A55137" d="M52.01 192.93c0.68,1.67 1.06,1.25 3.18,1.24l47.01 0.02c2.08,0.01 2.43,0.36 3.2,-1.23l-53.39 -0.03z"/>
   <path fill="#A55137" d="M61.68 153.32l13.88 0.09c-0.05,-1.56 -0.92,-1.83 -1.07,-3.75 -0.14,-1.74 -0.16,-2.68 -0.82,-3.96 -0.98,0.18 -1,0.36 -1.92,1.17 -2.19,1.92 -0.77,0.5 -3.81,2.39 -1.56,0.97 -3.3,2.49 -4.79,1.87 -1.5,-0.62 -0.01,-0.6 -1.24,-1.16 -1.3,1.49 -0.03,2.8 -0.23,3.35z"/>
   <path fill="#E39AF3" d="M58.95 127.05l-0.8 -0.03c-0.07,2.88 0.89,6.55 0.81,9.76 -0.1,3.76 3.3,4.49 6.36,4.3 -1.51,-4.87 -3.88,-10.13 -6.37,-14.03z"/>
   <path fill="#FAD32B" d="M56.7 119.64c-0.38,0.3 -0.59,0.48 -1.06,0.63 -2.2,0.73 -0.99,-0.49 -1.89,1.84l-0.4 0.89c0.05,0.45 0.05,0.23 0,0.6 0,0.07 -0.07,0.27 -0.08,0.23 0,-0.03 -0.07,0.14 -0.12,0.2 1.19,0.33 0.99,1.06 1.55,1.95l0.77 -0.18c0.3,0.29 0.31,-0.5 0.3,0.74l0.46 0.93c0.16,-0.52 -0.14,-0.26 0.84,-0.24l0.55 -0.69c0.56,0.23 0.17,-0.46 0.53,0.48l0.8 0.03 0.48 -0.23 0.25 -0.23c0.28,-0.59 -0.29,-0.34 0.88,-0.57 1.05,-0.21 0.45,-0.01 0.76,0.11 0,-0.33 0.22,-1.22 0.22,-1.5 0.01,-0.71 -0.77,-0.13 0.27,-0.52l0.03 -1.26c-0.65,-0.38 -0.44,-0.29 -0.75,-0.89l-0.8 -1.59 -2.13 0.27 -0.43 -1.12c-0.36,0.75 0.51,0.12 -0.4,0.3 -0.91,0.18 -0.39,-0.01 -0.63,-0.18z"/>
   <path fill="#F3D012" d="M77.27 88.45c0,0.17 -0.01,0.62 -0.04,0.77 -0.2,0.77 0.08,0.09 -0.37,0.59l0.02 1.31c1.62,1.55 1.73,1.76 4.38,1.63 2.67,-0.13 2.31,-0.63 3.64,-1.9 -0.17,-2 0.14,-1.3 -0.52,-2.79 -0.8,0.2 -0.88,0.16 -1.01,-0.71 -0.76,-0.34 -2.85,-0.55 -4.03,-0.02l-2.07 1.12z"/>
   <path fill="#45170A" d="M61.64 155.19l11.01 0.01c0.7,0 2.98,0.24 3.47,-0.38l-0.56 -1.41 -13.88 -0.09 -0.04 1.87z"/>
   <path fill="#2A4717" d="M73.48 113.48c2.96,-0.72 4.36,-2.76 6.09,-4.57 -1.57,-0.32 -2.86,-0.5 -4.45,-0.74 -2.95,-0.45 -1.9,-0.3 -3.81,-1.2 0.57,0.73 0.59,0.48 1.04,1.38 0.13,0.25 0.67,1.41 0.67,1.44 0.48,1.55 -0.36,3.74 0.46,3.69z"/>
   <g>
    <path fill="#773885" d="M103.37 118.27c0.32,0.59 0.1,0.51 0.75,0.88 2.29,-0.82 4.83,-2 6.84,-3.48 0.61,-0.45 1.44,-1.41 1.84,-1.65 5.87,-3.56 12.05,13.2 0.26,13.1 -2.59,-0.02 -2.95,-0.98 -4.97,-1.95 -1.4,-0.67 -3.45,-1.65 -4.48,-2.73 -0.31,-0.12 0.28,-0.32 -0.77,-0.11 -1.16,0.23 -0.59,-0.03 -0.87,0.57 1.07,0.44 8.32,4.37 9.04,5.01 1.92,1.7 1.07,7.67 -3.05,9.29l-6.24 -14.07 -0.49 0.23c2.49,3.9 4.87,9.16 6.37,14.03 -3.06,0.18 -6.45,-0.54 -6.35,-4.3 0.08,-3.21 -0.89,-6.88 -0.81,-9.77 -0.37,-0.93 0.03,-0.24 -0.54,-0.47l-0.54 0.69c0.94,3.71 2.76,13.21 -2.44,14.36 -1.92,0.43 -4.02,0.04 -5.22,-0.92 -1.96,-1.58 -3.13,-5.62 -0.15,-8.22l4.7 -4.45c0.69,-0.6 1.04,-0.71 1.8,-1.46 0.02,-1.24 0.01,-0.46 -0.3,-0.74l-0.76 0.17c-0.39,0.73 -3.5,3.23 -4.57,4.67 -0.91,1.22 -0.03,0.71 -1.62,1.58 -1.5,0.83 -1.98,1.66 -4.58,1.58 -1.94,-0.06 -3.11,-0.61 -3.82,-2.36 -1.29,-3.18 0.37,-7.85 2.5,-8.87 2.8,-1.35 7.53,0.74 10.54,1.46 0.04,-0.07 0.11,-0.23 0.12,-0.2 0.01,0.03 0.07,-0.16 0.08,-0.23 0.04,-0.38 0.05,-0.15 0,-0.6 -1.86,-0.2 -5.31,-0.82 -6.64,-2.18 -2.1,-2.14 -5.34,-5.2 -1.03,-9.69 2.46,-2.56 4.82,-3.15 8.4,-0.64 1.65,1.17 2.37,1.74 2.41,3.43 0.05,1.89 0.22,3.93 0.21,5.71 0.23,0.17 -0.29,0.36 0.63,0.18 0.9,-0.18 0.04,0.46 0.4,-0.29 -0.43,-3.68 -0.53,-8.71 1.53,-11.18 2.35,-2.82 10.26,-3.1 11.6,1.2 0.39,1.22 0.5,1.6 0.32,2.93 -0.27,2.15 -0.27,2.93 -1.49,4.68 -1.27,1.83 -6.08,4.34 -8.61,4.81zm-0.25 -16.93c-1.19,0.51 -0.45,0.27 -1.37,0.83 -0.67,0.41 -0.75,0.27 -1.24,0.82 -1.39,1.26 -1.01,0.85 -1.81,2.85 -1.5,-0.36 -6.45,-5.51 -11.61,-0.35 -1.04,1.04 -1.71,2.61 -2.45,3.11 -0.21,1.17 0.09,0.7 -0.58,1.15 0.14,1.28 -0.23,2.66 0.01,3.98 0.18,1.02 0.88,1.57 1.25,2.7 -1.16,1.14 -2.18,0.6 -3.48,2.6 -2.3,3.55 -2.75,8.69 0.28,11.68 1.02,1.01 1.04,0.57 1.98,1.25 0.84,-0.3 3.03,0.09 3.72,0.54 0.55,1.14 0.29,1.95 0.65,2.98 0.77,2.8 3.78,4.85 6.6,4.56 1.24,-0.13 2.08,-0.28 3.18,-0.45 0.86,-0.63 1.49,-0.71 2.2,-1.33 0.21,-0.51 -0.26,-0.2 0.53,-0.65 0.33,0.13 4.72,2.7 6.92,1.83 2.88,-1.13 2.69,-1.07 4.78,-4.58 2.45,-4.13 -0.24,-4.66 2.27,-5.87l3.45 -1.26 0.86 -0.57c1.72,-2.83 3.56,-5.01 1.81,-9.34 -2.1,-5.16 -2.3,-4.69 -6.15,-6.2 0.24,-0.6 0.06,-0.41 0.57,-0.69 -0.05,-0.06 -0.06,-0.27 -0.06,-0.23l-0.04 -0.56c0.09,-0.33 0.11,-0.23 0.38,-0.36 -0.82,0.06 0.02,-2.14 -0.46,-3.68 -0.01,-0.03 -0.54,-1.19 -0.67,-1.44 -0.45,-0.9 -0.47,-0.65 -1.05,-1.38 -0.48,-0.58 -1.07,-1.27 -1.83,-1.69 -0.69,-0.38 -1.84,-0.61 -2.77,-0.77 -2.3,-0.39 -4.12,-0.01 -5.87,0.52z"/>
    <path fill="#E39AF3" d="M100.02 115.83l0.43 1.11 2.13 -0.27 0.79 1.6c2.53,-0.47 7.34,-2.98 8.61,-4.81 1.22,-1.75 1.22,-2.53 1.49,-4.68 0.18,-1.33 0.07,-1.71 -0.32,-2.93 -1.34,-4.3 -9.25,-4.02 -11.6,-1.2 -2.06,2.47 -1.96,7.5 -1.53,11.18z"/>
    <path fill="#E39AF3" d="M104.12 119.15l-0.03 1.27c-1.04,0.39 -0.25,-0.19 -0.26,0.51 0,0.29 -0.22,1.17 -0.22,1.51 1.03,1.08 3.08,2.06 4.48,2.73 2.02,0.97 2.38,1.93 4.97,1.95 11.79,0.1 5.61,-16.66 -0.26,-13.1 -0.4,0.24 -1.23,1.2 -1.84,1.65 -2.01,1.48 -4.55,2.66 -6.84,3.48z"/>
    <path fill="#E39AF3" d="M95.64 119.31l0.4 -0.89c0.9,-2.33 -0.31,-1.11 1.88,-1.84 0.47,-0.16 0.68,-0.33 1.07,-0.64 0.01,-1.78 -0.16,-3.82 -0.21,-5.71 -0.04,-1.69 -0.76,-2.26 -2.41,-3.43 -3.58,-2.51 -5.94,-1.92 -8.4,0.64 -4.31,4.49 -1.07,7.55 1.03,9.69 1.33,1.36 4.78,1.98 6.64,2.18z"/>
    <path fill="#E39AF3" d="M96.99 122.28c-0.57,-0.89 -0.37,-1.62 -1.55,-1.94 -3.01,-0.72 -7.74,-2.81 -10.54,-1.46 -2.13,1.02 -3.79,5.69 -2.5,8.87 0.71,1.75 1.88,2.3 3.82,2.36 2.6,0.08 3.08,-0.75 4.58,-1.58 1.59,-0.87 0.71,-0.36 1.62,-1.58 1.07,-1.44 4.18,-3.94 4.57,-4.67z"/>
    <path fill="#E39AF3" d="M99.36 123.54c-0.98,-0.02 -0.68,-0.28 -0.85,0.24l-0.46 -0.93c-0.76,0.75 -1.11,0.86 -1.8,1.46l-4.7 4.45c-2.98,2.6 -1.81,6.64 0.15,8.22 1.2,0.96 3.3,1.35 5.22,0.92 5.2,-1.15 3.38,-10.65 2.44,-14.36z"/>
    <path fill="#E39AF3" d="M101.97 122.9l-0.25 0.23 6.24 14.07c4.12,-1.62 4.97,-7.59 3.05,-9.29 -0.72,-0.64 -7.97,-4.57 -9.04,-5.01z"/>
    <path fill="#E39AF3" d="M101.23 123.36l-0.79 -0.04c-0.08,2.89 0.89,6.56 0.81,9.77 -0.1,3.76 3.29,4.48 6.35,4.3 -1.5,-4.87 -3.88,-10.13 -6.37,-14.03z"/>
    <path fill="#FAD32B" d="M98.99 115.94c-0.39,0.31 -0.6,0.48 -1.07,0.64 -2.19,0.73 -0.98,-0.49 -1.88,1.84l-0.4 0.89c0.05,0.45 0.04,0.22 0,0.6 -0.01,0.07 -0.07,0.26 -0.08,0.23 -0.01,-0.03 -0.08,0.13 -0.12,0.2 1.18,0.32 0.98,1.05 1.55,1.94l0.76 -0.17c0.31,0.28 0.32,-0.5 0.3,0.74l0.46 0.93c0.17,-0.52 -0.13,-0.26 0.85,-0.24l0.54 -0.69c0.57,0.23 0.17,-0.46 0.54,0.47l0.79 0.04 0.49 -0.23 0.25 -0.23c0.28,-0.6 -0.29,-0.34 0.87,-0.57 1.05,-0.21 0.46,-0.01 0.77,0.11 0,-0.34 0.22,-1.22 0.22,-1.51 0.01,-0.7 -0.78,-0.12 0.26,-0.51l0.03 -1.27c-0.65,-0.37 -0.43,-0.29 -0.75,-0.88l-0.79 -1.6 -2.13 0.27 -0.43 -1.11c-0.36,0.75 0.5,0.11 -0.4,0.29 -0.92,0.18 -0.4,-0.01 -0.63,-0.18z"/>
   </g>
  </g>
  <g id="_1468973173744">
   <path fill="#2A4717" d="M818.57 143.77c1.07,0.17 1.89,0.32 3.09,0.45 2.74,0.29 5.67,-1.76 6.41,-4.56 0.99,-0.92 -0.65,-2.42 1.95,-2.6 1.8,-0.12 5,1.15 7.75,1.59 0.74,0.12 3.5,0.68 4.03,0.93 2.35,1.11 4.64,3.59 5.53,4.27 1.39,1.06 1.07,1.24 2.26,2.53 1.31,1.41 4.65,7.74 4.58,10.21 -0.02,0.74 -0.16,1.53 -0.19,2.17 -0.06,1.62 0.42,3.91 -0.39,7.1 -0.7,2.77 -0.83,5.56 -1.76,8.1 -0.85,2.35 -1.81,4.85 -3.17,6.67 -1.09,1.47 -1.11,1.35 -3.47,1.12 -3.42,-0.34 -8.52,-1.57 -11.63,-3.07 -2.24,-1.08 -4.39,-1.67 -6.58,-3.13 -0.62,-0.41 -0.86,-0.43 -1.6,-0.76l-5.51 -4.26c-0.55,-0.48 -0.52,-0.68 -1.02,-1.37 -1.14,-1.58 -0.28,0.35 -2.13,-2.92 -1.79,-3.16 -1.75,-3.84 -2.44,-7.39 -1,-5.08 -0.12,-10.95 3.64,-14.44 0.06,-0.05 0.22,-0.2 0.27,-0.25 0.28,-0.26 0.25,-0.22 0.38,-0.39z"/>
   <path fill="#2A4717" d="M797.2 133.78c3.13,5.13 3.51,8.88 2.54,15 -0.5,3.16 -1.96,7.62 -3.94,9.9 -0.51,0.59 -0.54,0.41 -1.07,1.31 -1.56,2.67 -1.31,1.28 -1.9,2.6 -0.41,0.91 0.04,0.87 -0.88,1.5 -2.08,1.42 -1.17,-0.11 -2.68,2.14l-5 4.24c-8.15,5.07 -8.07,6.2 -14.28,-0.67 -0.7,-0.77 -1.18,-1.69 -2.05,-2.7 -0.78,-0.9 -1.04,-1.72 -1.82,-2.7 -0.57,-0.72 -0.51,-0.46 -0.99,-1.4 -1.57,-3.05 -1.5,-2.09 -2.41,-4.5 -0.23,-0.61 -2.38,-4.84 -2.76,-6.54 -0.6,-2.68 -1.31,-4.6 -1.15,-8.26 0.19,-4.27 0.94,-7.3 3.47,-10.7 2.59,-3.45 1.46,-2.1 5.1,-4.12 2.23,-1.24 3.77,-3.08 6.83,-2.74l1.58 4.4c3.12,5.77 2.95,4.7 5.9,8.69 3.8,5.11 5.92,1.39 12.21,-2.9 0.93,-0.64 2.15,-2.02 3.3,-2.55z"/>
   <path fill="#A55137" d="M813.07 155.67c0.43,5.65 0.22,3.9 1.61,8.64 0.94,3.22 0.34,-0.49 1.71,3.27 0.47,1.28 0.08,0.43 0.84,1.1 0.91,0.81 1.41,1.92 2.37,2.65 1.92,1.46 1.4,1.7 2.69,2.62 -0.87,-0.25 -0.41,-0.25 -1.05,2.61 -0.29,1.25 -0.39,1.81 -0.45,2.9 -0.05,0.75 -1.31,5.28 -1.63,5.99 -1.59,0.49 -40.1,0.12 -45.31,0.16l-2.8 -12.58c2.68,0.21 1.77,4.23 8.91,1.26l5.73 -3.73c3.27,-2.41 2.95,-2.51 5.69,-5.14l2.2 -2.59c2.13,-2.14 0.53,0.04 2.15,-2.61 0.39,-0.62 0.16,-0.18 0.79,-0.8 0.63,-0.62 0.81,-1.14 1.16,-2.02 0.4,-1.03 0.42,-1.4 1.71,-1.49 -1.15,-0.21 -0.78,0.04 -0.38,-0.61 0.47,0.62 2.68,0.39 3.36,0.39l10.7 -0.02z"/>
   <path fill="#2A4717" d="M832.31 136.14c0.92,-0.68 0.93,-0.24 1.92,-1.25 2.95,-2.99 2.51,-8.14 0.28,-11.68 -1.26,-2 -2.25,-1.46 -3.38,-2.6 0.36,-1.13 1.04,-1.68 1.22,-2.7 0.22,-1.32 -0.13,-2.7 0,-3.97 1.96,-1.65 6.67,-2.61 9.42,-3.48 3.47,-1.1 8.34,-0.68 12.17,-0.48 2.7,0.14 3.06,0.16 4.8,1.45l2.27 1.95c1.43,1.21 2.78,2.22 3.47,5.28 0.47,2.08 0.81,3.72 0.77,5.97 -0.09,4.13 -0.34,7.75 -1.59,11.56 -1.28,3.88 -3.09,4.06 -8.9,3.44 -3.93,-0.41 -7.85,-0.58 -11.7,-0.98 -2.37,-0.25 -9.02,-1.47 -10.75,-2.51z"/>
   <path fill="#2A4717" d="M766.84 111.5c1.92,-0.27 3.25,-2.15 6.05,-1.02 0.89,0.35 0.92,1.22 1.5,2.15 0.79,1.25 1.22,0.97 2.08,1.8 0.32,1.96 -0.36,4.5 -1.19,5.94 -0.2,0.36 -0.45,0.64 -0.66,0.93 -3.08,4.21 -1.51,1.86 -4.42,4.6 -0.94,0.89 -5.67,3.38 -6.76,4.02 -2.43,1.42 -7.47,2.83 -10.28,3.89 -5.89,2.22 -6.04,1.69 -8.87,-6.83 -0.21,-0.62 -0.38,-0.87 -0.53,-1.38 -0.45,-1.58 -0.9,-5.77 -0.58,-7.93 0.25,-1.64 0.96,-4.08 1.81,-5.4l3.27 -3.89c4.52,-3.8 11.45,-4.39 16.07,-1.47 1.98,1.25 2.48,1.71 2.51,4.59z"/>
   <path fill="#6A7D54" d="M797.2 133.78c-1.15,0.53 -2.37,1.91 -3.3,2.55 -6.29,4.29 -8.41,8.01 -12.21,2.9 -2.95,-3.99 -2.78,-2.92 -5.9,-8.69l-1.58 -4.4c-3.06,-0.34 -4.6,1.5 -6.83,2.74 -3.64,2.02 -2.51,0.67 -5.1,4.12 -2.53,3.4 -3.28,6.43 -3.47,10.7 -0.16,3.66 0.55,5.58 1.15,8.26 0.38,1.7 2.53,5.93 2.76,6.54 0.91,2.41 0.84,1.45 2.41,4.5 0.48,0.94 0.42,0.68 0.99,1.4 0.78,0.98 1.04,1.8 1.82,2.7 0.87,1.01 1.35,1.93 2.05,2.7 6.21,6.87 6.13,5.74 14.28,0.67l5 -4.24c1.51,-2.25 0.6,-0.72 2.68,-2.14 0.92,-0.63 0.47,-0.59 0.88,-1.5 0.59,-1.32 0.34,0.07 1.9,-2.6 0.53,-0.9 0.56,-0.72 1.07,-1.31 1.98,-2.28 3.44,-6.74 3.94,-9.9 0.97,-6.12 0.59,-9.87 -2.54,-15zm60.38 7.06c-3.55,-0.41 -9.18,-0.55 -12.15,-0.98 -1.41,-0.2 -1.18,-0.02 -1.49,0.22 2.59,1.14 4.85,3.89 6.68,6.01l2.37 4.01c0.38,0.8 0.99,3.3 1.79,4.42 1.2,-4.1 3.94,-9.17 2.8,-13.68zm-96.39 17.09c-0.3,-0.88 -0.67,-2.02 -1.15,-3.12 -1.17,-2.71 -2.43,-7.48 -2.21,-10.5 0.15,-2.17 0.17,-5.17 0.99,-7.06 1.26,-2.88 2.8,-4.86 3.06,-5.52 -3.33,1.15 -9.44,3.82 -12.76,4.08 -2.87,0.22 -1.95,-0.99 -3.33,-1.8 -1.39,3.67 -2.43,6.73 -2.1,11.29 0.29,4.05 1.59,6.83 3.02,10.32 0.83,2.03 3.17,5.58 4.91,6.81 2.44,1.71 8.21,-3.26 9.57,-4.5zm5.65 -46.43c-0.03,-2.88 -0.53,-3.34 -2.51,-4.59 -4.62,-2.92 -11.55,-2.33 -16.07,1.47l-3.27 3.89c-0.85,1.32 -1.56,3.76 -1.81,5.4 -0.32,2.16 0.13,6.35 0.58,7.93 0.15,0.51 0.32,0.76 0.53,1.38 2.83,8.52 2.98,9.05 8.87,6.83 2.81,-1.06 7.85,-2.47 10.28,-3.89 1.09,-0.64 5.82,-3.13 6.76,-4.02 2.91,-2.74 1.34,-0.39 4.42,-4.6 0.21,-0.29 0.46,-0.57 0.66,-0.93 0.83,-1.44 1.51,-3.98 1.19,-5.94 -0.86,-0.83 -1.29,-0.55 -2.08,-1.8 -0.58,-0.93 -0.61,-1.8 -1.5,-2.15 -2.8,-1.13 -4.13,0.75 -6.05,1.02zm55.74 62.72l-0.29 -0.27c-1.29,-0.92 -0.77,-1.16 -2.69,-2.62 -0.96,-0.73 -1.46,-1.84 -2.37,-2.65 -0.76,-0.67 -0.37,0.18 -0.84,-1.1 -1.37,-3.76 -0.77,-0.05 -1.71,-3.27 -1.39,-4.74 -1.18,-2.99 -1.61,-8.64l-0.04 -1.86c-0.19,-0.55 1.03,-1.86 -0.23,-3.36 -1.19,0.56 0.25,0.54 -1.2,1.16 -1.45,0.62 -3.14,-0.89 -4.65,-1.86 -2.96,-1.9 -1.57,-0.47 -3.7,-2.4 -0.9,-0.81 -0.92,-0.98 -1.86,-1.17 -0.64,1.29 -0.67,2.22 -0.8,3.97 -0.15,1.91 -0.99,2.19 -1.04,3.74l-0.54 1.41c-0.4,0.65 -0.77,0.4 0.38,0.61 -1.29,0.09 -1.31,0.46 -1.71,1.49 -0.35,0.88 -0.53,1.4 -1.16,2.02 -0.63,0.62 -0.4,0.18 -0.79,0.8 -1.62,2.65 -0.02,0.47 -2.15,2.61l-2.2 2.59c-2.74,2.63 -2.42,2.73 -5.69,5.14l-5.73 3.73c-7.14,2.97 -6.23,-1.05 -8.91,-1.26 -0.2,-0.67 -0.2,-0.69 -0.5,-1.15 -0.9,-1.39 -0.5,-0.68 -0.77,-0.45 -1.29,-2.15 -2.62,-3.68 -4.23,-6.18l-3.85 -6.3c-1.37,0.66 -1.08,0.96 -2.27,1.76 -0.87,0.6 -1.37,1.06 -2.2,1.48 -1.25,0.63 -3.84,2.1 -5.49,1.44 -1.27,-0.5 -3.07,-2.82 -3.86,-3.83 -1.93,-2.47 -3.58,-7.48 -4.53,-10.63 -0.42,-1.37 -0.8,-5.23 -0.68,-6.8 0.43,-5.49 1.37,-5.77 2.46,-9.06 0.67,-2.01 -4.05,-8.25 -2.88,-15.61 0.28,-1.78 0.97,-4.46 1.84,-5.84 1.52,-2.41 1.34,-1.78 2.48,-3.08 6.77,-7.64 19.72,-5.06 21.25,1.15 2.27,-0.63 2.14,-0.82 4.91,-0.56l-2.43 -6.59c-2.32,0.27 -5.42,0.13 -7.82,0.06 -2.12,-0.05 -4.88,-0.02 -5.76,-1.8 -2.06,-4.16 -1.54,-10.47 0.55,-14.81 1.43,-2.96 4.24,-5.16 7.37,-6.13 6.88,-2.15 10.22,0.84 12.65,1.07l-0.47 1.07c-4.33,-1.64 -6.93,-2.83 -11.85,-1.16 -10.51,3.55 -9.27,16.59 -7.35,19.55 1.19,1.83 10.13,1.34 12.53,1.18 0.07,-3.87 0.11,-4.64 3.44,-6l0.92 0.05 0.11 0.91c-4.97,0.4 -3.53,4.88 -2.53,8.02 0.57,1.8 2.76,7.12 3.91,8.26 1.2,0.53 5.22,-1.69 6.52,-2.18 4.54,-1.7 9.32,-1.9 14.26,-2.72 2.31,-0.38 5.03,-0.22 6.16,-1.95 1.62,-0.11 0.63,0.08 1.07,-0.61 0.16,0.3 0.17,0.16 0.17,0.73 0,0.5 0.05,0 -0.06,0.43 -0.21,0.8 0.09,-0.13 -0.44,0.71 -1.86,0.89 -0.84,0.75 -3.7,1.19 -1.55,0.24 -2.8,0.43 -4.32,0.74 1.68,1.81 3.03,3.86 5.91,4.57 0.26,0.13 0.27,0.03 0.37,0.36l-0.04 0.56c0,-0.04 -0.01,0.17 -0.07,0.23 -1.7,-0.37 -3.88,-1.37 -4.58,-2.69l-1.83 -0.21c0.66,-1.69 -1.07,-2.52 -1.66,-2.57 -2.86,-0.23 -11.75,2.09 -14.72,3.84 -0.05,0.03 -0.12,0.07 -0.16,0.1 -0.04,0.03 -0.1,0.08 -0.14,0.11 -1.34,1.19 -1.44,4.28 -2.24,6.05 -1.52,3.32 -1.83,4.28 -0.44,8.86 0.37,1.23 1.15,2.77 1.81,3.82 1.59,2.54 3.12,4.26 4.74,6.39 0.74,0.97 1.73,2.22 3.17,1.8 1.52,-0.43 5.16,-3.16 6.51,-4.33 1.79,-1.55 4.41,-2.92 5.89,-4.94l0.84 0.57 -1.02 1.05c0.34,1.26 3.79,5.74 3.18,11.54 0.52,0.57 0.61,0.44 1.15,0.85l3.45 2.62c5.7,4.09 5.22,3.47 8.34,-1.01 1.09,-1.56 1.71,-2.65 2.32,-4.52 0.69,0.62 1.3,0.7 2.13,1.33 -0.13,0.17 -0.1,0.13 -0.38,0.39 -0.05,0.05 -0.21,0.2 -0.27,0.25 -3.76,3.49 -4.64,9.36 -3.64,14.44 0.69,3.55 0.65,4.23 2.44,7.39 1.85,3.27 0.99,1.34 2.13,2.92 0.5,0.69 0.47,0.89 1.02,1.37l5.51 4.26c0.74,0.33 0.98,0.35 1.6,0.76 2.19,1.46 4.34,2.05 6.58,3.13 3.11,1.5 8.21,2.73 11.63,3.07 2.36,0.23 2.38,0.35 3.47,-1.12 1.36,-1.82 2.32,-4.32 3.17,-6.67 0.93,-2.54 1.06,-5.33 1.76,-8.1 0.81,-3.19 0.33,-5.48 0.39,-7.1 0.03,-0.64 0.17,-1.43 0.19,-2.17 0.07,-2.47 -3.27,-8.8 -4.58,-10.21 -1.19,-1.29 -0.87,-1.47 -2.26,-2.53 -0.89,-0.68 -3.18,-3.16 -5.53,-4.27 -0.53,-0.25 -3.29,-0.81 -4.03,-0.93 -2.75,-0.44 -5.95,-1.71 -7.75,-1.59 -2.6,0.18 -0.96,1.68 -1.95,2.6 0.35,-1.03 0.1,-1.84 0.63,-2.98 0.67,-0.45 2.8,-0.84 3.61,-0.54 1.73,1.04 8.38,2.26 10.75,2.51 3.85,0.4 7.77,0.57 11.7,0.98 5.81,0.62 7.62,0.44 8.9,-3.44 1.25,-3.81 1.5,-7.43 1.59,-11.56 0.04,-2.25 -0.3,-3.89 -0.77,-5.97 -0.69,-3.06 -2.04,-4.07 -3.47,-5.28l-2.27 -1.95c-1.74,-1.29 -2.1,-1.31 -4.8,-1.45 -3.83,-0.2 -8.7,-0.62 -12.17,0.48 -2.75,0.87 -7.46,1.83 -9.42,3.48 -0.65,-0.46 -0.36,0.01 -0.56,-1.16 0.56,-0.17 4.84,-1.82 5.28,-2.11l-0.69 -1.45c-0.39,-0.79 -0.35,-0.8 -0.83,-1.31 -1.62,-1.7 -2.16,-2.58 -4.59,-3.88 -0.64,-0.35 -0.72,-0.53 -1.31,-0.79 -4.39,-1.95 -12.97,-0.56 -14.58,2.6 0.25,0.29 0.16,0.15 0.48,0.41 1.07,0.85 0.48,-0.39 0.84,0.92 -0.48,-0.55 -0.56,-0.4 -1.21,-0.82 -0.9,-0.56 -0.18,-0.32 -1.34,-0.83 1.94,-2.15 5.12,-3.78 8.83,-4.09 7.38,-0.61 8.14,2.11 9.76,1.89 0.63,-3.01 0.72,-11.34 0.24,-14.4 -0.49,-3.13 -2.55,-9.06 -4.47,-10.22 -6.63,-4.01 -17.19,-1.38 -22.69,2.52 -1.4,-0.22 -0.49,0.23 -0.87,-0.62 5.93,-4.4 18.87,-7.19 24.44,-2.27 0.85,0.76 1.23,1.54 1.85,2.4 1.24,1.7 2.53,6.93 2.72,9.26 0.49,6.17 -0.07,8.97 -0.43,14.44 0.49,0.41 1.14,0.72 1.66,1.22 1.88,1.85 2.55,3.99 3.47,4.77 6.42,-1 7.52,-2.12 15.38,-1.38 3,0.28 6.75,2.05 8.73,4.18 3.76,4.06 4.38,11.4 3.41,17.48 -1.11,6.99 -1.81,9.95 -7.17,10.1 -0.01,5.3 -0.92,8.88 -2.91,13.61 -2.15,5.09 0.64,11.76 -4.27,22.99 -1.14,2.61 -2.32,5.61 -5.3,5.44 -6.65,-0.39 -12.56,-3.01 -18.51,-5.65l-3.39 -1.84c-0.81,-0.58 -0.6,-0.74 -1.74,-1.13z"/>
   <path fill="#2A4717" d="M813.84 105.52c-1.69,-0.53 -3.46,-0.92 -5.69,-0.52 -0.91,0.16 -2.02,0.39 -2.69,0.77 -0.74,0.42 -1.32,1.11 -1.78,1.69 0.53,-0.84 0.23,0.09 0.44,-0.71 0.11,-0.43 0.06,0.07 0.06,-0.43 0,-0.57 -0.01,-0.43 -0.17,-0.73 1.8,0.54 2.61,-1.43 3.54,-2.14 0.93,-0.71 0.26,0.31 0.94,-1.04 1.76,-3.5 0.43,-4.86 0.42,-6.48 3.15,-1.71 6.09,-4.02 4.71,-8.92 -1.76,-6.22 -6.96,-5.35 -8.11,-5.79 5.5,-3.9 16.06,-6.53 22.69,-2.52 1.92,1.16 3.98,7.09 4.47,10.22 0.48,3.06 0.39,11.39 -0.24,14.4 -1.62,0.22 -2.38,-2.5 -9.76,-1.89 -3.71,0.31 -6.89,1.94 -8.83,4.09z"/>
   <path fill="#2A4717" d="M801.83 115.11c0.5,0.27 0.33,0.09 0.55,0.69 -3.73,1.51 -3.93,1.04 -5.96,6.2 -1.7,4.32 0.09,6.51 1.76,9.34 -1.48,2.02 -4.1,3.39 -5.89,4.94 -1.35,1.17 -4.99,3.9 -6.51,4.33 -1.44,0.42 -2.43,-0.83 -3.17,-1.8 -1.62,-2.13 -3.15,-3.85 -4.74,-6.39 -0.66,-1.05 -1.44,-2.59 -1.81,-3.82 -1.39,-4.58 -1.08,-5.54 0.44,-8.86 0.8,-1.77 0.9,-4.86 2.24,-6.05 0.04,-0.03 0.1,-0.08 0.14,-0.11 0.04,-0.03 0.11,-0.07 0.16,-0.1 2.97,-1.75 11.86,-4.07 14.72,-3.84 0.59,0.05 2.32,0.88 1.66,2.57l1.83 0.21c0.7,1.32 2.88,2.32 4.58,2.69z"/>
   <path fill="#6699FF" d="M790.99 88.55c-0.65,1.49 -0.35,0.78 -0.51,2.79 1.29,1.26 0.94,1.76 3.54,1.89 2.57,0.13 2.67,-0.07 4.24,-1.62l0.03 -1.32 2.84 -3.45c0.39,-0.49 1.03,-1.39 1.42,-1.76 3.62,-3.46 7.98,-1.8 9.18,2.27 1.28,4.36 -1.71,6.06 -4.69,7.16 -5.9,2.18 -9.02,-0.51 -10.07,0.85 2.38,2.53 11.7,-1.71 10.43,4.93 -0.32,1.69 -1.2,2.32 -2.28,3.01 -2.23,1.42 -6.27,2.05 -8.25,0.15 -3.2,-3.09 -0.96,-7.18 -2.58,-7.74 -0.82,1.26 0.23,4.26 -0.45,6.6 -0.92,3.15 -11.88,-0.81 -10.78,-3.33 0.33,-0.83 -0.08,-0.56 1.07,-0.95 1.86,-0.63 7.97,-1.16 8.57,-3.47 -0.72,-0.55 -0.12,-0.19 -0.95,-0.35 -0.91,-0.17 -1.69,0.04 -2.67,0.12 -3.53,0.31 -11.64,0.22 -12.12,0.31 1.13,0.55 9.11,0.23 11.08,0.09l2.82 -0.16c0.8,0.19 0.11,-0.15 0.66,0.32 -2.71,0.9 -10.85,4.24 -14.08,1.44 -1.01,-0.88 -2.2,-1.66 -1.86,-3.89 0.27,-1.71 1.52,-2.22 3.3,-2.55 1.99,-0.36 2.72,0.09 4.55,0.82 1.37,0.54 6.95,3.22 7.97,2.77 -0.18,-1.01 0.39,-0.29 -0.7,-0.86l-7.72 -3.05c-2.37,-0.89 -2.56,-0.31 -3.53,-2.56 -3.6,-8.35 4.94,-9.12 8.03,-7.46 1.59,0.85 2.12,1.77 2.44,3.65 0.31,1.83 0.79,3.58 1.07,5.35z"/>
   <path fill="#2A4717" d="M761.19 157.93c-1.36,1.24 -7.13,6.21 -9.57,4.5 -1.74,-1.23 -4.08,-4.78 -4.91,-6.81 -1.43,-3.49 -2.73,-6.27 -3.02,-10.32 -0.33,-4.56 0.71,-7.62 2.1,-11.29 1.38,0.81 0.46,2.02 3.33,1.8 3.32,-0.26 9.43,-2.93 12.76,-4.08 -0.26,0.66 -1.8,2.64 -3.06,5.52 -0.82,1.89 -0.84,4.89 -0.99,7.06 -0.22,3.02 1.04,7.79 2.21,10.5 0.48,1.1 0.85,2.24 1.15,3.12z"/>
   <path fill="#A55137" d="M770.22 192.93c-0.3,-1.69 -2.6,-5.9 0.18,-6.38l43.96 0.01c7.61,0.04 10.61,-1.18 9.71,3.4 -0.38,1.89 -0.25,0.78 -0.99,2.17 -0.2,0.39 -0.19,0.47 -0.3,0.72l-52.56 0.08z"/>
   <path fill="#2A4717" d="M776.82 82.24c0.06,1.15 -0.06,2.19 0.19,3.27 0.21,0.92 0.54,1.57 0.61,2.6 -0.72,0.41 -1.53,0.59 -2.15,1.01 -2.26,1.49 -1.65,5.4 -1.77,6.37 -0.01,0.06 -0.06,0.25 -0.11,0.32 -3.33,1.36 -3.37,2.13 -3.44,6 -2.4,0.16 -11.34,0.65 -12.53,-1.18 -1.92,-2.96 -3.16,-16 7.35,-19.55 4.92,-1.67 7.52,-0.48 11.85,1.16z"/>
   <path fill="#003399" d="M813.6 122.45c-0.3,0.59 -0.1,0.51 -0.73,0.88 -2.22,-0.82 -4.68,-2 -6.63,-3.48 -0.59,-0.45 -1.4,-1.41 -1.79,-1.65 -5.7,-3.56 -11.7,13.2 -0.25,13.1 2.51,-0.02 2.86,-0.98 4.83,-1.95 1.35,-0.67 3.35,-1.65 4.35,-2.73 0.29,-0.12 -0.29,-0.32 0.73,-0.11 1.13,0.23 0.58,-0.03 0.85,0.57 -1.04,0.44 -8.07,4.37 -8.77,5.01 -1.87,1.7 -1.05,7.67 2.96,9.29l6.06 -14.07 0.47 0.23c-2.42,3.9 -4.72,9.16 -6.18,14.03 2.97,0.18 6.26,-0.54 6.17,-4.3 -0.08,-3.21 0.85,-6.88 0.78,-9.77 0.35,-0.93 -0.03,-0.24 0.52,-0.47l0.53 0.69c-0.92,3.71 -2.68,13.21 2.36,14.36 1.87,0.43 3.91,0.04 5.07,-0.93 1.91,-1.57 3.04,-5.61 0.15,-8.21l-4.56 -4.45c-0.67,-0.6 -1.02,-0.71 -1.76,-1.46 -0.01,-1.24 0,-0.46 0.3,-0.74l0.74 0.18c0.37,0.72 3.39,3.22 4.44,4.66 0.88,1.22 0.03,0.72 1.56,1.58 1.47,0.83 1.93,1.66 4.46,1.58 1.88,-0.06 3.01,-0.61 3.7,-2.36 1.25,-3.18 -0.36,-7.85 -2.42,-8.87 -2.72,-1.36 -7.31,0.74 -10.24,1.45 -0.04,-0.06 -0.11,-0.22 -0.11,-0.19 -0.01,0.03 -0.07,-0.16 -0.08,-0.23 -0.04,-0.38 -0.05,-0.15 0,-0.6 1.8,-0.2 5.15,-0.83 6.45,-2.18 2.03,-2.14 5.18,-5.2 1,-9.69 -2.39,-2.56 -4.69,-3.15 -8.16,-0.64 -1.6,1.17 -2.3,1.74 -2.34,3.43 -0.05,1.89 -0.22,3.93 -0.2,5.71 -0.23,0.17 0.27,0.36 -0.61,0.18 -0.88,-0.18 -0.04,0.46 -0.39,-0.29 0.41,-3.68 0.51,-8.7 -1.49,-11.18 -2.28,-2.82 -9.96,-3.1 -11.27,1.2 -0.37,1.22 -0.47,1.6 -0.31,2.93 0.27,2.15 0.27,2.93 1.45,4.68 1.24,1.83 5.91,4.34 8.36,4.81zm0.24 -16.93c1.16,0.51 0.44,0.27 1.34,0.83 0.65,0.42 0.73,0.27 1.21,0.82 1.34,1.26 0.98,0.85 1.75,2.85 1.45,-0.36 6.26,-5.51 11.27,-0.35 1.01,1.04 1.67,2.61 2.38,3.11 0.2,1.17 -0.09,0.7 0.56,1.16 -0.13,1.27 0.22,2.65 0,3.97 -0.18,1.02 -0.86,1.57 -1.22,2.7 1.13,1.14 2.12,0.6 3.38,2.6 2.23,3.54 2.67,8.69 -0.28,11.68 -0.99,1.01 -1,0.57 -1.92,1.25 -0.81,-0.3 -2.94,0.09 -3.61,0.54 -0.53,1.14 -0.28,1.95 -0.63,2.98 -0.74,2.8 -3.67,4.85 -6.41,4.56 -1.2,-0.13 -2.02,-0.28 -3.09,-0.45 -0.83,-0.63 -1.44,-0.71 -2.13,-1.33 -0.2,-0.51 0.26,-0.2 -0.51,-0.65 -0.32,0.13 -4.59,2.7 -6.72,1.83 -2.8,-1.13 -2.62,-1.07 -4.64,-4.58 -2.39,-4.13 0.23,-4.66 -2.21,-5.87l-3.34 -1.26 -0.84 -0.57c-1.67,-2.83 -3.46,-5.02 -1.76,-9.34 2.03,-5.16 2.23,-4.69 5.96,-6.2 -0.22,-0.6 -0.05,-0.42 -0.55,-0.69 0.06,-0.06 0.07,-0.27 0.07,-0.23l0.04 -0.56c-0.1,-0.33 -0.11,-0.23 -0.37,-0.36 0.8,0.06 -0.02,-2.14 0.44,-3.68 0.01,-0.03 0.53,-1.19 0.65,-1.44 0.44,-0.9 0.46,-0.65 1.02,-1.38 0.46,-0.58 1.04,-1.27 1.78,-1.69 0.67,-0.38 1.78,-0.61 2.69,-0.77 2.23,-0.4 4,-0.01 5.69,0.52z"/>
   <path fill="#003399" d="M791.97 87.84c-0.13,0.87 -0.21,0.91 -0.98,0.71 -0.28,-1.77 -0.76,-3.52 -1.07,-5.35 -0.32,-1.88 -0.85,-2.8 -2.44,-3.65 -3.09,-1.66 -11.63,-0.89 -8.03,7.46 0.97,2.25 1.16,1.67 3.53,2.56l7.72 3.05c1.09,0.57 0.52,-0.15 0.7,0.86 -1.02,0.45 -6.6,-2.23 -7.97,-2.77 -1.83,-0.73 -2.56,-1.18 -4.55,-0.82 -1.78,0.33 -3.03,0.84 -3.3,2.55 -0.34,2.23 0.85,3.01 1.86,3.89 3.23,2.8 11.37,-0.54 14.08,-1.44 -0.55,-0.47 0.14,-0.13 -0.66,-0.32l-2.82 0.16c-1.97,0.14 -9.95,0.46 -11.08,-0.09 0.48,-0.09 8.59,0 12.12,-0.31 0.98,-0.08 1.76,-0.29 2.67,-0.12 0.83,0.16 0.23,-0.2 0.95,0.35 -0.6,2.31 -6.71,2.84 -8.57,3.47 -1.15,0.39 -0.74,0.12 -1.07,0.95 -1.1,2.52 9.86,6.48 10.78,3.33 0.68,-2.34 -0.37,-5.34 0.45,-6.6 1.62,0.56 -0.62,4.65 2.58,7.74 1.98,1.9 6.02,1.27 8.25,-0.15 1.08,-0.69 1.96,-1.32 2.28,-3.01 1.27,-6.64 -8.05,-2.4 -10.43,-4.93 1.05,-1.36 4.17,1.33 10.07,-0.85 2.98,-1.1 5.97,-2.8 4.69,-7.16 -1.2,-4.07 -5.56,-5.73 -9.18,-2.27 -0.39,0.37 -1.03,1.27 -1.42,1.76l-2.84 3.45c-0.44,-0.5 -0.17,0.19 -0.36,-0.58 -0.04,-0.15 -0.04,-0.6 -0.04,-0.77 1.95,-1.18 4.09,-4.29 4.52,-6.75 1.57,-8.98 -9.25,-9.49 -10.99,-3.24 -0.78,2.79 -0.9,6.33 0.55,8.89zm12.67 -7.24c0.38,0.85 -0.53,0.4 0.87,0.62 1.15,0.44 6.35,-0.43 8.11,5.79 1.38,4.9 -1.56,7.21 -4.71,8.92 0.01,1.62 1.34,2.98 -0.42,6.48 -0.68,1.35 -0.01,0.33 -0.94,1.04 -0.93,0.71 -1.74,2.68 -3.54,2.14 -0.44,0.69 0.55,0.5 -1.07,0.61 -2.41,0.61 -3.84,0.4 -6.06,-0.56 -1.36,-0.59 -0.73,-0.3 -1.55,-1.11 -2.69,0.06 -3.25,1.67 -8.91,-0.2 -1.2,-0.39 -2.32,-0.94 -3.29,-1.76 -0.38,-0.32 -1.03,-0.94 -1.34,-1.28 -0.75,-0.83 -0.42,-0.83 -0.82,-1.87 -4.97,-0.58 -4.4,-2.02 -6.35,-2.65l-0.11 -0.91 -0.92 -0.05c0.05,-0.07 0.1,-0.26 0.11,-0.32 0.12,-0.97 -0.49,-4.88 1.77,-6.37 0.62,-0.42 1.43,-0.6 2.15,-1.01 -0.07,-1.03 -0.4,-1.68 -0.61,-2.6 -0.25,-1.08 -0.13,-2.12 -0.19,-3.27l0.47 -1.07c0.63,-2.26 2.51,-3.65 5.05,-4.04 3.6,-0.56 4.86,-0.02 7.18,1.52 2.99,-8.46 12.81,-6.61 14.45,-1.05l0.67 3z"/>
   <path fill="#2A4717" d="M802.94 106.2c-1.13,1.73 -3.85,1.57 -6.16,1.95 -4.94,0.82 -9.72,1.02 -14.26,2.72 -1.3,0.49 -5.32,2.71 -6.52,2.18 -1.15,-1.14 -3.34,-6.46 -3.91,-8.26 -1,-3.14 -2.44,-7.62 2.53,-8.02 1.95,0.63 1.38,2.07 6.35,2.65 0.4,1.04 0.07,1.04 0.82,1.87 0.31,0.34 0.96,0.96 1.34,1.28 0.97,0.82 2.09,1.37 3.29,1.76 5.66,1.87 6.22,0.26 8.91,0.2 0.82,0.81 0.19,0.52 1.55,1.11 2.22,0.96 3.65,1.17 6.06,0.56z"/>
   <path fill="#45170A" d="M822.41 193.41l-51.83 0.03c0.74,1.6 1.08,1.25 3.11,1.23l45.63 -0.02c2.06,0.02 2.44,0.44 3.09,-1.24zm-52.19 -0.48l52.56 -0.08c0.11,-0.25 0.1,-0.33 0.3,-0.72 0.74,-1.39 0.61,-0.28 0.99,-2.17 0.9,-4.58 -2.1,-3.36 -9.71,-3.4l-43.96 -0.01c-2.78,0.48 -0.48,4.69 -0.18,6.38zm0.83 -19.9l2.8 12.58c5.21,-0.04 43.72,0.33 45.31,-0.16 0.32,-0.71 1.58,-5.24 1.63,-5.99 0.06,-1.09 0.16,-1.65 0.45,-2.9 0.64,-2.86 0.18,-2.86 1.05,-2.61l0.29 0.27c0,3.03 -1.9,8.08 -2.35,11.42 4.25,-0.09 5.66,0.43 4.24,5.24 -1.17,3.95 -1.27,4.79 -5.41,4.77l-39.37 0.01c-2.14,0 -8.24,0.55 -9.33,-0.74 -1.47,-1.75 -2.19,-5.18 -1.84,-7.99 1.47,-1.61 2.06,-1.09 4.3,-1.4l-3.04 -14.1c0.27,-0.23 -0.13,-0.94 0.77,0.45 0.3,0.46 0.3,0.48 0.5,1.15z"/>
   <path fill="#6699FF" d="M816.86 120.01l-0.42 1.11 -2.07 -0.27 -0.77 1.6c-2.45,-0.47 -7.12,-2.98 -8.36,-4.81 -1.18,-1.75 -1.18,-2.53 -1.45,-4.68 -0.16,-1.33 -0.06,-1.71 0.31,-2.93 1.31,-4.3 8.99,-4.02 11.27,-1.2 2,2.48 1.9,7.5 1.49,11.18z"/>
   <path fill="#6699FF" d="M812.87 123.33l0.03 1.27c1.01,0.39 0.25,-0.2 0.26,0.51 0,0.29 0.21,1.17 0.22,1.51 -1,1.08 -3,2.06 -4.35,2.73 -1.97,0.97 -2.32,1.93 -4.83,1.95 -11.45,0.1 -5.45,-16.66 0.25,-13.1 0.39,0.24 1.2,1.2 1.79,1.65 1.95,1.48 4.41,2.66 6.63,3.48z"/>
   <path fill="#6699FF" d="M821.11 123.49l-0.38 -0.89c-0.88,-2.33 0.29,-1.11 -1.84,-1.84 -0.45,-0.16 -0.66,-0.33 -1.03,-0.64 -0.02,-1.78 0.15,-3.82 0.2,-5.71 0.04,-1.69 0.74,-2.26 2.34,-3.43 3.47,-2.51 5.77,-1.92 8.16,0.64 4.18,4.49 1.03,7.55 -1,9.69 -1.3,1.35 -4.65,1.98 -6.45,2.18z"/>
   <path fill="#6699FF" d="M797.89 88.94l-2.01 -1.12c-1.14,-0.54 -3.18,-0.32 -3.91,0.02 -1.45,-2.56 -1.33,-6.1 -0.55,-8.89 1.74,-6.25 12.56,-5.74 10.99,3.24 -0.43,2.46 -2.57,5.57 -4.52,6.75z"/>
   <path fill="#6699FF" d="M819.8 126.47c0.55,-0.9 0.35,-1.63 1.5,-1.96 2.93,-0.71 7.52,-2.81 10.24,-1.45 2.06,1.02 3.67,5.69 2.42,8.87 -0.69,1.75 -1.82,2.3 -3.7,2.36 -2.53,0.08 -2.99,-0.75 -4.46,-1.58 -1.53,-0.86 -0.68,-0.36 -1.56,-1.58 -1.05,-1.44 -4.07,-3.94 -4.44,-4.66z"/>
   <path fill="#2A4717" d="M816.44 142.44c-0.61,1.87 -1.23,2.96 -2.32,4.52 -3.12,4.48 -2.64,5.1 -8.34,1.01l-3.45 -2.62c-0.54,-0.41 -0.63,-0.28 -1.15,-0.85 0.61,-5.8 -2.84,-10.28 -3.18,-11.54l1.02 -1.05 3.34 1.26c2.44,1.21 -0.18,1.74 2.21,5.87 2.02,3.51 1.84,3.45 4.64,4.58 2.13,0.87 6.4,-1.7 6.72,-1.83 0.77,0.45 0.31,0.14 0.51,0.65z"/>
   <path fill="#2A4717" d="M831.79 112.78c-0.71,-0.5 -1.37,-2.07 -2.38,-3.11 -5.01,-5.16 -9.82,-0.01 -11.27,0.35 -0.77,-2 -0.41,-1.59 -1.75,-2.85 -0.36,-1.31 0.23,-0.07 -0.84,-0.92 -0.32,-0.26 -0.23,-0.12 -0.48,-0.41 1.61,-3.16 10.19,-4.55 14.58,-2.6 0.59,0.26 0.67,0.44 1.31,0.79 2.43,1.3 2.97,2.18 4.59,3.88 0.48,0.51 0.44,0.52 0.83,1.31l0.69 1.45c-0.44,0.29 -4.72,1.94 -5.28,2.11z"/>
   <path fill="#6699FF" d="M817.5 127.72c0.95,-0.02 0.66,-0.28 0.82,0.24l0.44 -0.93c0.74,0.75 1.09,0.86 1.76,1.46l4.56 4.45c2.89,2.6 1.76,6.64 -0.15,8.21 -1.16,0.97 -3.2,1.36 -5.07,0.93 -5.04,-1.15 -3.28,-10.65 -2.36,-14.36z"/>
   <path fill="#2A4717" d="M857.58 140.84c1.14,4.51 -1.6,9.58 -2.8,13.68 -0.8,-1.12 -1.41,-3.62 -1.79,-4.42l-2.37 -4.01c-1.83,-2.12 -4.09,-4.87 -6.68,-6.01 0.31,-0.24 0.08,-0.42 1.49,-0.22 2.97,0.43 8.6,0.57 12.15,0.98z"/>
   <path fill="#6699FF" d="M814.96 127.08l0.25 0.23 -6.06 14.07c-4.01,-1.62 -4.83,-7.59 -2.96,-9.29 0.7,-0.64 7.73,-4.57 8.77,-5.01z"/>
   <path fill="#A55137" d="M822.41 193.41c-0.65,1.68 -1.03,1.26 -3.09,1.24l-45.63 0.02c-2.03,0.02 -2.37,0.37 -3.11,-1.23l51.83 -0.03z"/>
   <path fill="#A55137" d="M813.03 153.81l-13.48 0.08c0.05,-1.55 0.89,-1.83 1.04,-3.74 0.13,-1.75 0.16,-2.68 0.8,-3.97 0.94,0.19 0.96,0.36 1.86,1.17 2.13,1.93 0.74,0.5 3.7,2.4 1.51,0.97 3.2,2.48 4.65,1.86 1.45,-0.62 0.01,-0.6 1.2,-1.16 1.26,1.5 0.04,2.81 0.23,3.36z"/>
   <path fill="#6699FF" d="M815.68 127.54l0.77 -0.04c0.07,2.89 -0.86,6.56 -0.78,9.77 0.09,3.76 -3.2,4.48 -6.17,4.3 1.46,-4.87 3.76,-10.13 6.18,-14.03z"/>
   <path fill="#FAD32B" d="M817.86 120.12c0.37,0.31 0.58,0.48 1.03,0.64 2.13,0.73 0.96,-0.49 1.84,1.84l0.38 0.89c-0.05,0.45 -0.04,0.22 0,0.6 0.01,0.07 0.07,0.26 0.08,0.23 0,-0.03 0.07,0.13 0.11,0.19 -1.15,0.33 -0.95,1.06 -1.5,1.96l-0.74 -0.18c-0.3,0.28 -0.31,-0.5 -0.3,0.74l-0.44 0.93c-0.16,-0.52 0.13,-0.26 -0.82,-0.24l-0.53 -0.69c-0.55,0.23 -0.17,-0.46 -0.52,0.47l-0.77 0.04 -0.47 -0.23 -0.25 -0.23c-0.27,-0.6 0.28,-0.34 -0.85,-0.57 -1.02,-0.21 -0.44,-0.01 -0.73,0.11 -0.01,-0.34 -0.22,-1.22 -0.22,-1.51 -0.01,-0.71 0.75,-0.12 -0.26,-0.51l-0.03 -1.27c0.63,-0.37 0.43,-0.29 0.73,-0.88l0.77 -1.6 2.07 0.27 0.42 -1.11c0.35,0.75 -0.49,0.11 0.39,0.29 0.88,0.18 0.38,-0.01 0.61,-0.18z"/>
   <path fill="#F3D012" d="M797.89 88.94c0,0.17 0,0.62 0.04,0.77 0.19,0.77 -0.08,0.08 0.36,0.58l-0.03 1.32c-1.57,1.55 -1.67,1.75 -4.24,1.62 -2.6,-0.13 -2.25,-0.63 -3.54,-1.89 0.16,-2.01 -0.14,-1.3 0.51,-2.79 0.77,0.2 0.85,0.16 0.98,-0.71 0.73,-0.34 2.77,-0.56 3.91,-0.02l2.01 1.12z"/>
   <path fill="#45170A" d="M813.07 155.67l-10.7 0.02c-0.68,0 -2.89,0.23 -3.36,-0.39l0.54 -1.41 13.48 -0.08 0.04 1.86z"/>
   <path fill="#2A4717" d="M801.57 113.96c-2.88,-0.71 -4.23,-2.76 -5.91,-4.57 1.52,-0.31 2.77,-0.5 4.32,-0.74 2.86,-0.44 1.84,-0.3 3.7,-1.19 -0.56,0.73 -0.58,0.48 -1.02,1.38 -0.12,0.25 -0.64,1.41 -0.65,1.44 -0.46,1.54 0.36,3.74 -0.44,3.68z"/>
   <path fill="#003399" d="M772.55 118.76c-0.31,0.59 -0.1,0.51 -0.73,0.88 -2.23,-0.82 -4.69,-2 -6.64,-3.49 -0.59,-0.45 -1.4,-1.4 -1.79,-1.64 -5.7,-3.57 -11.7,13.2 -0.25,13.1 2.51,-0.03 2.87,-0.98 4.83,-1.95 1.36,-0.67 3.35,-1.66 4.35,-2.74 0.3,-0.12 -0.28,-0.31 0.74,-0.11 1.13,0.24 0.58,-0.02 0.85,0.57 -1.04,0.45 -8.08,4.38 -8.78,5.01 -1.87,1.7 -1.04,7.67 2.96,9.3l6.06 -14.08 0.47 0.24c-2.42,3.89 -4.72,9.16 -6.18,14.03 2.97,0.18 6.27,-0.55 6.17,-4.31 -0.08,-3.21 0.86,-6.88 0.78,-9.76 0.36,-0.93 -0.03,-0.25 0.52,-0.48l0.53 0.7c-0.91,3.7 -2.68,13.2 2.37,14.36 1.87,0.43 3.9,0.03 5.07,-0.93 1.9,-1.57 3.04,-5.61 0.14,-8.22l-4.56 -4.44c-0.67,-0.6 -1.01,-0.71 -1.75,-1.47 -0.01,-1.24 0,-0.45 0.29,-0.74l0.74 0.18c0.38,0.73 3.4,3.22 4.44,4.67 0.88,1.22 0.03,0.71 1.57,1.58 1.46,0.82 1.92,1.65 4.45,1.57 1.88,-0.05 3.02,-0.6 3.71,-2.35 1.25,-3.18 -0.36,-7.85 -2.43,-8.88 -2.72,-1.35 -7.31,0.75 -10.23,1.46 -0.04,-0.06 -0.11,-0.23 -0.12,-0.19 -0.01,0.03 -0.07,-0.17 -0.08,-0.24 -0.04,-0.37 -0.04,-0.15 0,-0.59 1.81,-0.21 5.16,-0.83 6.45,-2.19 2.04,-2.13 5.18,-5.19 1,-9.68 -2.39,-2.56 -4.68,-3.16 -8.15,-0.64 -1.61,1.16 -2.31,1.74 -2.35,3.43 -0.04,1.88 -0.21,3.92 -0.2,5.71 -0.22,0.17 0.28,0.36 -0.61,0.18 -0.88,-0.18 -0.04,0.45 -0.39,-0.29 0.42,-3.68 0.52,-8.71 -1.49,-11.18 -2.28,-2.82 -9.96,-3.1 -11.26,1.19 -0.37,1.23 -0.48,1.6 -0.31,2.94 0.27,2.15 0.26,2.92 1.45,4.68 1.23,1.83 5.9,4.34 8.36,4.81zm0.24 -16.93c1.16,0.51 0.44,0.26 1.33,0.83 0.65,0.41 0.73,0.26 1.21,0.82 1.35,1.26 0.98,0.84 1.75,2.84 1.45,-0.35 6.26,-5.5 11.27,-0.35 1.01,1.04 1.67,2.61 2.39,3.12 0.19,1.17 -0.09,0.7 0.56,1.15 -0.14,1.28 0.22,2.66 -0.01,3.97 -0.18,1.03 -0.86,1.58 -1.22,2.7 1.13,1.15 2.12,0.6 3.38,2.6 2.23,3.55 2.67,8.7 -0.27,11.69 -0.99,1 -1.01,0.57 -1.92,1.25 -0.82,-0.3 -2.95,0.09 -3.61,0.54 -0.53,1.14 -0.29,1.94 -0.64,2.97 -0.74,2.81 -3.66,4.86 -6.4,4.57 -1.21,-0.13 -2.02,-0.29 -3.09,-0.45 -0.83,-0.63 -1.45,-0.72 -2.13,-1.33 -0.21,-0.51 0.25,-0.2 -0.52,-0.65 -0.32,0.13 -4.58,2.7 -6.72,1.83 -2.79,-1.14 -2.61,-1.08 -4.64,-4.59 -2.38,-4.12 0.23,-4.66 -2.21,-5.86l-3.34 -1.26 -0.84 -0.57c-1.67,-2.84 -3.46,-5.02 -1.76,-9.34 2.04,-5.16 2.23,-4.7 5.97,-6.21 -0.23,-0.6 -0.06,-0.41 -0.55,-0.69 0.05,-0.05 0.06,-0.26 0.06,-0.22l0.04 -0.56c-0.09,-0.33 -0.11,-0.23 -0.37,-0.36 0.8,0.05 -0.02,-2.14 0.44,-3.69 0.01,-0.03 0.53,-1.19 0.66,-1.43 0.44,-0.91 0.45,-0.66 1.01,-1.39 0.47,-0.58 1.04,-1.27 1.78,-1.68 0.67,-0.38 1.79,-0.62 2.7,-0.78 2.22,-0.39 3.99,-0.01 5.69,0.53z"/>
   <path fill="#6699FF" d="M775.8 116.32l-0.41 1.11 -2.08 -0.27 -0.76 1.6c-2.46,-0.47 -7.13,-2.98 -8.36,-4.81 -1.19,-1.76 -1.18,-2.53 -1.45,-4.68 -0.17,-1.34 -0.06,-1.71 0.31,-2.94 1.3,-4.29 8.98,-4.01 11.26,-1.19 2.01,2.47 1.91,7.5 1.49,11.18z"/>
   <path fill="#6699FF" d="M771.82 119.64l0.03 1.26c1.01,0.39 0.24,-0.19 0.25,0.52 0.01,0.28 0.22,1.17 0.22,1.5 -1,1.08 -2.99,2.07 -4.35,2.74 -1.96,0.97 -2.32,1.92 -4.83,1.95 -11.45,0.1 -5.45,-16.67 0.25,-13.1 0.39,0.24 1.2,1.19 1.79,1.64 1.95,1.49 4.41,2.67 6.64,3.49z"/>
   <path fill="#6699FF" d="M780.05 119.8l-0.38 -0.9c-0.88,-2.32 0.3,-1.11 -1.83,-1.84 -0.46,-0.15 -0.66,-0.32 -1.04,-0.63 -0.01,-1.79 0.16,-3.83 0.2,-5.71 0.04,-1.69 0.74,-2.27 2.35,-3.43 3.47,-2.52 5.76,-1.92 8.15,0.64 4.18,4.49 1.04,7.55 -1,9.68 -1.29,1.36 -4.64,1.98 -6.45,2.19z"/>
   <path fill="#6699FF" d="M778.74 122.77c0.55,-0.89 0.36,-1.62 1.51,-1.95 2.92,-0.71 7.51,-2.81 10.23,-1.46 2.07,1.03 3.68,5.7 2.43,8.88 -0.69,1.75 -1.83,2.3 -3.71,2.35 -2.53,0.08 -2.99,-0.75 -4.45,-1.57 -1.54,-0.87 -0.69,-0.36 -1.57,-1.58 -1.04,-1.45 -4.06,-3.94 -4.44,-4.67z"/>
   <path fill="#6699FF" d="M776.44 124.03c0.95,-0.03 0.66,-0.29 0.82,0.23l0.45 -0.93c0.74,0.76 1.08,0.87 1.75,1.47l4.56 4.44c2.9,2.61 1.76,6.65 -0.14,8.22 -1.17,0.96 -3.2,1.36 -5.07,0.93 -5.05,-1.16 -3.28,-10.66 -2.37,-14.36z"/>
   <path fill="#6699FF" d="M773.91 123.38l0.24 0.23 -6.06 14.08c-4,-1.63 -4.83,-7.6 -2.96,-9.3 0.7,-0.63 7.74,-4.56 8.78,-5.01z"/>
   <path fill="#6699FF" d="M774.62 123.85l0.77 -0.04c0.08,2.88 -0.86,6.55 -0.78,9.76 0.1,3.76 -3.2,4.49 -6.17,4.31 1.46,-4.87 3.76,-10.14 6.18,-14.03z"/>
   <path fill="#FAD32B" d="M776.8 116.43c0.38,0.31 0.58,0.48 1.04,0.63 2.13,0.73 0.95,-0.48 1.83,1.84l0.38 0.9c-0.04,0.44 -0.04,0.22 0,0.59 0.01,0.07 0.07,0.27 0.08,0.24 0.01,-0.04 0.08,0.13 0.12,0.19 -1.15,0.33 -0.96,1.06 -1.51,1.95l-0.74 -0.18c-0.29,0.29 -0.3,-0.5 -0.29,0.74l-0.45 0.93c-0.16,-0.52 0.13,-0.26 -0.82,-0.23l-0.53 -0.7c-0.55,0.23 -0.16,-0.45 -0.52,0.48l-0.77 0.04 -0.47 -0.24 -0.24 -0.23c-0.27,-0.59 0.28,-0.33 -0.85,-0.57 -1.02,-0.2 -0.44,-0.01 -0.74,0.11 0,-0.33 -0.21,-1.22 -0.22,-1.5 -0.01,-0.71 0.76,-0.13 -0.25,-0.52l-0.03 -1.26c0.63,-0.37 0.42,-0.29 0.73,-0.88l0.76 -1.6 2.08 0.27 0.41 -1.11c0.35,0.74 -0.49,0.11 0.39,0.29 0.89,0.18 0.39,-0.01 0.61,-0.18z"/>
  </g>
  <path fill="#EBD72D" fill-rule="nonzero" d="M17.96 26.94l4.6 0c1.5,0 2.77,-0.19 3.8,-0.56 1.05,-0.37 1.94,-1.27 2.69,-2.71 0.76,-1.44 1.19,-3.66 1.29,-6.65 0.13,-4.32 0.55,-7.7 1.25,-10.15 0.72,-2.45 1.79,-4.2 3.25,-5.27 1.46,-1.07 3.39,-1.6 5.83,-1.6 2.42,0 4.31,0.81 5.66,2.45 1.36,1.63 2.04,3.41 2.04,5.35 0,1.88 -0.51,3.52 -1.56,4.9 -1.03,1.4 -2.5,2.09 -4.4,2.09 -2.04,0 -3.47,-0.67 -4.29,-2.02 -0.82,-1.35 -1.22,-2.92 -1.22,-4.73 0,-0.32 0.04,-0.71 0.11,-1.19 0.08,-0.46 0.12,-0.85 0.12,-1.12 0,-0.86 -0.15,-1.28 -0.46,-1.28 -0.88,0 -1.57,0.17 -2.08,0.51 -0.51,0.34 -0.92,1.08 -1.25,2.22 -0.7,2.67 -1.11,5.95 -1.19,9.84 -0.05,2.55 -0.3,4.63 -0.76,6.27 -0.45,1.62 -1.51,2.86 -3.17,3.73l0.14 0.33c4.64,0.09 8.15,1.15 10.5,3.22 2.37,2.05 3.88,4.52 4.54,7.38 0.67,2.88 1.05,6.3 1.12,10.28 0.07,4.43 1.01,6.65 2.86,6.65 0.63,0 1.43,-0.34 2.41,-1.02l0.83 1.47c-2.49,2.05 -5.19,3.07 -8.15,3.07 -2.25,0 -4.06,-0.34 -5.39,-0.99 -1.35,-0.66 -2.38,-1.67 -3.08,-3.04 -0.71,-1.37 -1.21,-2.98 -1.53,-4.83 -0.3,-1.87 -0.66,-4.72 -1.08,-8.57 -0.42,-4.2 -1.14,-7.26 -2.16,-9.19 -1.02,-1.92 -3.21,-2.88 -6.59,-2.88l-4.68 0 0 26.43 6.34 0 0 1.88 -24.3 0 0 -1.88 6.34 0 0 -52.25 -6.34 0 0 -1.88 24.3 0 0 1.88 -6.34 0 0 23.86zm37.29 2.32c0,-4.06 0.67,-7.88 2,-11.47 1.33,-3.6 3.17,-6.72 5.5,-9.38 2.34,-2.67 5.02,-4.73 8.03,-6.2 3.02,-1.47 6.15,-2.21 9.36,-2.21 4.4,0 8.53,1.3 12.38,3.89 3.85,2.59 6.93,6.14 9.23,10.63 2.3,4.49 3.46,9.41 3.46,14.74 0,5.8 -1.24,10.93 -3.71,15.38 -2.47,4.44 -5.64,7.85 -9.52,10.22 -3.89,2.36 -7.83,3.54 -11.84,3.54 -2.64,0 -5.41,-0.61 -8.3,-1.83 -2.89,-1.23 -5.6,-3.07 -8.12,-5.52 -2.52,-2.45 -4.57,-5.51 -6.13,-9.21 -1.56,-3.69 -2.34,-7.88 -2.34,-12.58zm13.36 -9.16c-0.05,1.31 -0.08,3.9 -0.08,7.78 0,5.41 0.03,8.95 0.08,10.6 0.17,5 0.98,9.25 2.43,12.77 1.43,3.52 4.47,5.27 9.1,5.27 3.27,0 5.76,-0.92 7.45,-2.78 1.69,-1.85 2.8,-4.04 3.33,-6.61 0.53,-2.55 0.83,-5.43 0.93,-8.65 0,-2.37 0.05,-5.9 0.16,-10.6 0,-3.82 -0.05,-6.42 -0.16,-7.78 -0.31,-5.99 -1.35,-10.52 -3.08,-13.6 -1.74,-3.08 -4.6,-4.62 -8.63,-4.62 -2.68,0 -4.83,0.73 -6.45,2.17 -1.61,1.44 -2.82,3.49 -3.6,6.17 -0.78,2.66 -1.27,5.96 -1.48,9.88zm49.73 -17.02l0 -1.88 43.92 0 0 1.88 -6.34 0 0 52.25 6.34 0 0 1.88 -24.3 0 0 -1.88 6.34 0 0 -52.25 -6.95 0c-2.73,0 -4.68,0.5 -5.83,1.51 -1.17,1.01 -1.85,2.26 -2.05,3.76 -0.2,1.5 -0.32,3.91 -0.34,7.21 0,1.46 -0.1,5.28 -0.32,11.46 -0.02,0.7 -0.05,1.46 -0.06,2.28 -0.02,0.81 -0.05,1.56 -0.06,2.21 -0.03,0.66 -0.04,1.14 -0.04,1.46 -0.01,0.31 -0.02,0.89 -0.05,1.76 -0.05,2.41 -0.11,5.26 -0.2,8.54 -0.09,3.28 -0.38,5.99 -0.88,8.11 -0.49,2.12 -1.42,3.82 -2.77,5.1 -1.36,1.28 -3.27,1.92 -5.73,1.92 -1.8,0 -3.35,-0.46 -4.67,-1.41 -1.32,-0.94 -2.34,-2.18 -3.03,-3.72 -0.71,-1.54 -1.06,-3.16 -1.06,-4.87 0,-2.01 0.61,-3.62 1.81,-4.83 1.22,-1.23 2.72,-1.83 4.53,-1.83 1.59,0 2.92,0.57 3.99,1.73 1.07,1.15 1.6,2.69 1.6,4.59 0,1.82 -0.38,3.22 -1.15,4.17 -0.14,0.2 -0.33,0.46 -0.59,0.77 -0.25,0.33 -0.44,0.6 -0.57,0.83 -0.12,0.23 -0.18,0.44 -0.18,0.64 0,0.29 0.07,0.59 0.21,0.86 0.14,0.28 0.33,0.41 0.54,0.41 2.6,0 4.29,-1.33 5.04,-4.01 0.63,-2.26 1.03,-6.05 1.22,-11.37 0.12,-3.79 0.23,-8.52 0.36,-14.19 0.11,-5.68 0.17,-10.08 0.17,-13.17 0,-4.21 -0.59,-6.91 -1.77,-8.11 -1.2,-1.21 -3.02,-1.81 -5.47,-1.81l-1.66 0zm56.44 0l0 -1.88 43.92 0 0 1.88 -6.34 0 0 52.25 6.34 0 0 1.88 -24.3 0 0 -1.88 6.34 0 0 -52.25 -6.94 0c-2.73,0 -4.68,0.5 -5.84,1.51 -1.17,1.01 -1.84,2.26 -2.05,3.76 -0.2,1.5 -0.31,3.91 -0.34,7.21 0,1.46 -0.1,5.28 -0.31,11.46 -0.03,0.7 -0.05,1.46 -0.06,2.28 -0.03,0.81 -0.05,1.56 -0.07,2.21 -0.02,0.66 -0.03,1.14 -0.03,1.46 -0.02,0.31 -0.03,0.89 -0.05,1.76 -0.05,2.41 -0.12,5.26 -0.21,8.54 -0.08,3.28 -0.37,5.99 -0.88,8.11 -0.49,2.12 -1.42,3.82 -2.76,5.1 -1.36,1.28 -3.27,1.92 -5.74,1.92 -1.8,0 -3.34,-0.46 -4.66,-1.41 -1.32,-0.94 -2.34,-2.18 -3.03,-3.72 -0.71,-1.54 -1.06,-3.16 -1.06,-4.87 0,-2.01 0.6,-3.62 1.81,-4.83 1.22,-1.23 2.72,-1.83 4.53,-1.83 1.58,0 2.91,0.57 3.98,1.73 1.07,1.15 1.6,2.69 1.6,4.59 0,1.82 -0.38,3.22 -1.14,4.17 -0.14,0.2 -0.33,0.46 -0.59,0.77 -0.26,0.33 -0.44,0.6 -0.57,0.83 -0.13,0.23 -0.19,0.44 -0.19,0.64 0,0.29 0.08,0.59 0.22,0.86 0.13,0.28 0.32,0.41 0.54,0.41 2.6,0 4.28,-1.33 5.04,-4.01 0.63,-2.26 1.03,-6.05 1.22,-11.37 0.11,-3.79 0.23,-8.52 0.35,-14.19 0.11,-5.68 0.18,-10.08 0.18,-13.17 0,-4.21 -0.59,-6.91 -1.78,-8.11 -1.19,-1.21 -3.01,-1.81 -5.47,-1.81l-1.66 0zm56.6 52.25l0 -52.25 -6.34 0 0 -1.88 42.47 0 0.62 17.95 -2.05 0c-0.76,-5.82 -2.6,-9.96 -5.52,-12.41 -2.91,-2.44 -6.38,-3.66 -10.39,-3.66l-7.17 0 0 22.4 4.98 0c1.65,0 3.06,-0.51 4.25,-1.54 1.2,-1.01 2.09,-2.3 2.69,-3.87 0.61,-1.57 0.91,-3.15 0.91,-4.75l1.96 0 0 22.39 -1.96 0c-0.09,-3.05 -0.73,-5.53 -1.94,-7.45 -1.21,-1.93 -3.17,-2.9 -5.91,-2.9l-4.98 0 0 27.97 7.09 0c2.81,0 5.46,-0.73 7.95,-2.2 2.49,-1.45 4.57,-3.46 6.24,-6.03 1.66,-2.55 2.69,-5.37 3.1,-8.45l2.11 0 -0.83 18.56 -43.62 0 0 -1.88 6.34 0zm61.59 -28.39l4.6 0c1.5,0 2.77,-0.19 3.8,-0.56 1.04,-0.37 1.94,-1.27 2.69,-2.71 0.76,-1.44 1.18,-3.66 1.29,-6.65 0.13,-4.32 0.55,-7.7 1.25,-10.15 0.72,-2.45 1.79,-4.2 3.25,-5.27 1.46,-1.07 3.39,-1.6 5.83,-1.6 2.42,0 4.31,0.81 5.66,2.45 1.36,1.63 2.04,3.41 2.04,5.35 0,1.88 -0.52,3.52 -1.56,4.9 -1.03,1.4 -2.5,2.09 -4.4,2.09 -2.04,0 -3.47,-0.67 -4.29,-2.02 -0.82,-1.35 -1.22,-2.92 -1.22,-4.73 0,-0.32 0.04,-0.71 0.11,-1.19 0.08,-0.46 0.12,-0.85 0.12,-1.12 0,-0.86 -0.15,-1.28 -0.46,-1.28 -0.88,0 -1.57,0.17 -2.08,0.51 -0.51,0.34 -0.92,1.08 -1.25,2.22 -0.7,2.67 -1.11,5.95 -1.19,9.84 -0.05,2.55 -0.31,4.63 -0.76,6.27 -0.45,1.62 -1.51,2.86 -3.17,3.73l0.14 0.33c4.64,0.09 8.15,1.15 10.5,3.22 2.37,2.05 3.88,4.52 4.54,7.38 0.67,2.88 1.05,6.3 1.12,10.28 0.07,4.43 1.01,6.65 2.86,6.65 0.63,0 1.43,-0.34 2.41,-1.02l0.83 1.47c-2.49,2.05 -5.19,3.07 -8.15,3.07 -2.25,0 -4.06,-0.34 -5.39,-0.99 -1.35,-0.66 -2.38,-1.67 -3.09,-3.04 -0.7,-1.37 -1.2,-2.98 -1.52,-4.83 -0.3,-1.87 -0.66,-4.72 -1.08,-8.57 -0.43,-4.2 -1.14,-7.26 -2.16,-9.19 -1.02,-1.92 -3.21,-2.88 -6.59,-2.88l-4.68 0 0 26.43 6.34 0 0 1.88 -24.3 0 0 -1.88 6.34 0 0 -52.25 -6.34 0 0 -1.88 24.3 0 0 1.88 -6.34 0 0 23.86zm72.31 28.39l0 -52.25 -5.27 0 0 -1.88 23.23 0 0 1.88 -6.34 0 0 52.25 7.77 0 0.98 18.13 -2.1 0c-1.23,-4.29 -2.72,-7.64 -4.43,-10.04 -1.71,-2.41 -3.52,-4.03 -5.43,-4.9 -1.91,-0.87 -3.94,-1.31 -6.08,-1.31l-37.95 0 0 -1.88 6.34 0 0 -52.25 -6.34 0 0 -1.88 23.24 0 0 1.88 -5.28 0 0 52.25 17.66 0zm31.53 0l0 -52.25 -6.34 0 0 -1.88 23.24 0 0 1.88 -5.28 0 0 43.03 17.5 -38.59 0 -4.44 -5.28 0 0 -1.88 23.24 0 0 1.88 -6.34 0 0 52.25 6.34 0 0 1.88 -23.24 0 0 -1.88 5.28 0 0 -42.83 -17.5 38.88 0 3.95 5.28 0 0 1.88 -23.24 0 0 -1.88 6.34 0zm86.02 0l0 -26.43 -6.65 0c-2.39,0 -4.2,0.53 -5.41,1.57 -1.22,1.04 -1.99,2.22 -2.3,3.54 -0.33,1.31 -0.57,3.03 -0.74,5.17 -0.27,3.86 -0.56,6.85 -0.85,8.95 -0.3,2.09 -0.8,3.93 -1.5,5.49 -0.72,1.55 -1.79,2.75 -3.21,3.56 -1.41,0.81 -3.33,1.22 -5.75,1.22 -3.36,0 -6.28,-0.99 -8.75,-2.99l0.83 -1.71c0.94,0.69 1.82,1.03 2.63,1.03 1.01,0 1.77,-0.37 2.28,-1.09 0.52,-0.71 0.87,-1.61 1.05,-2.69 0.17,-1.07 0.32,-2.52 0.45,-4.35 0.28,-3.62 0.55,-6.2 0.81,-7.75 0.26,-1.55 0.85,-3.05 1.78,-4.47 0.93,-1.44 2.44,-2.67 4.5,-3.7 2.07,-1.02 4.91,-1.83 8.53,-2.46l0 -0.59c-6.63,-0.59 -11.04,-2.2 -13.24,-4.8 -2.19,-2.59 -3.28,-5.47 -3.28,-8.62 0,-2.81 0.62,-5.09 1.87,-6.87 1.26,-1.77 2.88,-3.09 4.89,-3.96 2,-0.87 4.14,-1.46 6.42,-1.74 2.29,-0.3 4.8,-0.44 7.57,-0.44l26.03 0 0 1.88 -6.34 0 0 52.25 6.34 0 0 1.88 -24.31 0 0 -1.88 6.35 0zm0 -28.31l0 -23.94 -5.52 0c-4.18,0 -6.89,0.91 -8.15,2.75 -1.24,1.82 -1.87,4.02 -1.87,6.58l0 4.95c0,1.95 0.24,3.6 0.71,4.97 0.48,1.37 1.48,2.5 2.97,3.38 1.5,0.87 3.69,1.31 6.58,1.31l5.28 0zm69.26 -27.02l24.3 0 0 1.88 -6.34 0 0 4.96 1.68 0c6.35,0 11.24,1.2 14.67,3.61 3.44,2.41 5.7,5.21 6.81,8.42 1.12,3.19 1.67,6.4 1.67,9.62 0,5.86 -1.19,10.42 -3.6,13.67 -2.39,3.25 -5.22,5.43 -8.5,6.54 -3.28,1.11 -6.59,1.67 -9.92,1.67 -1.37,0 -2.3,-0.03 -2.81,-0.09l0 5.05 6.34 0 0 1.88 -24.3 0 0 -1.88 6.34 0 0 -5.05c-0.71,0.06 -1.77,0.09 -3.17,0.09 -4.93,0 -8.91,-0.83 -11.93,-2.48 -3.02,-1.67 -5.22,-3.69 -6.6,-6.09 -1.39,-2.41 -2.24,-4.69 -2.6,-6.85 -0.35,-2.18 -0.52,-4.34 -0.52,-6.46 0,-5.43 1.09,-9.75 3.27,-12.97 2.17,-3.21 4.99,-5.46 8.45,-6.76 3.46,-1.28 7.27,-1.92 11.44,-1.92l1.66 0 0 -4.96 -6.34 0 0 -1.88zm17.96 8.81l0 39.5 3.41 0c2.04,0 3.91,-0.72 5.64,-2.18 1.72,-1.45 2.58,-4.17 2.58,-8.18l0 -19.67c0,-2.42 -0.66,-4.6 -1.95,-6.55 -1.31,-1.95 -3.83,-2.92 -7.56,-2.92l-2.12 0zm-11.62 39.5l0 -39.59c-3.86,0.04 -6.75,0.76 -8.7,2.15 -1.95,1.4 -2.92,3.87 -2.92,7.41l0 19.67c0,4.01 0.87,6.73 2.59,8.18 1.73,1.46 3.62,2.18 5.7,2.18l3.33 0zm49.13 7.02l0 -52.25 -6.34 0 0 -1.88 23.24 0 0 1.88 -5.28 0 0 43.03 17.51 -38.59 0 -4.44 -5.28 0 0 -1.88 23.24 0 0 1.88 -6.34 0 0 52.25 6.34 0 0 1.88 -23.24 0 0 -1.88 5.28 0 0 -42.83 -17.51 38.88 0 3.95 5.28 0 0 1.88 -23.24 0 0 -1.88 6.34 0zm82.69 0l-4.75 -14.45 -15.76 0 -1.13 3.67c-0.71,2.3 -1.07,3.72 -1.07,4.28 0,1.68 0.19,2.95 0.55,3.79 0.35,0.84 1.03,1.47 2,1.87 0.98,0.38 2.42,0.67 4.33,0.84l0 1.88 -16.6 0 0 -1.88c1.68,-0.06 3,-0.45 3.98,-1.14 0.98,-0.7 1.74,-1.64 2.27,-2.83 0.54,-1.18 1.22,-3.06 2.06,-5.61l14.69 -45.75 4.07 0 17.6 55.33 4.6 0 0 1.88 -22.86 0 0 -1.88 6.02 0zm-5.04 -16.42l-7.56 -23.19 -7.46 23.19 15.02 0zm31.24 -35.83l0 -1.88 43.92 0 0 1.88 -6.34 0 0 52.25 6.34 0 0 1.88 -24.3 0 0 -1.88 6.34 0 0 -52.25 -6.94 0c-2.73,0 -4.68,0.5 -5.84,1.51 -1.17,1.01 -1.85,2.26 -2.05,3.76 -0.2,1.5 -0.31,3.91 -0.34,7.21 0,1.46 -0.1,5.28 -0.31,11.46 -0.03,0.7 -0.05,1.46 -0.06,2.28 -0.03,0.81 -0.06,1.56 -0.07,2.21 -0.02,0.66 -0.04,1.14 -0.04,1.46 -0.01,0.31 -0.02,0.89 -0.05,1.76 -0.05,2.41 -0.11,5.26 -0.2,8.54 -0.08,3.28 -0.37,5.99 -0.88,8.11 -0.49,2.12 -1.42,3.82 -2.77,5.1 -1.35,1.28 -3.27,1.92 -5.73,1.92 -1.8,0 -3.34,-0.46 -4.67,-1.41 -1.32,-0.94 -2.34,-2.18 -3.03,-3.72 -0.7,-1.54 -1.05,-3.16 -1.05,-4.87 0,-2.01 0.6,-3.62 1.81,-4.83 1.22,-1.23 2.71,-1.83 4.53,-1.83 1.58,0 2.91,0.57 3.98,1.73 1.07,1.15 1.6,2.69 1.6,4.59 0,1.82 -0.38,3.22 -1.14,4.17 -0.14,0.2 -0.33,0.46 -0.6,0.77 -0.25,0.33 -0.44,0.6 -0.56,0.83 -0.13,0.23 -0.19,0.44 -0.19,0.64 0,0.29 0.07,0.59 0.21,0.86 0.14,0.28 0.33,0.41 0.54,0.41 2.61,0 4.29,-1.33 5.05,-4.01 0.63,-2.26 1.03,-6.05 1.22,-11.37 0.11,-3.79 0.22,-8.52 0.35,-14.19 0.11,-5.68 0.18,-10.08 0.18,-13.17 0,-4.21 -0.6,-6.91 -1.78,-8.11 -1.19,-1.21 -3.02,-1.81 -5.47,-1.81l-1.66 0zm50.86 26.18c0,-4.06 0.67,-7.88 2,-11.47 1.34,-3.6 3.17,-6.72 5.5,-9.38 2.34,-2.67 5.02,-4.73 8.04,-6.2 3.01,-1.47 6.15,-2.21 9.35,-2.21 4.4,0 8.53,1.3 12.38,3.89 3.85,2.59 6.93,6.14 9.23,10.63 2.3,4.49 3.46,9.41 3.46,14.74 0,5.8 -1.23,10.93 -3.71,15.38 -2.47,4.44 -5.64,7.85 -9.52,10.22 -3.89,2.36 -7.83,3.54 -11.84,3.54 -2.64,0 -5.4,-0.61 -8.3,-1.83 -2.89,-1.23 -5.59,-3.07 -8.12,-5.52 -2.52,-2.45 -4.57,-5.51 -6.13,-9.21 -1.56,-3.69 -2.34,-7.88 -2.34,-12.58zm13.36 -9.16c-0.05,1.31 -0.08,3.9 -0.08,7.78 0,5.41 0.03,8.95 0.08,10.6 0.18,5 0.98,9.25 2.43,12.77 1.43,3.52 4.47,5.27 9.1,5.27 3.27,0 5.76,-0.92 7.45,-2.78 1.7,-1.85 2.8,-4.04 3.33,-6.61 0.53,-2.55 0.83,-5.43 0.93,-8.65 0,-2.37 0.05,-5.9 0.17,-10.6 0,-3.82 -0.06,-6.42 -0.17,-7.78 -0.31,-5.99 -1.34,-10.52 -3.08,-13.6 -1.73,-3.08 -4.6,-4.62 -8.63,-4.62 -2.68,0 -4.83,0.73 -6.45,2.17 -1.61,1.44 -2.82,3.49 -3.6,6.17 -0.78,2.66 -1.27,5.96 -1.48,9.88zm61.5 6.84l4.6 0c1.5,0 2.77,-0.19 3.8,-0.56 1.05,-0.37 1.94,-1.27 2.69,-2.71 0.76,-1.44 1.19,-3.66 1.29,-6.65 0.13,-4.32 0.55,-7.7 1.25,-10.15 0.72,-2.45 1.79,-4.2 3.25,-5.27 1.46,-1.07 3.4,-1.6 5.84,-1.6 2.41,0 4.3,0.81 5.65,2.45 1.36,1.63 2.04,3.41 2.04,5.35 0,1.88 -0.51,3.52 -1.56,4.9 -1.03,1.4 -2.5,2.09 -4.4,2.09 -2.04,0 -3.47,-0.67 -4.29,-2.02 -0.82,-1.35 -1.22,-2.92 -1.22,-4.73 0,-0.32 0.04,-0.71 0.11,-1.19 0.08,-0.46 0.12,-0.85 0.12,-1.12 0,-0.86 -0.15,-1.28 -0.45,-1.28 -0.89,0 -1.58,0.17 -2.09,0.51 -0.51,0.34 -0.92,1.08 -1.25,2.22 -0.7,2.67 -1.1,5.95 -1.19,9.84 -0.05,2.55 -0.3,4.63 -0.76,6.27 -0.45,1.62 -1.51,2.86 -3.17,3.73l0.14 0.33c4.64,0.09 8.15,1.15 10.5,3.22 2.37,2.05 3.88,4.52 4.54,7.38 0.67,2.88 1.05,6.3 1.12,10.28 0.07,4.43 1.01,6.65 2.86,6.65 0.63,0 1.43,-0.34 2.41,-1.02l0.83 1.47c-2.49,2.05 -5.19,3.07 -8.15,3.07 -2.25,0 -4.06,-0.34 -5.39,-0.99 -1.35,-0.66 -2.38,-1.67 -3.08,-3.04 -0.71,-1.37 -1.21,-2.98 -1.53,-4.83 -0.3,-1.87 -0.66,-4.72 -1.08,-8.57 -0.42,-4.2 -1.14,-7.26 -2.16,-9.19 -1.02,-1.92 -3.21,-2.88 -6.59,-2.88l-4.68 0 0 26.43 6.34 0 0 1.88 -24.3 0 0 -1.88 6.34 0 0 -52.25 -6.34 0 0 -1.88 24.3 0 0 1.88 -6.34 0 0 23.86z"/>
 </g>
</svg>
