<?xml version="1.0" encoding="UTF-8"?>
<!DOCTYPE svg PUBLIC "-//W3C//DTD SVG 1.1//EN" "http://www.w3.org/Graphics/SVG/1.1/DTD/svg11.dtd">
<!-- Creator: CorelDRAW 2019 (64-Bit) -->
<svg xmlns="http://www.w3.org/2000/svg" xml:space="preserve" width="46px" height="46px" version="1.1" style="shape-rendering:geometricPrecision; text-rendering:geometricPrecision; image-rendering:optimizeQuality; fill-rule:evenodd; clip-rule:evenodd"
viewBox="0 0 161.12 203.38"
 xmlns:xlink="http://www.w3.org/1999/xlink">
 <defs>
  <style type="text/css">
   <![CDATA[
    .fil0 {fill:#9e0047}
   ]]>
  </style>
 </defs>
 <g id="Слой_x0020_1">
  <metadata id="CorelCorpID_0Corel-Layer"/>
  <path class="fil0" d="M88.77 173.21c2.99,-0.67 6.15,-3.29 13.56,-3.98 5.73,-0.54 10.5,-0.32 15.85,1.16 -4.61,0.16 -7.16,-0.75 -13.66,0.09 -10.34,1.34 -22.17,6.38 -28.58,14.64 3.03,-1.07 4.11,-4.05 14.62,-3.68 11.45,0.4 20.62,5.39 31.39,-1.39 2.3,-1.45 8.2,-6.91 8.7,-9.5 -6.71,-1.03 -4.98,-1.09 -11.24,-3.7 -8.58,-3.58 -14.9,-6.06 -22.96,-1.02 -2,1.25 -6.94,5.26 -7.68,7.38zm-32.97 -11.25l0.06 -0.09c0.8,-0.74 0.36,-12.43 0.19,-14.09 -1.32,-12.67 -3.96,-23.18 -10.4,-34.66 -5.34,-9.52 -11.74,-17.72 -19.62,-25.23 -2.11,-2.02 -6.4,-5.17 -8,-7.05 2.96,1.14 9.79,6.4 12.29,8.64 3.98,3.58 6.98,6.56 10.43,10.65 11.17,13.22 13.68,26.55 14.75,27.77 1.79,-6.77 0.81,-19.66 -1.43,-26.37 -2.62,-7.86 -6.07,-12.18 -12.88,-16.8 -6.05,-4.1 -12.92,-7.23 -19.69,-9.95 -3.54,-1.42 -7.11,-2.78 -10.58,-4.37 -4.26,-1.96 -5.51,-2.76 -8.59,-6.25 -3.62,9.51 -2.8,24.1 0.93,33.52 9.32,23.55 42.8,31.63 50.79,56.27 0.93,2.84 1.01,5.46 1.75,8.01zm10.21 -13.74l0.06 0.03c0.14,0.01 2.17,-5.78 2.38,-6.31 0.78,-2.03 1.75,-4.17 2.68,-6.14 9.33,-19.73 22.18,-34.51 39.27,-47.96 5.37,-4.22 15.3,-10.93 21.55,-13.38 -2.44,2.18 -9.78,7.3 -13.86,10.77 -13.87,11.82 -25.16,24.36 -34.89,39.86 -10.03,15.96 -17.63,35.88 -20.16,54.53 -0.76,5.58 -2.02,18.64 -0.93,23.76l1.49 -6.49c11.37,-44.64 71.77,-53.41 90.49,-93.55 5.81,-12.47 7.79,-26.67 6.78,-40.37 -0.39,-5.18 -1.3,-9.12 -2.16,-14.11 -3,3.15 -2.39,3.16 -6.38,5.66 -5.86,3.66 -19.42,7.84 -26.14,10.11 -11.46,3.89 -23.27,8.35 -33.59,14.73 -11.21,6.94 -17.34,13.73 -22.07,26.2 -2.31,6.1 -3.88,13.12 -4.6,19.59 -0.59,5.27 -1.23,18.27 0.08,23.07zm-20.17 -118.51c-6.09,0.28 -19.19,0.09 -24.23,0.07 -6.49,-0.02 -5.31,4.6 -5.31,10.24 0,5.23 0,10.46 0,15.69 0,2.69 -0.43,4.87 1.28,6.47 1.91,1.78 8.58,1.13 11.64,1.13l16.59 0.05 0.07 13.92c4.87,3.41 8.23,5.55 11.55,10.76 0.87,1.37 1.9,3.88 2.67,4.82l6.37 0.06c2.29,-2.44 2.75,-6.92 12.96,-15.34 0.07,-4.65 -0.13,-9.68 0.06,-14.19 7.18,-0.19 16.88,-0.02 24.47,-0.02 3.22,0.01 5.07,-1.34 5.07,-4.72l0 -24.02c0,-6.09 -5.94,-4.87 -12.42,-4.88l-17.12 0c-0.42,-6.93 -0.05,-15.05 -0.05,-22.08 0,-9.65 -2.6,-7.46 -18.36,-7.44l-9.32 0.01c-7.19,0.05 -5.89,3.25 -5.89,11.84 0,5.85 0.11,11.8 -0.03,17.63z"/>
 </g>
</svg>
