<?xml version="1.0" encoding="UTF-8"?>
<!DOCTYPE svg PUBLIC "-//W3C//DTD SVG 1.1//EN" "http://www.w3.org/Graphics/SVG/1.1/DTD/svg11.dtd">
<!-- Creator: CorelDRAW 2019 (64-Bit) -->
<svg xmlns="http://www.w3.org/2000/svg" xml:space="preserve" width="330px" height="200px" version="1.1" style="shape-rendering:geometricPrecision; text-rendering:geometricPrecision; image-rendering:optimizeQuality; fill-rule:evenodd; clip-rule:evenodd"
viewBox="0 0 27.97 16.94"
 xmlns:xlink="http://www.w3.org/1999/xlink">
 <defs>
  <style type="text/css">

  </style>
 </defs>
 <g id="Слой_x0020_1">

  <ellipse  fill="none" stroke="red" cx="13.99" cy="8.47" rx="13.56" ry="8.05"/>
  <path fill="red" fill-rule="nonzero"  d="M8.39 4.55l0.32 0 0 1.06 1.51 0 0 -1.06 0.32 0 0 2.4 -0.32 0 0 -1.06 -1.51 0 0 1.06 -0.32 0 0 -2.4zm5.17 1.3l-2 0c0.01,0.25 0.11,0.45 0.28,0.6 0.18,0.16 0.4,0.24 0.66,0.24 0.15,0 0.29,-0.03 0.41,-0.08 0.12,-0.06 0.23,-0.14 0.32,-0.24l0.19 0.21c-0.11,0.13 -0.24,0.23 -0.4,0.29 -0.16,0.07 -0.34,0.1 -0.53,0.1 -0.25,0 -0.46,-0.05 -0.65,-0.15 -0.19,-0.11 -0.34,-0.25 -0.45,-0.44 -0.1,-0.19 -0.16,-0.4 -0.16,-0.63 0,-0.23 0.05,-0.44 0.16,-0.63 0.1,-0.18 0.24,-0.33 0.41,-0.43 0.18,-0.1 0.38,-0.16 0.6,-0.16 0.23,0 0.42,0.06 0.6,0.16 0.18,0.1 0.32,0.25 0.42,0.43 0.1,0.18 0.15,0.39 0.15,0.63l-0.01 0.1zm-1.16 -1.04c-0.23,0 -0.42,0.08 -0.58,0.22 -0.15,0.15 -0.24,0.34 -0.26,0.58l1.7 0c-0.03,-0.24 -0.11,-0.43 -0.27,-0.58 -0.16,-0.14 -0.35,-0.22 -0.59,-0.22zm3.46 0.03l-0.9 0 0 2.11 -0.33 0 0 -2.11 -0.9 0 0 -0.29 2.13 0 0 0.29zm3.19 0.87c0.33,0.08 0.49,0.27 0.49,0.59 0,0.21 -0.08,0.37 -0.23,0.48 -0.16,0.11 -0.39,0.17 -0.69,0.17l-1.09 0 0 -2.4 1.05 0c0.28,0 0.49,0.06 0.65,0.16 0.15,0.11 0.23,0.26 0.23,0.46 0,0.13 -0.04,0.24 -0.11,0.33 -0.07,0.1 -0.17,0.16 -0.3,0.21zm-1.21 -0.09l0.72 0c0.19,0 0.33,-0.04 0.43,-0.11 0.1,-0.07 0.15,-0.17 0.15,-0.3 0,-0.14 -0.05,-0.24 -0.15,-0.3 -0.1,-0.07 -0.24,-0.1 -0.43,-0.1l-0.72 0 0 0.81zm0.76 1.07c0.21,0 0.36,-0.03 0.47,-0.1 0.1,-0.06 0.15,-0.17 0.15,-0.31 0,-0.14 -0.04,-0.25 -0.14,-0.32 -0.09,-0.07 -0.24,-0.1 -0.44,-0.1l-0.8 0 0 0.83 0.76 0zm-12.71 2.44l0 2.39 -0.32 0 0 -2.11 -1.51 0 0 2.11 -0.32 0 0 -2.39 2.15 0zm2.16 -0.02c0.22,0 0.43,0.05 0.61,0.15 0.18,0.1 0.32,0.25 0.43,0.43 0.1,0.19 0.15,0.4 0.15,0.64 0,0.24 -0.05,0.45 -0.15,0.63 -0.11,0.19 -0.25,0.33 -0.43,0.43 -0.18,0.11 -0.38,0.16 -0.61,0.16 -0.2,0 -0.37,-0.04 -0.53,-0.12 -0.15,-0.08 -0.28,-0.2 -0.38,-0.36l0 1.34 -0.33 0 0 -3.28 0.31 0 0 0.47c0.1,-0.16 0.23,-0.28 0.39,-0.36 0.16,-0.09 0.34,-0.13 0.54,-0.13zm-0.02 2.15c0.16,0 0.31,-0.04 0.45,-0.12 0.14,-0.07 0.25,-0.18 0.32,-0.33 0.08,-0.14 0.12,-0.3 0.12,-0.48 0,-0.19 -0.04,-0.35 -0.12,-0.49 -0.07,-0.14 -0.18,-0.25 -0.32,-0.33 -0.14,-0.08 -0.29,-0.12 -0.45,-0.12 -0.17,0 -0.33,0.04 -0.46,0.12 -0.14,0.08 -0.24,0.19 -0.32,0.33 -0.08,0.14 -0.12,0.3 -0.12,0.49 0,0.18 0.04,0.34 0.12,0.48 0.08,0.15 0.18,0.26 0.32,0.33 0.13,0.08 0.29,0.12 0.46,0.12zm2.9 0.29c-0.23,0 -0.44,-0.06 -0.63,-0.16 -0.18,-0.1 -0.33,-0.25 -0.43,-0.44 -0.11,-0.18 -0.16,-0.39 -0.16,-0.62 0,-0.24 0.05,-0.45 0.16,-0.63 0.1,-0.19 0.25,-0.33 0.43,-0.44 0.19,-0.1 0.4,-0.15 0.63,-0.15 0.23,0 0.44,0.05 0.62,0.15 0.19,0.11 0.33,0.25 0.44,0.44 0.1,0.18 0.16,0.39 0.16,0.63 0,0.23 -0.06,0.44 -0.16,0.62 -0.11,0.19 -0.25,0.34 -0.44,0.44 -0.18,0.1 -0.39,0.16 -0.62,0.16zm0 -0.29c0.17,0 0.32,-0.04 0.46,-0.12 0.13,-0.07 0.24,-0.18 0.31,-0.33 0.08,-0.14 0.12,-0.3 0.12,-0.48 0,-0.19 -0.04,-0.35 -0.12,-0.49 -0.07,-0.14 -0.18,-0.26 -0.31,-0.33 -0.14,-0.08 -0.29,-0.12 -0.46,-0.12 -0.17,0 -0.32,0.04 -0.46,0.12 -0.13,0.07 -0.24,0.19 -0.32,0.33 -0.08,0.14 -0.11,0.3 -0.11,0.49 0,0.18 0.03,0.34 0.11,0.48 0.08,0.15 0.19,0.26 0.32,0.33 0.14,0.08 0.29,0.12 0.46,0.12zm4.23 -0.02l0 0.86 -0.3 0 0 -0.58 -2.15 0 0 0.58 -0.3 0 0 -0.86 0.13 0c0.16,-0.01 0.27,-0.13 0.33,-0.35 0.06,-0.23 0.1,-0.55 0.12,-0.96l0.03 -0.8 1.77 0 0 2.11 0.37 0zm-1.87 -1.29c-0.02,0.34 -0.05,0.62 -0.09,0.84 -0.04,0.22 -0.12,0.37 -0.23,0.45l1.5 0 0 -1.83 -1.16 0 -0.02 0.54zm3.33 -0.84c0.31,0 0.55,0.08 0.72,0.23 0.17,0.16 0.25,0.39 0.25,0.7l0 1.48 -0.31 0 0 -0.37c-0.07,0.13 -0.18,0.22 -0.32,0.29 -0.14,0.07 -0.31,0.11 -0.51,0.11 -0.26,0 -0.48,-0.07 -0.63,-0.19 -0.16,-0.13 -0.24,-0.3 -0.24,-0.51 0,-0.2 0.07,-0.37 0.22,-0.49 0.15,-0.13 0.38,-0.19 0.7,-0.19l0.77 0 0 -0.15c0,-0.2 -0.06,-0.36 -0.18,-0.47 -0.11,-0.1 -0.28,-0.16 -0.5,-0.16 -0.16,0 -0.3,0.03 -0.44,0.08 -0.14,0.05 -0.26,0.12 -0.36,0.2l-0.15 -0.24c0.12,-0.1 0.27,-0.18 0.44,-0.24 0.17,-0.05 0.35,-0.08 0.54,-0.08zm-0.12 2.18c0.19,0 0.34,-0.04 0.47,-0.12 0.13,-0.09 0.23,-0.21 0.3,-0.37l0 -0.39 -0.76 0c-0.41,0 -0.61,0.15 -0.61,0.43 0,0.14 0.05,0.25 0.16,0.33 0.1,0.08 0.25,0.12 0.44,0.12zm4.05 -0.83l-0.52 0 0 1.06 -0.32 0 0 -1.06 -0.52 0 -0.73 1.06 -0.39 0 0.86 -1.23 -0.79 -1.16 0.35 0 0.7 1.05 0.52 0 0 -1.05 0.32 0 0 1.05 0.52 0 0.71 -1.05 0.35 0 -0.79 1.16 0.86 1.23 -0.39 0 -0.74 -1.06zm3.68 -0.03l-2.01 0c0.02,0.25 0.11,0.45 0.29,0.6 0.17,0.15 0.39,0.23 0.65,0.23 0.15,0 0.29,-0.03 0.41,-0.08 0.13,-0.05 0.24,-0.13 0.33,-0.23l0.18 0.21c-0.11,0.12 -0.24,0.22 -0.4,0.29 -0.16,0.06 -0.33,0.1 -0.53,0.1 -0.24,0 -0.46,-0.06 -0.65,-0.16 -0.19,-0.1 -0.34,-0.25 -0.44,-0.44 -0.11,-0.18 -0.16,-0.39 -0.16,-0.62 0,-0.24 0.05,-0.45 0.15,-0.63 0.1,-0.19 0.24,-0.33 0.42,-0.44 0.18,-0.1 0.38,-0.15 0.6,-0.15 0.22,0 0.42,0.05 0.6,0.15 0.17,0.11 0.31,0.25 0.41,0.43 0.1,0.19 0.15,0.4 0.15,0.64l0 0.1zm-1.16 -1.04c-0.23,0 -0.43,0.07 -0.58,0.22 -0.16,0.15 -0.25,0.34 -0.27,0.57l1.7 0c-0.02,-0.23 -0.11,-0.42 -0.27,-0.57 -0.15,-0.15 -0.35,-0.22 -0.58,-0.22z"/>
 </g>
</svg>
