<?xml version="1.0" encoding="UTF-8"?>
<!DOCTYPE svg PUBLIC "-//W3C//DTD SVG 1.1//EN" "http://www.w3.org/Graphics/SVG/1.1/DTD/svg11.dtd">
<!-- Creator: CorelDRAW 2019 (64-Bit) -->
<svg xmlns="http://www.w3.org/2000/svg" xml:space="preserve" width="630px" height="629px" version="1.1" style="shape-rendering:geometricPrecision; text-rendering:geometricPrecision; image-rendering:optimizeQuality; fill-rule:evenodd; clip-rule:evenodd"
viewBox="0 0 85.44 85.28"
 xmlns:xlink="http://www.w3.org/1999/xlink">

 <g id="Слой_x0020_1">
  <metadata id="CorelCorpID_0Corel-Layer"/>
  <path fill="#EBD72D" d="M47.67 54.42c2.34,1.86 10.36,8.22 6,11.36 -4.26,3.08 -8.45,-4.86 -11.79,-6.64 -1.66,2.3 -8.76,10.85 -11.56,5.85 -2.04,-3.64 4.39,-8.86 6.7,-10.78l-2.65 -1.34c-2.76,-1.1 -5.22,-1.8 -5.23,-4.88 -0.05,-8.74 8.76,2.57 19.41,-2.03 3.95,-1.7 8.1,-2.97 7.08,3.96 -0.67,1.13 -4.99,2.83 -6.01,3.29l-1.58 0.92c-0.06,-0.11 -0.26,0.18 -0.37,0.29zm-8.09 -33.89c7.44,-1.93 13.09,3.31 14.51,8.66 1.89,7.11 -3.06,13.13 -8.31,14.54 -15.61,4.2 -21.71,-19.17 -6.2,-23.2zm-0.3 64.75c15.64,0 23.65,-2.35 34.89,-13.69 18.16,-18.32 14.98,-53.29 -13.98,-67.67 -22.96,-11.41 -52.6,3.39 -58.78,27.67 -7.38,28.97 15.58,53.69 37.87,53.69zm1.09 -56.92c-6.04,4.48 0.33,10.46 4.94,7.96 5.04,-2.73 0.71,-12.16 -4.94,-7.96z"/>
 </g>
</svg>
