<?xml version="1.0" encoding="UTF-8"?>
<!DOCTYPE svg PUBLIC "-//W3C//DTD SVG 1.1//EN" "http://www.w3.org/Graphics/SVG/1.1/DTD/svg11.dtd">
<!-- Creator: CorelDRAW 2019 (64-Bit) -->
<svg xmlns="http://www.w3.org/2000/svg" xml:space="preserve" width="377px" height="356px" version="1.1" style="shape-rendering:geometricPrecision; text-rendering:geometricPrecision; image-rendering:optimizeQuality; fill-rule:evenodd; clip-rule:evenodd"
viewBox="0 0 21.87 20.63" xmlns:xlink="http://www.w3.org/1999/xlink">

 <g id="Слой_x0020_1">
  <metadata id="CorelCorpID_0Corel-Layer"/>
  <path fill="#EB1575" d="M8.81 15.46c-4.08,-0.01 -7.24,-3.46 -7.33,-7.14 -0.08,-3.68 3.55,-6.77 7.39,-6.89 3.84,-0.11 7.54,2.95 7.54,6.88 0,3.92 -3.53,7.16 -7.6,7.15zm-8.81 -7.14c-0.05,5.48 4.93,8.55 8.83,8.57 3.23,0.01 5.52,-1.52 6.1,-2.11l0.71 0.65c-0.16,0.25 -0.11,0.71 0.07,0.9 0.62,0.68 3.87,4.16 4.65,4.28 0.78,0.12 1.68,-0.61 1.49,-1.38 -0.19,-0.78 -4.41,-4.46 -4.62,-4.51 -0.19,-0.05 -0.47,-0.1 -0.85,0.02l-0.71 -0.66c1.24,-1.53 2.18,-2.35 2.2,-5.76 0.03,-4.99 -4.5,-8.34 -8.96,-8.32 -4.47,0.02 -8.86,3.15 -8.91,8.32zm8.69 -5.84l-0.49 0.04c-0.11,0.08 -0.46,0.12 -0.62,0.17 -0.2,0.05 -0.4,0.11 -0.58,0.18 -2.57,0.99 -4.45,3.32 -4.45,5.97l0.06 0.37c0,-0.08 0,-0.08 0.04,-0.16 0.02,-0.05 0.02,-0.07 0.04,-0.12 0.05,-0.09 0.03,-0.05 0.07,-0.09 0,-0.1 0.16,-0.47 0.22,-0.51 0.12,-0.39 1.22,-2.12 1.56,-2.35l0.09 -0.13c0.04,-0.06 0.07,-0.08 0.12,-0.13 0.66,-0.7 1.02,-1.05 1.86,-1.67 0.39,-0.28 0.79,-0.53 1.25,-0.78 0.2,-0.11 1.21,-0.63 1.41,-0.64 0.06,-0.07 0.04,-0.04 0.14,-0.07l0.22 -0.09c-0.07,-0.03 -0.02,-0.02 -0.13,-0.02l-0.81 0.03z"/>
 </g>
</svg>
