<?xml version="1.0" encoding="UTF-8"?>
<!DOCTYPE svg PUBLIC "-//W3C//DTD SVG 1.1//EN" "http://www.w3.org/Graphics/SVG/1.1/DTD/svg11.dtd">
<!-- Creator: CorelDRAW 2019 (64-Bit) -->
<svg xmlns="http://www.w3.org/2000/svg" xml:space="preserve" width="625px" height="628px" version="1.1" style="shape-rendering:geometricPrecision; text-rendering:geometricPrecision; image-rendering:optimizeQuality; fill-rule:evenodd; clip-rule:evenodd"
viewBox="0 0 31 31.15"
 xmlns:xlink="http://www.w3.org/1999/xlink">
 <defs>
  <style type="text/css">
   <![CDATA[
    .fil0 {fill:#EBD72D}
   ]]>
  </style>
 </defs>
 <g id="Слой_x0020_1">
  <metadata id="CorelCorpID_0Corel-Layer"/>
  <path class="fil0" d="M31 14.26l0 2.92c-0.18,1.8 -0.67,3.59 -1.52,5.28 -2.09,4.18 -6.13,7.3 -10.72,8.29 -3.63,0.78 -6.03,0.43 -9.49,-0.95 -3.12,-1.24 -6.41,-4.44 -7.82,-7.48 -1.38,-2.94 -1.45,-4.6 -1.45,-7.85 0,-4.01 2.53,-8.01 4.6,-10.07 5.81,-5.83 15.95,-5.86 21.7,-0.11 2.7,2.7 4.35,6.27 4.7,9.97zm-12.53 11.55c-0.18,-1.65 -0.6,-3.48 -1.38,-5.13 -0.97,-0.05 -2.47,-0.23 -3.28,-0.35 -1.52,-2.88 -1.11,-6.67 0.22,-9.29 3,-0.07 2.98,0.26 5.15,-4.94 -2.82,-3.73 -5.98,-1.36 -7.36,0.6 -5.16,7.29 -1.46,25.29 6.65,19.11z"/>
 </g>
</svg>
