<?xml version="1.0" encoding="UTF-8"?>
<!DOCTYPE svg PUBLIC "-//W3C//DTD SVG 1.1//EN" "http://www.w3.org/Graphics/SVG/1.1/DTD/svg11.dtd">
<!-- Creator: CorelDRAW 2019 (64-Bit) -->
<svg xmlns="http://www.w3.org/2000/svg" xml:space="preserve" width="631px" height="629px" version="1.1" style="shape-rendering:geometricPrecision; text-rendering:geometricPrecision; image-rendering:optimizeQuality; fill-rule:evenodd; clip-rule:evenodd"
viewBox="0 0 36.55 36.49"
 xmlns:xlink="http://www.w3.org/1999/xlink">
 <defs>
  <style type="text/css">
   <![CDATA[
    .fil0 {fill:#EBD72D}
   ]]>
  </style>
 </defs>
 <g id="Слой_x0020_1">
  <metadata id="CorelCorpID_0Corel-Layer"/>
  <path class="fil0" d="M7.93 18.13c0.54,-1.25 3.15,-1.75 4.51,-2.25 2.87,-1.06 13.15,-5.36 14.62,-5.08 0.25,1.5 -2.46,14.49 -3.08,16.08 -2.06,0.27 -3.25,-1.98 -5.91,-3.39 -0.46,0.52 -0.89,0.93 -1.43,1.42 -0.56,0.52 -0.71,0.94 -1.71,1.02 -1.3,-1.21 -1.05,-3.85 -2.11,-5.45 -0.9,-1.34 -4.14,-0.78 -4.89,-2.35zm9.9 18.36c17.81,0 24.16,-20.36 13.59,-30.98 -7.25,-7.3 -18.86,-7.35 -26.09,-0.12 -2.89,2.88 -5.17,7.32 -5.33,12.76 -0.06,2.2 0.73,5.29 1.54,7.33 2.37,5.98 9.1,11.01 16.29,11.01zm-4.3 -16.76l1.51 4.71c0.51,-3.28 -0.14,-3.12 3.71,-6.2 0.95,-0.75 1.6,-1.51 2.56,-2.28 0.59,-0.48 2.12,-1.8 2.33,-2.45l-10.11 6.22z"/>
 </g>
</svg>
