<?xml version="1.0" encoding="UTF-8"?>
<!DOCTYPE svg PUBLIC "-//W3C//DTD SVG 1.1//EN" "http://www.w3.org/Graphics/SVG/1.1/DTD/svg11.dtd">
<!-- Creator: CorelDRAW 2019 (64-Bit) -->
<svg xmlns="http://www.w3.org/2000/svg" xml:space="preserve" width="2239px" height="657px" version="1.1" style="shape-rendering:geometricPrecision; text-rendering:geometricPrecision; image-rendering:optimizeQuality; fill-rule:evenodd; clip-rule:evenodd"
viewBox="0 0 492.47 144.5"
 xmlns:xlink="http://www.w3.org/1999/xlink">

 <g id="Слой_x0020_1">
  <metadata id="CorelCorpID_0Corel-Layer"/>
  <path fill="#EBD72D" d="M183.02 57.41c4.67,-13.85 2.99,-8.13 1.25,-14.87 -1.56,-5.99 -0.11,-11.81 2.91,-15.98 6.1,-8.42 19.59,-10.84 28.46,-2.78 12.98,11.79 2.98,36.29 -16.86,32.46 -3.92,-0.76 -3.82,-2.57 -8.24,-1.08 -2.23,0.75 -5.31,1.93 -7.52,2.25zm-18.86 -20.53l0 2.52c0,19.42 17.5,36.87 36.87,36.87 6.98,0 11.85,-0.84 17.52,-3.69 19.74,-9.92 27.14,-32.67 18.35,-50.36 -2.53,-5.09 -3.81,-7.07 -7.71,-10.97 -24.39,-24.39 -65.03,-6.04 -65.03,25.63zm29.11 -1.81c-0.54,-2.41 -0.18,-6.46 4.61,-6.04 2.48,5.23 2.25,4.99 0.23,7.34 1.1,2.81 3.72,5.73 6.96,6.55 0.66,-0.53 1.82,-1.56 2.53,-2.26 1.8,0.53 3.49,1.46 4.88,2.46 -0.85,10.46 -17.18,0.92 -19.21,-8.05zm-4.95 17.85c2.64,-0.52 4.32,-1.91 6.74,-1.01 2.44,0.91 3.25,1.69 6.46,1.91 5.58,0.37 9,-1.67 11.93,-4.46 15.34,-14.61 -8.22,-37.99 -23.02,-21.02 -2.48,2.85 -4.07,7.55 -3.3,12.39 0.5,3.13 1.26,3.55 2.26,5.85 0.79,1.82 -0.65,3.81 -1.07,6.34z"/>
  <path fill="#EBD72D" d="M283.56 38.15c1.14,-2.61 6.6,-3.65 9.44,-4.7 6,-2.22 27.48,-11.22 30.56,-10.62 0.52,3.14 -5.14,30.3 -6.43,33.61 -4.31,0.57 -6.8,-4.13 -12.36,-7.08 -0.96,1.09 -1.87,1.93 -3,2.97 -1.16,1.08 -1.47,1.96 -3.57,2.13 -2.71,-2.53 -2.19,-8.06 -4.42,-11.39 -1.88,-2.82 -8.64,-1.64 -10.22,-4.92zm20.71 38.39c37.24,0 50.5,-42.57 28.41,-64.79 -15.15,-15.24 -39.44,-15.37 -54.56,-0.25 -6.03,6.03 -10.8,15.32 -11.13,26.7 -0.13,4.59 1.52,11.05 3.21,15.33 4.96,12.49 19.03,23.01 34.07,23.01zm-8.99 -35.05l3.15 9.85c1.06,-6.85 -0.3,-6.51 7.77,-12.95 1.98,-1.59 3.34,-3.17 5.33,-4.77 1.25,-1.01 4.44,-3.77 4.89,-5.14l-21.14 13.01z"/>
  <path fill="#EBD72D" d="M446.86 35.22l0 7.13c-0.42,4.41 -1.63,8.79 -3.7,12.92 -5.12,10.21 -14.98,17.83 -26.22,20.25 -8.85,1.9 -14.73,1.04 -23.2,-2.33 -7.61,-3.03 -15.64,-10.84 -19.11,-18.26 -3.36,-7.2 -3.53,-11.25 -3.53,-19.19 0,-9.82 6.19,-19.58 11.23,-24.63 14.21,-14.25 38.98,-14.32 53.04,-0.26 6.6,6.6 10.64,15.32 11.49,24.37zm-30.61 28.23c-0.45,-4.04 -1.46,-8.51 -3.39,-12.53 -2.36,-0.14 -6.03,-0.56 -8,-0.87 -3.72,-7.04 -2.72,-16.31 0.52,-22.7 7.34,-0.16 7.29,0.63 12.59,-12.07 -6.88,-9.12 -14.6,-3.32 -17.98,1.45 -12.63,17.83 -3.57,61.83 16.26,46.72z"/>
  <path fill="#EBD72D" fill-rule="nonzero" d="M13.96 101.26l5.68 0 0 17.56 13.96 0 0 6.84 -13.96 0 0 17.64 -5.68 0 0 -17.64 -13.96 0 0 -6.84 13.96 0 0 -17.56zm33.5 9.87l-2.09 0 6.43 -13.96 22.98 0 0 3.17 -8.73 12.99c-2.17,3.22 -3.9,6.4 -5.19,9.52 -1.29,3.13 -1.93,5.65 -1.93,7.53 0,0.77 0.14,1.94 0.43,3.48 0.28,1.53 0.43,2.7 0.43,3.5 0,1.98 -0.5,3.6 -1.49,4.87 -0.98,1.28 -2.23,1.91 -3.72,1.91 -1.49,0 -2.7,-0.49 -3.6,-1.48 -0.91,-0.99 -1.36,-2.28 -1.36,-3.89 0,-1.88 0.71,-4.24 2.12,-7.1 1.4,-2.86 3.94,-6.95 7.61,-12.27l9.4 -13.7 -17.22 0c-0.41,0 -0.8,0.16 -1.16,0.46 -0.37,0.32 -0.73,0.8 -1.08,1.47l-1.83 3.5zm66.52 12.85c-1.33,1.04 -2.64,1.8 -3.92,2.32 -1.28,0.52 -2.56,0.77 -3.86,0.77 -2.97,0 -5.41,-1.16 -7.28,-3.48 -1.89,-2.31 -2.83,-5.28 -2.83,-8.92 0,-5.02 1.65,-9.33 4.94,-12.94 3.3,-3.61 7.26,-5.41 11.9,-5.41 3.92,0 7.01,1.47 9.31,4.41 2.28,2.94 3.43,6.92 3.43,11.94 0,4.05 -0.93,8.12 -2.77,12.19 -1.86,4.1 -4.43,7.7 -7.72,10.82 -2.69,2.57 -5.63,4.58 -8.8,6.04 -3.16,1.46 -6.61,2.39 -10.32,2.78l0 -2.33c4.57,-0.75 8.44,-2.73 11.58,-5.93 3.14,-3.18 5.25,-7.27 6.34,-12.26zm0.94 -4.16c0.72,-3.13 1.26,-6.13 1.63,-9.03 0.37,-2.89 0.57,-5.31 0.57,-7.26 0,-1.76 -0.34,-3.07 -1,-3.9 -0.66,-0.84 -1.7,-1.26 -3.13,-1.26 -1.51,0 -2.76,0.44 -3.72,1.33 -0.98,0.88 -1.69,2.23 -2.14,4.04 -0.56,2.22 -1.03,4.94 -1.42,8.15 -0.4,3.19 -0.6,5.86 -0.6,7.99 0,1.56 0.25,2.72 0.76,3.47 0.51,0.74 1.29,1.11 2.35,1.11 1.09,0 2.21,-0.39 3.38,-1.21 1.17,-0.8 2.28,-1.94 3.32,-3.43zm33.53 -21.45c-1.67,0 -3.02,0.84 -4.03,2.55 -1,1.69 -2,4.92 -2.96,9.67 -1.14,5.6 -2.07,10.91 -2.78,15.91 -0.71,5.01 -1.06,8.34 -1.06,10.03 0,2.05 0.3,3.52 0.9,4.4 0.59,0.87 1.57,1.31 2.94,1.31 1.62,0 2.92,-0.75 3.87,-2.27 0.97,-1.52 1.92,-4.37 2.85,-8.58 0.31,-1.38 0.66,-3.08 1.02,-5.11 0.36,-2.04 0.77,-4.39 1.22,-7.08 0.76,-5.01 1.28,-8.55 1.56,-10.64 0.27,-2.09 0.4,-3.61 0.4,-4.55 0,-2.01 -0.31,-3.46 -0.91,-4.34 -0.61,-0.87 -1.61,-1.3 -3.02,-1.3zm-18.76 28.63c0,-3.46 0.41,-6.87 1.2,-10.22 0.79,-3.35 1.94,-6.46 3.46,-9.3 1.91,-3.6 4.1,-6.34 6.58,-8.21 2.48,-1.87 5.17,-2.81 8.07,-2.81 3.49,0 6.25,1.51 8.27,4.53 2.02,3.02 3.03,7.16 3.03,12.41 0,3.35 -0.39,6.69 -1.17,10.04 -0.79,3.34 -1.91,6.43 -3.37,9.28 -1.85,3.66 -4.03,6.49 -6.55,8.46 -2.52,1.98 -5.2,2.96 -8.04,2.96 -3.61,0 -6.42,-1.51 -8.44,-4.55 -2.02,-3.02 -3.04,-7.23 -3.04,-12.59zm50.07 -6.48c-1.34,0 -2.46,0.39 -3.37,1.18 -0.91,0.79 -1.64,2 -2.18,3.63 -0.62,1.79 -1.13,3.87 -1.53,6.24 -0.4,2.36 -0.6,4.46 -0.6,6.3 0,1.56 0.32,2.68 0.97,3.36 0.65,0.67 1.69,1.01 3.15,1.01 1.4,0 2.57,-0.31 3.5,-0.93 0.92,-0.62 1.62,-1.55 2.08,-2.79 0.67,-1.85 1.24,-3.97 1.69,-6.32 0.45,-2.35 0.67,-4.41 0.67,-6.17 0,-1.8 -0.37,-3.16 -1.12,-4.1 -0.75,-0.94 -1.84,-1.41 -3.26,-1.41zm3.63 -22.29c-1.16,0 -2.1,0.33 -2.83,1 -0.73,0.67 -1.31,1.74 -1.74,3.23 -0.45,1.49 -0.83,3.25 -1.12,5.3 -0.3,2.05 -0.45,3.88 -0.45,5.51 0,1.72 0.28,2.99 0.84,3.82 0.56,0.83 1.41,1.24 2.56,1.24 1.08,0 1.95,-0.33 2.6,-0.98 0.66,-0.66 1.26,-1.81 1.83,-3.47 0.52,-1.54 0.98,-3.49 1.39,-5.86 0.4,-2.38 0.6,-4.32 0.6,-5.83 0,-1.27 -0.32,-2.25 -0.96,-2.93 -0.63,-0.69 -1.54,-1.03 -2.72,-1.03zm0.24 21.04l0 0.48c3.17,0.87 5.49,2.14 6.96,3.82 1.48,1.67 2.22,3.88 2.22,6.61 0,4.17 -1.48,7.55 -4.45,10.11 -2.96,2.57 -6.93,3.85 -11.91,3.85 -4.23,0 -7.45,-0.96 -9.69,-2.89 -2.23,-1.93 -3.35,-4.7 -3.35,-8.32 0,-3.61 1.14,-6.58 3.43,-8.95 2.3,-2.36 5.59,-3.93 9.9,-4.71l0 -0.53c-2.57,-0.61 -4.52,-1.7 -5.81,-3.24 -1.3,-1.56 -1.95,-3.55 -1.95,-5.99 0,-3.64 1.39,-6.73 4.16,-9.26 2.78,-2.53 6.24,-3.79 10.39,-3.79 3.51,0 6.32,0.94 8.42,2.81 2.11,1.87 3.16,4.32 3.16,7.35 0,3.13 -1.03,5.83 -3.1,8.13 -2.07,2.3 -4.86,3.8 -8.38,4.52zm32.05 24.03l0 -6.27c8.96,-7.28 14.78,-12.91 17.49,-16.89 2.7,-3.99 4.05,-8.23 4.05,-12.73 0,-2.76 -0.5,-4.87 -1.49,-6.34 -0.99,-1.47 -2.41,-2.21 -4.26,-2.21 -1.83,0 -3.48,0.53 -4.96,1.59 -1.48,1.06 -2.22,2.17 -2.22,3.34 0,0.6 0.45,0.93 1.34,1 0.7,0.02 1.24,0.11 1.63,0.28 0.83,0.34 1.47,0.89 1.92,1.63 0.46,0.75 0.69,1.59 0.69,2.54 0,1.45 -0.39,2.61 -1.15,3.52 -0.77,0.89 -1.78,1.34 -3.05,1.34 -1.21,0 -2.27,-0.64 -3.17,-1.92 -0.91,-1.27 -1.36,-2.79 -1.36,-4.56 0,-3.03 1.16,-5.64 3.5,-7.85 2.33,-2.2 5.21,-3.31 8.61,-3.31 3.85,0 7,1.11 9.44,3.33 2.44,2.21 3.66,4.98 3.66,8.31 0,3.34 -1.01,6.36 -3.01,9.06 -2,2.72 -6.38,6.49 -13.14,11.34l-9.01 6.47 16.3 0c0.16,0 0.33,-0.01 0.53,-0.03 0.19,-0.02 0.31,-0.04 0.35,-0.04 0.64,0 1.14,-0.16 1.53,-0.48 0.38,-0.32 0.68,-0.83 0.88,-1.55l1.04 -3.82 1.6 0 -3.01 14.25 -24.73 0zm52.03 -25.19l0 0.49c3.46,0.34 6.11,1.43 7.94,3.27 1.83,1.83 2.75,4.29 2.75,7.37 0,4.17 -1.57,7.7 -4.71,10.58 -3.14,2.88 -7.09,4.32 -11.83,4.32 -3.39,0 -6.06,-0.81 -8.03,-2.44 -1.96,-1.62 -2.94,-3.8 -2.94,-6.53 0,-1.81 0.39,-3.28 1.17,-4.38 0.79,-1.12 1.83,-1.67 3.14,-1.67 1.14,0 2.09,0.46 2.84,1.38 0.74,0.91 1.12,2.09 1.12,3.51 0,1.81 -0.62,3.1 -1.84,3.89 -1.23,0.78 -1.84,1.37 -1.84,1.75 0,0.63 0.48,1.2 1.44,1.73 0.94,0.53 2.05,0.79 3.28,0.79 2.65,0 4.79,-1.49 6.4,-4.49 1.62,-3 2.44,-6.96 2.44,-11.87 0,-1.96 -0.45,-3.45 -1.36,-4.47 -0.91,-1.02 -2.24,-1.53 -3.99,-1.53 -0.51,0 -1.12,0.08 -1.79,0.25 -0.68,0.16 -1.12,0.24 -1.32,0.24 -0.72,0 -1.21,-0.13 -1.5,-0.4 -0.3,-0.27 -0.44,-0.7 -0.44,-1.3 0,-0.44 0.12,-0.77 0.38,-0.99 0.25,-0.22 0.62,-0.34 1.11,-0.34 0.34,0 0.82,0.06 1.45,0.18 0.62,0.11 1.08,0.17 1.36,0.17 2.15,0 4.09,-1.3 5.84,-3.92 1.74,-2.61 2.61,-5.67 2.61,-9.18 0,-2.18 -0.39,-3.79 -1.17,-4.81 -0.77,-1.04 -1.98,-1.55 -3.61,-1.55 -1.02,0 -1.97,0.25 -2.83,0.77 -0.86,0.52 -1.29,1.06 -1.29,1.64 0,0.24 0.41,0.82 1.23,1.7 0.83,0.88 1.24,1.93 1.24,3.15 0,1.31 -0.33,2.34 -0.97,3.09 -0.65,0.77 -1.53,1.14 -2.65,1.14 -1.08,0 -1.97,-0.42 -2.65,-1.27 -0.68,-0.85 -1.03,-1.95 -1.03,-3.31 0,-2.41 1.03,-4.46 3.07,-6.15 2.04,-1.68 4.6,-2.53 7.68,-2.53 3.43,0 6.22,0.93 8.4,2.78 2.17,1.84 3.25,4.18 3.25,7.03 0,2.96 -1.09,5.51 -3.28,7.64 -2.19,2.14 -5.21,3.56 -9.07,4.27zm22.69 0.29l4.42 -18.17c0.28,-1.16 0.74,-2.01 1.37,-2.57 0.64,-0.56 1.48,-0.84 2.53,-0.84l13.92 0c0.58,0 1.02,-0.13 1.33,-0.38 0.31,-0.26 0.71,-0.91 1.19,-1.95l1.54 0c-1.08,4.34 -2.17,7.19 -3.26,8.54 -1.1,1.36 -3.11,2.04 -6.05,2.04l-11.78 0 -3.25 12.78c2.2,-0.87 4.08,-1.5 5.62,-1.86 1.54,-0.37 2.98,-0.55 4.31,-0.55 3.65,0 6.56,1.13 8.74,3.38 2.17,2.27 3.26,5.27 3.26,9.01 0,4.5 -1.71,8.36 -5.13,11.56 -3.43,3.21 -7.67,4.82 -12.74,4.82 -3.04,0 -5.48,-0.78 -7.3,-2.37 -1.83,-1.59 -2.74,-3.66 -2.74,-6.23 0,-1.72 0.39,-3.12 1.18,-4.19 0.78,-1.07 1.79,-1.59 3,-1.59 1.21,0 2.2,0.42 2.98,1.25 0.78,0.84 1.17,1.93 1.17,3.26 0,1.56 -0.54,2.83 -1.61,3.81 -1.07,0.97 -1.61,1.67 -1.61,2.06 0,0.59 0.38,1.07 1.14,1.43 0.76,0.35 1.77,0.53 3.04,0.53 2.79,0 5,-1.46 6.64,-4.37 1.63,-2.92 2.45,-6.87 2.45,-11.85 0,-2.46 -0.56,-4.31 -1.67,-5.55 -1.12,-1.24 -2.78,-1.86 -5,-1.86 -1.47,0 -2.95,0.27 -4.46,0.81 -1.53,0.54 -2.31,0.81 -2.36,0.81 -0.32,0 -0.56,-0.08 -0.74,-0.26 -0.16,-0.17 -0.24,-0.43 -0.24,-0.77 0,-0.12 0.02,-0.32 0.08,-0.59 0.02,-0.07 0.03,-0.12 0.03,-0.14zm64.33 -0.29l0 0.49c3.46,0.34 6.11,1.43 7.94,3.27 1.83,1.83 2.75,4.29 2.75,7.37 0,4.17 -1.57,7.7 -4.71,10.58 -3.14,2.88 -7.09,4.32 -11.83,4.32 -3.39,0 -6.06,-0.81 -8.03,-2.44 -1.96,-1.62 -2.94,-3.8 -2.94,-6.53 0,-1.81 0.39,-3.28 1.17,-4.38 0.79,-1.12 1.83,-1.67 3.14,-1.67 1.14,0 2.09,0.46 2.84,1.38 0.74,0.91 1.12,2.09 1.12,3.51 0,1.81 -0.62,3.1 -1.84,3.89 -1.23,0.78 -1.84,1.37 -1.84,1.75 0,0.63 0.48,1.2 1.44,1.73 0.94,0.53 2.05,0.79 3.28,0.79 2.65,0 4.79,-1.49 6.4,-4.49 1.62,-3 2.44,-6.96 2.44,-11.87 0,-1.96 -0.45,-3.45 -1.36,-4.47 -0.91,-1.02 -2.24,-1.53 -3.99,-1.53 -0.51,0 -1.12,0.08 -1.79,0.25 -0.68,0.16 -1.12,0.24 -1.32,0.24 -0.71,0 -1.21,-0.13 -1.5,-0.4 -0.3,-0.27 -0.44,-0.7 -0.44,-1.3 0,-0.44 0.12,-0.77 0.38,-0.99 0.25,-0.22 0.63,-0.34 1.11,-0.34 0.34,0 0.82,0.06 1.45,0.18 0.62,0.11 1.08,0.17 1.36,0.17 2.15,0 4.09,-1.3 5.84,-3.92 1.74,-2.61 2.61,-5.67 2.61,-9.18 0,-2.18 -0.39,-3.79 -1.17,-4.81 -0.77,-1.04 -1.98,-1.55 -3.61,-1.55 -1.02,0 -1.97,0.25 -2.83,0.77 -0.86,0.52 -1.29,1.06 -1.29,1.64 0,0.24 0.41,0.82 1.23,1.7 0.83,0.88 1.24,1.93 1.24,3.15 0,1.31 -0.33,2.34 -0.97,3.09 -0.65,0.77 -1.53,1.14 -2.65,1.14 -1.08,0 -1.97,-0.42 -2.65,-1.27 -0.68,-0.85 -1.03,-1.95 -1.03,-3.31 0,-2.41 1.03,-4.46 3.07,-6.15 2.04,-1.68 4.6,-2.53 7.68,-2.53 3.43,0 6.23,0.93 8.4,2.78 2.17,1.84 3.25,4.18 3.25,7.03 0,2.96 -1.09,5.51 -3.28,7.64 -2.19,2.14 -5.21,3.56 -9.07,4.27zm29.12 2.76c-0.71,3.23 -1.27,6.31 -1.68,9.21 -0.41,2.91 -0.61,5.27 -0.61,7.09 0,1.77 0.32,3.04 0.96,3.79 0.64,0.76 1.71,1.14 3.18,1.14 1.64,0 2.92,-0.41 3.83,-1.22 0.92,-0.83 1.61,-2.14 2.08,-3.99 0.55,-2.27 1.04,-5 1.45,-8.17 0.41,-3.16 0.61,-5.81 0.61,-7.92 0,-1.57 -0.25,-2.73 -0.78,-3.51 -0.52,-0.76 -1.31,-1.15 -2.37,-1.15 -1.07,0 -2.18,0.41 -3.33,1.22 -1.14,0.83 -2.26,1.99 -3.34,3.51zm0.92 -4.25c1.33,-1.05 2.63,-1.83 3.92,-2.34 1.28,-0.5 2.56,-0.75 3.85,-0.75 2.97,0 5.39,1.15 7.28,3.46 1.88,2.31 2.81,5.29 2.81,8.93 0,5.03 -1.62,9.34 -4.88,12.92 -3.24,3.59 -7.21,5.37 -11.88,5.37 -3.96,0 -7.08,-1.44 -9.35,-4.33 -2.27,-2.9 -3.41,-6.86 -3.41,-11.89 0,-4.1 0.95,-8.22 2.85,-12.32 1.89,-4.11 4.54,-7.76 7.95,-10.94 2.79,-2.62 5.73,-4.62 8.85,-6.02 3.11,-1.39 6.44,-2.21 9.99,-2.46l0 2.26c-4.63,0.73 -8.5,2.66 -11.58,5.75 -3.09,3.1 -5.22,7.23 -6.4,12.36zm41.53 11.51l13.62 0 4.4 -23.33c-3.14,3.42 -6.19,7.05 -9.16,10.9 -2.98,3.83 -5.93,7.98 -8.86,12.43zm11.01 12.91l1.97 -10.58 -14.58 0 0 -3.6c3.41,-5 7.14,-10 11.17,-15.01 4.03,-5.01 8.45,-10.13 13.27,-15.39l5.14 0 -5.86 31.6 5.74 0 0.96 -5.22 1.57 0 -2.41 13.05 -1.57 0 0.98 -5.43 -5.75 0 -1.99 10.58 4.99 0 0 2.26 -18.31 0 0 -2.26 4.68 0zm27.84 -29.91l-2.09 0 6.44 -13.96 22.97 0 0 3.17 -8.73 12.99c-2.16,3.22 -3.9,6.4 -5.19,9.52 -1.29,3.13 -1.93,5.65 -1.93,7.53 0,0.77 0.14,1.94 0.43,3.48 0.28,1.53 0.43,2.7 0.43,3.5 0,1.98 -0.5,3.6 -1.49,4.87 -0.98,1.28 -2.23,1.91 -3.72,1.91 -1.49,0 -2.7,-0.49 -3.6,-1.48 -0.91,-0.99 -1.36,-2.28 -1.36,-3.89 0,-1.88 0.71,-4.24 2.12,-7.1 1.41,-2.86 3.94,-6.95 7.61,-12.27l9.4 -13.7 -17.22 0c-0.41,0 -0.8,0.16 -1.16,0.46 -0.37,0.32 -0.73,0.8 -1.08,1.47l-1.83 3.5z"/>
  <path fill="#EBD72D" d="M90.53 51c-4.79,-2.05 -6.89,-3.73 -7.93,-9.64 -0.76,-4.31 -0.55,-11.36 1.34,-15.08 3.58,-7.07 18.94,-8.06 27.01,-4.41 4.44,2.01 5.67,5.58 6.11,11.53 0.96,12.98 -2.81,18.18 -15.71,18.57 -4.32,0.13 -4.24,-0.4 -6.7,2.19 -1.42,1.49 -2.29,3.3 -4.07,4.25l-0.05 -7.41zm-27.4 -14.16c0,11.58 3.46,19.84 11.15,27.56 22.66,22.77 62.83,7.14 62.83,-27.07 0,-36.53 -51.89,-52.03 -70.39,-15.03 -1.99,3.98 -3.59,8.85 -3.59,14.54zm38.91 4.05c-2.92,-0.12 -4.78,-1.72 -6.12,-3.36 -2.49,-3.04 -1.68,-3.95 0.49,-5.77 -0.34,-10.05 -17.64,-8.75 -0.42,9.62 9.28,9.91 17.84,3.98 11.86,-0.59 -3.46,-2.65 -3.35,-2.3 -5.81,0.1zm7.28 -3.55c2.4,-3.24 -2.87,-12.46 -10.3,-11.01 1.23,1.4 4.7,0.91 7.21,3.42 2.26,2.24 1.63,5.42 3.09,7.59zm-9.36 -8.1c1.52,1.11 3.14,0.72 4.61,2.17 1.67,1.66 0.72,3.01 2.17,4.78 1.6,-3.52 -2.5,-7.37 -5.44,-7.41 -2.58,-0.05 -0.57,-0.1 -1.34,0.46zm3.06 3.77c0.52,1.64 0.12,1.41 1.24,2.48 0.67,-2.07 -0.96,-4.56 -3.66,-3.59l2.42 1.11z"/>
 </g>
</svg>
