<?xml version="1.0" encoding="UTF-8"?>
<!DOCTYPE svg PUBLIC "-//W3C//DTD SVG 1.1//EN" "http://www.w3.org/Graphics/SVG/1.1/DTD/svg11.dtd">
<!-- Creator: CorelDRAW 2019 (64-Bit) -->
<svg xmlns="http://www.w3.org/2000/svg" xml:space="preserve" width="629px" height="630px" version="1.1" style="shape-rendering:geometricPrecision; text-rendering:geometricPrecision; image-rendering:optimizeQuality; fill-rule:evenodd; clip-rule:evenodd"
viewBox="0 0 51.94 51.97"
 xmlns:xlink="http://www.w3.org/1999/xlink">
 <defs>
  <style type="text/css">
   <![CDATA[
    .fil0 {fill:#EBD72D}
   ]]>
  </style>
 </defs>
 <g id="Слой_x0020_1">
  <metadata id="CorelCorpID_0Corel-Layer"/>
  <path class="fil0" d="M19.23 35.04c-3.36,-1.44 -4.83,-2.61 -5.56,-6.77 -0.54,-3.02 -0.38,-7.97 0.94,-10.59 2.51,-4.95 13.3,-5.65 18.96,-3.09 3.12,1.41 3.99,3.92 4.29,8.1 0.67,9.11 -1.97,12.76 -11.03,13.03 -3.03,0.09 -2.97,-0.28 -4.7,1.54 -1,1.05 -1.61,2.32 -2.86,2.99l-0.04 -5.21zm-19.23 -9.94c0,8.13 2.43,13.93 7.83,19.35 15.91,15.98 44.11,5.01 44.11,-19 0,-25.65 -36.43,-36.53 -49.42,-10.56 -1.4,2.8 -2.52,6.21 -2.52,10.21zm27.32 2.85c-2.05,-0.09 -3.36,-1.21 -4.3,-2.36 -1.75,-2.14 -1.18,-2.78 0.34,-4.05 -0.24,-7.06 -12.38,-6.15 -0.29,6.75 6.52,6.96 12.53,2.79 8.33,-0.42 -2.43,-1.86 -2.35,-1.61 -4.08,0.08zm5.11 -2.5c1.68,-2.27 -2.02,-8.75 -7.23,-7.73 0.86,0.99 3.3,0.64 5.06,2.4 1.58,1.58 1.14,3.81 2.17,5.33zm-6.57 -5.68c1.06,0.78 2.2,0.5 3.23,1.52 1.17,1.17 0.51,2.11 1.52,3.35 1.13,-2.47 -1.75,-5.17 -3.81,-5.2 -1.81,-0.03 -0.4,-0.07 -0.94,0.33zm2.14 2.64c0.37,1.16 0.09,0.99 0.88,1.74 0.47,-1.45 -0.68,-3.2 -2.57,-2.52l1.69 0.78z"/>
 </g>
</svg>
