<?xml version="1.0" encoding="UTF-8"?>
<!DOCTYPE svg PUBLIC "-//W3C//DTD SVG 1.1//EN" "http://www.w3.org/Graphics/SVG/1.1/DTD/svg11.dtd">
<!-- Creator: CorelDRAW 2019 (64-Bit) -->
<svg xmlns="http://www.w3.org/2000/svg" xml:space="preserve" width="629px" height="629px" version="1.1" style="shape-rendering:geometricPrecision; text-rendering:geometricPrecision; image-rendering:optimizeQuality; fill-rule:evenodd; clip-rule:evenodd"
viewBox="0 0 64.42 64.41"
 xmlns:xlink="http://www.w3.org/1999/xlink">

 <g id="Слой_x0020_1">
  <metadata id="CorelCorpID_0Corel-Layer"/>
  <path fill="#EBD72D" d="M24.68 22.94c2.31,-1.91 7.19,-1.48 9.98,-0.6 0.61,3.36 -0.3,7.46 0.62,10.54 2.37,-0.33 3.16,-2.27 4.25,-4.11 1.14,-1.9 1.96,-3.76 2.75,-5.76 2.57,-0.44 6.77,-0.61 9.27,0 0.5,4.4 -5.57,8.29 -6.42,11.87 1.23,3.15 6.59,5.07 6.49,9.41 -1.84,0.73 -7.03,1.21 -9.17,0.21 -2.21,-1.04 -3.6,-3.97 -5.76,-4.91 -2.41,1.07 -1.25,2.48 -2.11,4.68 -1.3,1.55 -9.64,1.54 -15.38,-5.98 -1.86,-2.43 -8.15,-11.72 -8,-15.25 1.81,-0.47 3.92,-0.4 5.88,-0.35 2.76,0.07 2.45,0.53 3.41,2.8 1.05,2.49 3.21,7.16 6.01,7.39 0.39,-1.66 0.66,-3.73 0.53,-5.71 -0.06,-0.96 -0.09,-1.84 -0.54,-2.58 -0.04,-0.06 -1.75,-1.62 -1.81,-1.65zm-24.68 8.1c0,10.32 3.59,19.45 11.38,25.73 2.29,1.85 4.13,3.3 6.97,4.56 11.16,4.97 22.37,3.86 32.51,-2.89 7.11,-4.73 13.56,-15.03 13.56,-26.12 0,-33.59 -45.47,-45.45 -61.3,-13.94 -1.6,3.2 -3.12,8.04 -3.12,12.66z"/>
 </g>
</svg>
