<?xml version="1.0" encoding="UTF-8"?>
<!DOCTYPE svg PUBLIC "-//W3C//DTD SVG 1.1//EN" "http://www.w3.org/Graphics/SVG/1.1/DTD/svg11.dtd">
<!-- Creator: CorelDRAW 2019 (64-Bit) -->
<svg xmlns="http://www.w3.org/2000/svg" xml:space="preserve" width="630px" height="629px" version="1.1" style="shape-rendering:geometricPrecision; text-rendering:geometricPrecision; image-rendering:optimizeQuality; fill-rule:evenodd; clip-rule:evenodd"
viewBox="0 0 43.21 43.15"
 xmlns:xlink="http://www.w3.org/1999/xlink">
 <defs>
  <style type="text/css">
   <![CDATA[
    .fil0 {fill:#EBD72D}
   ]]>
  </style>
 </defs>
 <g id="Слой_x0020_1">
  <metadata id="CorelCorpID_0Corel-Layer"/>
  <path class="fil0" d="M10.67 32.48c2.64,-7.84 1.69,-4.61 0.7,-8.41 -0.88,-3.4 -0.06,-6.69 1.65,-9.05 3.45,-4.76 11.08,-6.13 16.1,-1.57 7.34,6.67 1.68,20.53 -9.54,18.36 -2.22,-0.43 -2.16,-1.45 -4.66,-0.61 -1.26,0.43 -3,1.09 -4.25,1.28zm-10.67 -11.62l0 1.43c0,10.98 9.89,20.86 20.86,20.86 3.94,0 6.69,-0.48 9.9,-2.1 11.17,-5.61 15.35,-18.47 10.38,-28.48 -1.43,-2.88 -2.15,-4 -4.36,-6.21 -13.79,-13.79 -36.78,-3.41 -36.78,14.5zm16.46 -1.02c-0.3,-1.36 -0.1,-3.65 2.61,-3.42 1.41,2.96 1.27,2.82 0.13,4.15 0.62,1.59 2.1,3.25 3.94,3.71 0.37,-0.3 1.03,-0.89 1.43,-1.28 1.02,0.3 1.97,0.83 2.76,1.39 -0.48,5.92 -9.72,0.52 -10.87,-4.55zm-2.8 10.09c1.5,-0.29 2.45,-1.08 3.82,-0.56 1.38,0.51 1.83,0.95 3.65,1.07 3.16,0.21 5.09,-0.94 6.75,-2.52 8.67,-8.27 -4.65,-21.49 -13.02,-11.89 -1.41,1.61 -2.3,4.27 -1.87,7.01 0.29,1.77 0.71,2.01 1.28,3.31 0.44,1.03 -0.37,2.15 -0.61,3.58z"/>
 </g>
</svg>
