<svg width="24" height="24" viewBox="0 0 24 24" fill="none" xmlns="http://www.w3.org/2000/svg">
<path d="M17 12.75C17.4142 12.75 17.75 12.4142 17.75 12C17.75 11.5858 17.4142 11.25 17 11.25L17 12.75ZM7 11.25C6.58579 11.25 6.25 11.5858 6.25 12C6.25 12.4142 6.58579 12.75 7 12.75L7 11.25ZM17 11.25L7 11.25L7 12.75L17 12.75L17 11.25Z" fill="#7D818E"/>
<path d="M12.75 7C12.75 6.58579 12.4142 6.25 12 6.25C11.5858 6.25 11.25 6.58579 11.25 7L12.75 7ZM11.25 17C11.25 17.4142 11.5858 17.75 12 17.75C12.4142 17.75 12.75 17.4142 12.75 17H11.25ZM11.25 7L11.25 17H12.75L12.75 7L11.25 7Z" fill="#7D818E"/>
</svg>
